<?xml version="1.0" encoding="UTF-8" standalone="no"?>
<!DOCTYPE svg PUBLIC "-//W3C//DTD SVG 1.1//EN" "http://www.w3.org/Graphics/SVG/1.1/DTD/svg11.dtd">
<svg width="100%" height="100%" viewBox="0 0 2721 388" version="1.1" xmlns="http://www.w3.org/2000/svg" xmlns:xlink="http://www.w3.org/1999/xlink" xml:space="preserve" xmlns:serif="http://www.serif.com/" style="fill-rule:evenodd;clip-rule:evenodd;stroke-linejoin:round;stroke-miterlimit:2;">
    <g transform="matrix(1,0,0,1,-49144.7,-11268.3)">
        <g id="Plan-de-travail14" serif:id="Plan de travail14" transform="matrix(1.4008,0,0,1,5505.56,9464.06)">
            <rect x="31153" y="1804.24" width="1942.4" height="387.265" style="fill:none;"/>
            <g transform="matrix(0.505398,0,0,0.707961,6290.06,-6465.77)">
                <path d="M49347.3,11838.6L49347.3,12081.9L49310.5,12081.9L49310.5,11838.6L49347.3,11838.6ZM49447.9,11941.6L49447.9,11978.4L49209.5,11978.4L49209.5,11941.6L49447.9,11941.6Z" style="fill:white;fill-rule:nonzero;"/>
                <path d="M49608.2,12120.1C49579.5,12120.1 49554,12113.3 49532,12099.8C49509.9,12086.2 49494.9,12067.5 49487.1,12043.6L49526.3,12023.5C49530.3,12035.6 49535.6,12046.1 49542.5,12055.1C49549.4,12064.1 49558.5,12071.1 49569.7,12076C49581,12080.9 49595.2,12083.3 49612.2,12083.3C49626.5,12083.3 49638.6,12080.7 49648.5,12075.5C49658.3,12070.3 49665.8,12063.2 49671,12054.2C49676.2,12045.2 49678.9,12034.8 49678.9,12023C49678.9,12011.2 49676.7,12001.4 49672.2,11993.6C49667.8,11985.7 49660.9,11979.9 49651.4,11976.2C49641.9,11972.4 49629.5,11970.5 49614.1,11970.5C49610.5,11970.5 49606.6,11970.6 49602.4,11970.8C49598.1,11970.9 49593.7,11971.4 49589.1,11972L49589.1,11932.8C49592.1,11933.1 49594.9,11933.3 49597.7,11933.3L49605.3,11933.3C49629.2,11933.3 49646.2,11928.6 49656.3,11919.3C49666.4,11910 49671.5,11895.3 49671.5,11875.4C49671.5,11858.4 49666.3,11845.5 49655.8,11836.6C49645.3,11827.8 49630.5,11823.4 49611.2,11823.4C49590.6,11823.4 49574.9,11827.9 49564.1,11836.9C49553.3,11845.9 49544.8,11858.1 49538.6,11873.4L49501.3,11855.8C49506.5,11842 49514.4,11829.9 49524.9,11819.5C49535.3,11809 49548,11800.8 49562.9,11795C49577.7,11789.1 49594.2,11786.1 49612.2,11786.1C49634.7,11786.1 49653.4,11790 49668.1,11797.6C49682.8,11805.3 49693.8,11815.6 49701.2,11828.3C49708.5,11841.1 49712.2,11855.1 49712.2,11870.5C49712.2,11882.3 49710.6,11892.8 49707.3,11902.1C49704,11911.4 49699.5,11919.5 49693.8,11926.4C49688.1,11933.3 49681.6,11938.7 49674.5,11942.8C49667.3,11946.9 49659.6,11949.6 49651.4,11950.9L49651.4,11951.9C49662.2,11952.2 49671.8,11954.4 49680.1,11958.3C49688.4,11962.2 49695.5,11967.4 49701.4,11974C49707.3,11980.5 49711.8,11987.9 49714.9,11996.3C49718,12004.6 49719.6,12013.4 49719.6,12022.5C49719.6,12041.5 49714.9,12058.3 49705.6,12073C49696.3,12087.8 49683.3,12099.3 49666.6,12107.6C49649.9,12116 49630.5,12120.1 49608.2,12120.1Z" style="fill:white;fill-rule:nonzero;"/>
                <path d="M49891.7,12120.1C49862.9,12120.1 49837.5,12113.3 49815.4,12099.8C49793.4,12086.2 49778.4,12067.5 49770.6,12043.6L49809.8,12023.5C49813.7,12035.6 49819.1,12046.1 49826,12055.1C49832.9,12064.1 49841.9,12071.1 49853.2,12076C49864.5,12080.9 49878.6,12083.3 49895.6,12083.3C49910,12083.3 49922.1,12080.7 49931.9,12075.5C49941.7,12070.3 49949.3,12063.2 49954.5,12054.2C49959.7,12045.2 49962.3,12034.8 49962.3,12023C49962.3,12011.2 49960.1,12001.4 49955.7,11993.6C49951.3,11985.7 49944.4,11979.9 49934.9,11976.2C49925.4,11972.4 49913,11970.5 49897.6,11970.5C49894,11970.5 49890.1,11970.6 49885.8,11970.8C49881.6,11970.9 49877.2,11971.4 49872.6,11972L49872.6,11932.8C49875.5,11933.1 49878.4,11933.3 49881.2,11933.3L49888.8,11933.3C49912.6,11933.3 49929.6,11928.6 49939.8,11919.3C49949.9,11910 49955,11895.3 49955,11875.4C49955,11858.4 49949.7,11845.5 49939.3,11836.6C49928.8,11827.8 49913.9,11823.4 49894.7,11823.4C49874.1,11823.4 49858.4,11827.9 49847.6,11836.9C49836.8,11845.9 49828.3,11858.1 49822.1,11873.4L49784.8,11855.8C49790,11842 49797.9,11829.9 49808.3,11819.5C49818.8,11809 49831.5,11800.8 49846.3,11795C49861.2,11789.1 49877.6,11786.1 49895.6,11786.1C49918.2,11786.1 49936.8,11790 49951.5,11797.6C49966.3,11805.3 49977.3,11815.6 49984.7,11828.3C49992,11841.1 49995.7,11855.1 49995.7,11870.5C49995.7,11882.3 49994.1,11892.8 49990.8,11902.1C49987.5,11911.4 49983,11919.5 49977.3,11926.4C49971.6,11933.3 49965.1,11938.7 49957.9,11942.8C49950.7,11946.9 49943,11949.6 49934.9,11950.9L49934.9,11951.9C49945.7,11952.2 49955.2,11954.4 49963.6,11958.3C49971.9,11962.2 49979,11967.4 49984.9,11974C49990.8,11980.5 49995.3,11987.9 49998.4,11996.3C50001.5,12004.6 50003,12013.4 50003,12022.5C50003,12041.5 49998.4,12058.3 49989.1,12073C49979.7,12087.8 49966.8,12099.3 49950.1,12107.6C49933.4,12116 49913.9,12120.1 49891.7,12120.1Z" style="fill:white;fill-rule:nonzero;"/>
                <path d="M50356.1,11786.6C50373.5,11786.6 50388.6,11789 50401.5,11793.7C50414.4,11798.5 50425.6,11805.8 50435.1,11815.8C50444.6,11825.8 50452.6,11838.8 50459.1,11854.8L50422.8,11872C50417.9,11856.9 50410,11845.1 50399.1,11836.4C50388.1,11827.7 50373,11823.4 50353.7,11823.4C50339.6,11823.4 50327.2,11826.9 50316.4,11833.9C50305.6,11841 50296.5,11850.7 50289,11863.1C50281.4,11875.6 50275.8,11890.1 50272,11906.8C50268.3,11923.5 50266.4,11941.4 50266.4,11960.7L50266.4,11969.6L50268.4,11969.6C50272,11955.5 50278.6,11944.1 50288.2,11935.5C50297.9,11926.8 50308.8,11920.4 50321.1,11916.3C50333.3,11912.3 50345.4,11910.2 50357.1,11910.2C50379,11910.2 50398.2,11914.5 50414.5,11923C50430.9,11931.5 50443.5,11943.6 50452.5,11959.3C50461.5,11975 50466,11993.6 50466,12015.2C50466,12036.4 50461.4,12055 50452.3,12070.8C50443.1,12086.7 50430.3,12098.9 50413.8,12107.4C50397.3,12115.9 50377.6,12120.1 50354.7,12120.1C50327.5,12120.1 50304.6,12112.9 50286,12098.5C50267.4,12084.2 50253.3,12064.5 50243.8,12039.4C50234.3,12014.4 50229.6,11985.7 50229.6,11953.4C50229.6,11917.1 50235.2,11886.6 50246.3,11861.9C50257.4,11837.2 50272.5,11818.5 50291.7,11805.7C50310.8,11793 50332.3,11786.6 50356.1,11786.6ZM50354.2,11948C50340.1,11948 50327.8,11950.8 50317.2,11956.6C50306.5,11962.3 50298.3,11970.1 50292.4,11980.1C50286.5,11990.1 50283.6,12001.6 50283.6,12014.7C50283.6,12027.1 50286.7,12038.5 50292.9,12048.8C50299.1,12059.1 50307.5,12067.2 50318.1,12073.3C50328.8,12079.3 50340.8,12082.4 50354.2,12082.4C50376.4,12082.4 50393.7,12076.4 50406.2,12064.5C50418.6,12052.5 50424.8,12035.9 50424.8,12014.7C50424.8,12000.9 50422,11989.1 50416.5,11979.1C50410.9,11969.1 50402.9,11961.5 50392.4,11956.1C50382,11950.7 50369.2,11948 50354.2,11948Z" style="fill:white;fill-rule:nonzero;"/>
                <path d="M50803.9,11786.6C50831,11786.6 50853.9,11793.7 50872.6,11807.9C50891.2,11822.2 50905.3,11841.8 50914.8,11866.8C50924.2,11891.8 50929,11920.7 50929,11953.4C50929,11989.7 50924.2,12020.2 50914.8,12044.8C50905.3,12069.5 50891.3,12088.2 50872.8,12101C50854.3,12113.8 50831.5,12120.1 50804.4,12120.1C50777.6,12120.1 50754.5,12113.9 50735.2,12101.5C50716,12089.1 50701.6,12070.9 50692.1,12047L50730.8,12026.4C50736.1,12043.5 50744.6,12057.2 50756.6,12067.6C50768.5,12078.1 50784.9,12083.3 50805.9,12083.3C50822.9,12083.3 50837,12080 50848.3,12073.3C50859.6,12066.6 50868.5,12056.9 50875,12044.4C50881.6,12031.8 50886.2,12016.6 50889,11999C50891.8,11981.3 50893.2,11961.7 50893.2,11940.1L50893.2,11935.7L50891.2,11935.7C50887.3,11950.4 50880.4,11962.3 50870.6,11971.3C50860.8,11980.3 50849.8,11986.7 50837.5,11990.6C50825.2,11994.6 50813.1,11996.5 50801,11996.5C50779.7,11996.5 50760.9,11992.4 50744.6,11984C50728.2,11975.7 50715.5,11964 50706.3,11949C50697.1,11933.9 50692.6,11916.1 50692.6,11895.5C50692.6,11873.3 50697,11854.1 50705.8,11837.9C50714.6,11821.7 50727.4,11809.1 50744.1,11800.1C50760.7,11791.1 50780.7,11786.6 50803.9,11786.6ZM50804.4,11824.4C50781.5,11824.4 50764,11830.7 50751.9,11843.3C50739.8,11855.9 50733.8,11873.4 50733.8,11896C50733.8,11915.3 50740.1,11930.6 50752.9,11941.8C50765.7,11953.1 50782.8,11958.8 50804.4,11958.8C50818.5,11958.8 50830.8,11955.9 50841.4,11950.2C50852.1,11944.5 50860.3,11936.6 50866.2,11926.6C50872.1,11916.7 50875,11905.1 50875,11892.1C50875,11878.3 50872.1,11866.4 50866.2,11856.3C50860.3,11846.1 50852.1,11838.3 50841.4,11832.7C50830.8,11827.2 50818.5,11824.4 50804.4,11824.4Z" style="fill:white;fill-rule:nonzero;"/>
                <path d="M51099.1,12120.1C51070.4,12120.1 51047.2,12113.6 51029.7,12100.5C51012.3,12087.4 50998.8,12069.3 50989.3,12046.1L51027.5,12026C51032.8,12043 51040.9,12056.8 51051.8,12067.4C51062.8,12078 51078.9,12083.3 51100.1,12083.3C51115.2,12083.3 51128,12080.6 51138.6,12075C51149.3,12069.4 51157.5,12061.5 51163.4,12051.2C51169.3,12040.9 51172.2,12028.6 51172.2,12014.2C51172.2,11998.8 51169.5,11986 51164.1,11975.7C51158.7,11965.4 51151,11957.6 51140.8,11952.4C51130.7,11947.2 51118.3,11944.5 51103.6,11944.5C51093.1,11944.5 51083.4,11945.6 51074.4,11947.7C51065.4,11949.9 51057.3,11953.2 51050.1,11957.8C51042.9,11962.4 51036.7,11968.4 51031.5,11975.9L50997.1,11969.6L51016.3,11791.5L51198.2,11791.5L51198.2,11828.3L51049.6,11828.3L51036.9,11930.3L51035.9,11934.7L51036.9,11934.7C51044.7,11926.6 51054.8,11920 51067,11915.1C51079.3,11910.2 51093.9,11907.8 51110.9,11907.8C51131.5,11907.8 51149.4,11912.1 51164.6,11920.8C51179.8,11929.4 51191.7,11941.6 51200.2,11957.3C51208.7,11973 51212.9,11991.3 51212.9,12012.2C51212.9,12028.9 51210.2,12043.9 51204.6,12057.3C51199,12070.8 51191.2,12082.1 51181.1,12091.4C51170.9,12100.8 51158.9,12107.9 51145,12112.8C51131.1,12117.7 51115.8,12120.1 51099.1,12120.1Z" style="fill:white;fill-rule:nonzero;"/>
                <path d="M51498.4,12115.2L51498.4,11877.8C51498.4,11872.3 51498.4,11866.3 51498.6,11859.9C51498.8,11853.6 51499,11846.9 51499.3,11840.1C51488.2,11850.9 51475.3,11860.3 51460.6,11868.3C51445.9,11876.3 51430.8,11882.1 51415.5,11885.7L51405.2,11849.9C51411.1,11849.2 51418.5,11847 51427.5,11843.3C51436.5,11839.5 51446,11834.8 51455.9,11829C51465.9,11823.3 51475.1,11817.2 51483.6,11810.6C51492.1,11804.1 51498.7,11797.7 51503.3,11791.5L51537.6,11791.5L51537.6,12115.2L51498.4,12115.2Z" style="fill:white;fill-rule:nonzero;"/>
                <path d="M51737.7,12120.1C51701.1,12120.1 51671.8,12105.9 51649.9,12077.5C51628,12049 51617,12007.6 51617,11953.4C51617,11899.1 51628,11857.7 51649.9,11829.3C51671.8,11800.8 51701.1,11786.6 51737.7,11786.6C51774.6,11786.6 51804,11800.8 51825.7,11829.3C51847.5,11857.7 51858.3,11899.1 51858.3,11953.4C51858.3,12007.6 51847.5,12049 51825.7,12077.5C51804,12105.9 51774.6,12120.1 51737.7,12120.1ZM51737.7,12084.8C51755,12084.8 51769.6,12079.8 51781.6,12069.9C51793.5,12059.9 51802.5,12045.1 51808.6,12025.5C51814.6,12005.9 51817.6,11981.8 51817.6,11953.4C51817.6,11924.9 51814.6,11900.9 51808.6,11881.3C51802.5,11861.7 51793.5,11846.9 51781.6,11836.9C51769.6,11826.9 51755,11821.9 51737.7,11821.9C51720.4,11821.9 51705.7,11826.9 51693.8,11836.9C51681.9,11846.9 51672.9,11861.7 51666.8,11881.3C51660.8,11900.9 51657.7,11924.9 51657.7,11953.4C51657.7,11981.8 51660.8,12005.9 51666.8,12025.5C51672.9,12045.1 51681.9,12059.9 51693.8,12069.9C51705.7,12079.8 51720.4,12084.8 51737.7,12084.8Z" style="fill:white;fill-rule:nonzero;"/>
                <path d="M52144.7,12115.2L52144.7,11877.8C52144.7,11872.3 52144.8,11866.3 52145,11859.9C52145.1,11853.6 52145.4,11846.9 52145.7,11840.1C52134.6,11850.9 52121.7,11860.3 52107,11868.3C52092.3,11876.3 52077.2,11882.1 52061.8,11885.7L52051.5,11849.9C52057.4,11849.2 52064.9,11847 52073.9,11843.3C52082.9,11839.5 52092.3,11834.8 52102.3,11829C52112.3,11823.3 52121.5,11817.2 52130,11810.6C52138.5,11804.1 52145.1,11797.7 52149.6,11791.5L52184,11791.5L52184,12115.2L52144.7,12115.2Z" style="fill:white;fill-rule:nonzero;"/>
                <path d="M52333.5,12115.2L52333.5,11877.8C52333.5,11872.3 52333.6,11866.3 52333.8,11859.9C52334,11853.6 52334.2,11846.9 52334.5,11840.1C52323.4,11850.9 52310.5,11860.3 52295.8,11868.3C52281.1,11876.3 52266,11882.1 52250.7,11885.7L52240.4,11849.9C52246.2,11849.2 52253.7,11847 52262.7,11843.3C52271.7,11839.5 52281.2,11834.8 52291.1,11829C52301.1,11823.3 52310.3,11817.2 52318.8,11810.6C52327.3,11804.1 52333.9,11797.7 52338.5,11791.5L52372.8,11791.5L52372.8,12115.2L52333.5,12115.2Z" style="fill:white;fill-rule:nonzero;"/>
                <path d="M52677.3,12115.2L52677.3,11877.8C52677.3,11872.3 52677.4,11866.3 52677.6,11859.9C52677.7,11853.6 52678,11846.9 52678.3,11840.1C52667.2,11850.9 52654.3,11860.3 52639.6,11868.3C52624.9,11876.3 52609.8,11882.1 52594.4,11885.7L52584.1,11849.9C52590,11849.2 52597.5,11847 52606.5,11843.3C52615.5,11839.5 52624.9,11834.8 52634.9,11829C52644.9,11823.3 52654.1,11817.2 52662.6,11810.6C52671.1,11804.1 52677.7,11797.7 52682.2,11791.5L52716.6,11791.5L52716.6,12115.2L52677.3,12115.2Z" style="fill:white;fill-rule:nonzero;"/>
                <path d="M52866.1,12115.2L52866.1,11877.8C52866.1,11872.3 52866.2,11866.3 52866.4,11859.9C52866.6,11853.6 52866.8,11846.9 52867.1,11840.1C52856,11850.9 52843.1,11860.3 52828.4,11868.3C52813.7,11876.3 52798.6,11882.1 52783.3,11885.7L52773,11849.9C52778.8,11849.2 52786.3,11847 52795.3,11843.3C52804.3,11839.5 52813.7,11834.8 52823.7,11829C52833.7,11823.3 52842.9,11817.2 52851.4,11810.6C52859.9,11804.1 52866.5,11797.7 52871,11791.5L52905.4,11791.5L52905.4,12115.2L52866.1,12115.2Z" style="fill:white;fill-rule:nonzero;"/>
            </g>
        </g>
    </g>
</svg>
