<?xml version="1.0" encoding="UTF-8" standalone="no"?>
<!DOCTYPE svg PUBLIC "-//W3C//DTD SVG 1.1//EN" "http://www.w3.org/Graphics/SVG/1.1/DTD/svg11.dtd">
<svg width="100%" height="100%" viewBox="0 0 1120 1120" version="1.1" xmlns="http://www.w3.org/2000/svg" xmlns:xlink="http://www.w3.org/1999/xlink" xml:space="preserve" xmlns:serif="http://www.serif.com/" style="fill-rule:evenodd;clip-rule:evenodd;stroke-linejoin:round;stroke-miterlimit:2;">
    <g transform="matrix(1,0,0,1,-13759.2,-1503)">
        <g id="Plan-de-travail10" serif:id="Plan de travail10" transform="matrix(1,0,0,1,2898.13,-105.2)">
            <rect x="10861.1" y="1608.2" width="1119.46" height="1119.46" style="fill:none;"/>
            <g transform="matrix(2.14277,0,0,2.14277,-19202.4,-2412.17)">
                <path d="M14291.4,2120.91L14184.4,2013.88C14179.8,2009.31 14172.4,2009.31 14167.8,2013.88C14163.3,2018.45 14163.3,2025.86 14167.8,2030.43L14274.9,2137.47L14167.8,2244.49C14163.3,2249.06 14163.3,2256.48 14167.8,2261.05C14172.4,2265.62 14179.8,2265.62 14184.4,2261.05L14291.4,2154.02L14398.5,2261.05C14403,2265.62 14410.4,2265.62 14415,2261.05C14419.6,2256.48 14419.6,2249.06 14415,2244.49L14308,2137.47L14415,2030.43C14419.6,2025.86 14419.6,2018.45 14415,2013.88C14410.4,2009.31 14403,2009.31 14398.5,2013.88L14291.4,2120.91Z" style="fill:white;fill-rule:nonzero;"/>
            </g>
        </g>
    </g>
</svg>
