<?xml version="1.0" encoding="UTF-8" standalone="no"?>
<!DOCTYPE svg PUBLIC "-//W3C//DTD SVG 1.1//EN" "http://www.w3.org/Graphics/SVG/1.1/DTD/svg11.dtd">
<svg width="100%" height="100%" viewBox="0 0 4000 2800" version="1.1" xmlns="http://www.w3.org/2000/svg" xmlns:xlink="http://www.w3.org/1999/xlink" xml:space="preserve" xmlns:serif="http://www.serif.com/" style="fill-rule:evenodd;clip-rule:evenodd;stroke-linejoin:round;stroke-miterlimit:2;">
    <g transform="matrix(1,0,0,1,-12505.6,-9626.21)">
        <g id="Plan-de-travail16" serif:id="Plan de travail16" transform="matrix(1.01561,0,0,1.00501,11802.8,9595.67)">
            <rect x="692.012" y="30.389" width="3938.52" height="2786.05" style="fill:none;"/>
            <clipPath id="_clip1">
                <rect x="692.012" y="30.389" width="3938.52" height="2786.05"/>
            </clipPath>
            <g clip-path="url(#_clip1)">
                <g transform="matrix(2.26815,0,0,2.36849,-1187.79,-1514.43)">
                    <rect x="828.782" y="652.241" width="1736.44" height="1176.3" style="fill:rgb(11,5,30);"/>
                </g>
                <g transform="matrix(12.3111,0,0,12.441,2667.24,1154.7)">
                    <path id="Tracé_2" d="M5.344,34.827C5.201,29.698 5.558,24.566 6.409,19.506C6.831,17.262 7.46,15.063 8.288,12.935C12.837,16.179 14.595,19.973 14.943,23.145C15.361,27.083 10.226,31.308 5.343,34.828M25.057,18.728C22.482,11.558 17.144,8.206 11.566,6.794C15.637,1.024 20.484,-1.298 21.966,-4.266C24.231,-8.8 24.2,-16.8 21.97,-17.122C15.59,-18.056 3.763,6.554 5.33,-0.592C7.174,-11.556 15.158,-24.1 18.94,-26.806C22.722,-29.512 17.972,-39.339 9.867,-33.294C1.762,-27.249 -1.587,-7.678 -1.587,-7.678C-3.323,-20.211 1.322,-39.123 0.46,-42.367C-0.402,-45.611 -13.7,-43.013 -15.856,-31.667C-17.986,-20.558 -10.135,4.663 -9.824,5.7C-10.386,4.986 -21.662,-9.617 -24.3,-9.833C-26.993,-10.048 -28.4,-2.16 -25.593,0.317C-25.568,0.341 -25.532,0.377 -25.509,0.401C-20.348,4.962 -16.474,10.799 -14.276,17.327C-11.236,26.4 -8.676,40.956 -11.606,61.627C-11.679,62.127 -11.75,62.632 -11.835,63.147C-12.152,64.963 -11.961,66.832 -11.284,68.547C-11.272,68.583 -11.247,68.619 -11.236,68.655L-13.342,80.565C-13.342,80.565 -22.811,77.812 -23.133,83.426C-23.455,89.04 -7.944,86.837 -8.28,83.426C-8.448,81.654 -7.573,77.297 -6.7,73.515C-5.262,74.278 -3.658,74.676 -2.03,74.675C-0.785,74.678 0.449,74.446 1.609,73.993C2.434,77.656 3.224,81.726 3.057,83.425C2.733,86.836 18.257,89.039 17.924,83.425C17.591,77.811 8.131,80.564 8.131,80.564L6.3,70.222C6.663,69.692 6.971,69.126 7.22,68.534C7.895,66.857 8.096,65.027 7.8,63.244C7.727,62.813 7.656,62.298 7.571,61.688C7.153,58.779 6.543,53.979 6.052,48.425C13.152,45.225 30.698,34.425 25.06,18.725" style="fill:white;fill-rule:nonzero;"/>
                </g>
            </g>
        </g>
    </g>
</svg>
