<?xml version="1.0" encoding="UTF-8" standalone="no"?>
<!DOCTYPE svg PUBLIC "-//W3C//DTD SVG 1.1//EN" "http://www.w3.org/Graphics/SVG/1.1/DTD/svg11.dtd">
<svg width="100%" height="100%" viewBox="0 0 4000 2800" version="1.1" xmlns="http://www.w3.org/2000/svg" xmlns:xlink="http://www.w3.org/1999/xlink" xml:space="preserve" xmlns:serif="http://www.serif.com/" style="fill-rule:evenodd;clip-rule:evenodd;stroke-linejoin:round;stroke-miterlimit:2;">
    <g transform="matrix(1,0,0,1,-16928.3,-9626.21)">
        <g id="Plan-de-travail16" serif:id="Plan de travail16" transform="matrix(1.01561,0,0,1.00501,16225.5,9595.67)">
            <rect x="692.012" y="30.389" width="3938.52" height="2786.05" style="fill:none;"/>
            <clipPath id="_clip1">
                <rect x="692.012" y="30.389" width="3938.52" height="2786.05"/>
            </clipPath>
            <g clip-path="url(#_clip1)">
                <g transform="matrix(2.26815,0,0,2.36849,-1187.79,-1514.43)">
                    <rect x="828.782" y="652.241" width="1736.44" height="1176.3" style="fill:rgb(11,5,30);"/>
                </g>
                <g transform="matrix(12.3111,0,0,12.441,2667.24,1154.7)">
                    <g transform="matrix(0.467361,0,0,0.467361,-80.9386,-13.0208)">
                        <path d="M0,48.711C-7.46,48.638 -14.85,49.642 -22.167,50.935C-21.521,42.11 -21.306,33.144 -21.306,24.248C-21.306,15.853 -22.167,7.461 -22.956,-0.932C-18.652,-1.148 -14.347,-1.649 -10.114,-2.224C-10.474,8.035 -10.761,18.364 -10.761,28.696C-10.761,30.49 -10.761,32.283 -10.618,34.004C-10.114,38.953 -8.967,40.102 -4.089,40.102C-1.722,40.102 0.645,39.815 3.013,39.599C2.869,40.963 2.654,42.326 2.654,43.687C2.654,45.338 2.941,47.061 3.228,48.711L0,48.711Z" style="fill:white;fill-rule:nonzero;"/>
                    </g>
                    <g transform="matrix(0.467361,0,0,0.467361,-70.0795,7.29824)">
                        <path d="M0,-27.766C-2.654,-27.766 -4.376,-25.112 -5.165,-21.595C-2.152,-21.955 0.79,-22.385 3.731,-23.102C3.229,-25.686 1.937,-27.766 0,-27.766M-1.004,6.239C-11.263,6.239 -16.714,-2.586 -16.714,-12.199C-16.714,-23.031 -9.541,-34.005 1.722,-34.005C9.039,-34.005 13.272,-28.697 13.272,-21.381C13.272,-20.232 13.2,-19.228 13.057,-18.153C6.672,-18.008 0.287,-17.721 -6.025,-16.79C-6.17,-15.497 -6.385,-14.136 -6.385,-12.843C-6.385,-9.185 -5.954,-0.72 -1.004,-0.72C3.157,-0.72 3.301,-6.171 3.301,-8.755C3.301,-10.262 3.085,-11.839 2.798,-13.417L11.406,-14.136C12.483,-11.839 13.343,-9.401 13.343,-6.818C13.343,0.211 6.887,6.239 -1.004,6.239" style="fill:white;fill-rule:nonzero;"/>
                    </g>
                    <g transform="matrix(0.467361,0,0,0.467361,-34.0345,3.47761)">
                        <path d="M0,-52.197C-3.981,-52.528 -7.852,-52.861 -11.833,-52.861C-13.381,-52.861 -15.04,-52.749 -16.589,-52.749C-17.252,-46.889 -17.694,-40.917 -17.694,-34.944C-17.694,-28.972 -17.363,-23.002 -16.809,-17.03C-11.611,-17.14 -6.525,-17.473 -1.327,-17.914C-1.991,-13.711 -2.433,-9.509 -2.764,-5.198C-5.088,-5.198 -7.41,-5.308 -9.732,-5.308C-13.381,-5.308 -18.579,-4.975 -18.579,-0.11C-18.579,4.757 -16.257,10.175 -14.819,14.82C-22.007,14.709 -29.085,15.151 -36.162,16.035C-34.614,2.324 -33.619,-11.501 -33.619,-25.323C-33.619,-38.816 -35.83,-52.197 -37.932,-65.468C-24.329,-65.468 -10.838,-66.352 2.764,-68.232C1.216,-62.813 0.11,-57.726 0,-52.197" style="fill:white;fill-rule:nonzero;"/>
                    </g>
                    <g transform="matrix(0.467361,0,0,0.467361,-19.7691,5.13295)">
                        <path d="M0,-39.704C-7.299,-39.704 -8.294,-17.917 -7.852,-11.835C-7.41,-6.97 -7.52,1.546 -0.995,1.546C7.078,1.546 7.298,-7.965 7.298,-14.048C7.298,-19.356 7.188,-39.704 0,-39.704M-3.981,11.278C-19.574,11.278 -24.993,-0.334 -24.993,-14.599C-24.993,-30.634 -16.367,-50.982 1.769,-50.982C17.362,-50.982 23.997,-33.068 23.997,-19.356C23.997,-0.887 14.93,11.278 -3.981,11.278" style="fill:white;fill-rule:nonzero;"/>
                    </g>
                    <g transform="matrix(0.467361,0,0,0.467361,11.656,-1.58643)">
                        <path d="M0,-8.738L-11.943,-8.738C-11.943,-8.738 -8.183,-15.372 -8.183,-20.129C-8.183,-23.224 -9.621,-24.994 -12.717,-24.994C-16.92,-24.994 -19.906,-19.134 -19.906,-15.372C-19.906,5.417 5.198,-6.638 5.198,10.395C5.198,22.891 -8.183,27.093 -21.233,27.093C-29.195,27.093 -35.166,22.891 -35.166,16.808C-35.166,13.6 -33.397,11.39 -33.397,11.39L-20.348,9.951C-20.679,11.056 -20.901,12.164 -20.901,13.269C-20.901,15.813 -19.463,17.472 -16.588,17.472C-12.717,17.472 -8.847,15.703 -8.847,12.605C-8.847,3.868 -36.162,10.615 -36.162,-13.936C-36.162,-28.753 -23.333,-35.831 -10.063,-35.831C-1.437,-35.831 5.088,-31.63 5.088,-22.45C5.088,-15.372 0,-8.738 0,-8.738" style="fill:white;fill-rule:nonzero;"/>
                    </g>
                    <g transform="matrix(0.467361,0,0,0.467361,33.7258,-1.58643)">
                        <path d="M0,-8.738L-11.943,-8.738C-11.943,-8.738 -8.183,-15.372 -8.183,-20.129C-8.183,-23.224 -9.621,-24.994 -12.717,-24.994C-16.92,-24.994 -19.906,-19.134 -19.906,-15.372C-19.906,5.417 5.198,-6.638 5.198,10.395C5.198,22.891 -8.183,27.093 -21.233,27.093C-29.195,27.093 -35.166,22.891 -35.166,16.808C-35.166,13.6 -33.397,11.39 -33.397,11.39L-20.348,9.951C-20.679,11.056 -20.901,12.164 -20.901,13.269C-20.901,15.813 -19.463,17.472 -16.588,17.472C-12.717,17.472 -8.847,15.703 -8.847,12.605C-8.847,3.868 -36.162,10.615 -36.162,-13.936C-36.162,-28.753 -23.333,-35.831 -10.063,-35.831C-1.437,-35.831 5.088,-31.63 5.088,-22.45C5.088,-15.372 0,-8.738 0,-8.738" style="fill:white;fill-rule:nonzero;"/>
                    </g>
                    <g transform="matrix(0.467361,0,0,0.467361,48.3016,-15.6966)">
                        <path d="M0,25.656C0,35.608 0.664,45.45 1.437,55.403C-4.756,55.515 -10.174,56.067 -16.367,56.841C-15.372,48.104 -14.708,39.368 -14.708,30.631C-14.708,18.909 -14.819,7.188 -16.257,-4.534C-9.952,-5.198 -4.534,-6.304 1.659,-7.852C0.774,3.318 0,14.486 0,25.656M-8.957,-12.607C-13.16,-12.607 -18.468,-14.599 -18.468,-19.574C-18.468,-25.99 -11.501,-31.185 -5.419,-31.185C-0.553,-31.185 5.088,-27.426 5.088,-22.118C5.088,-15.594 -3.539,-12.607 -8.957,-12.607" style="fill:white;fill-rule:nonzero;"/>
                    </g>
                    <g transform="matrix(0.467361,0,0,0.467361,63.4455,-9.18413)">
                        <path d="M0,1.436C0,14.596 0.885,27.867 1.99,40.917C-4.313,41.137 -10.396,41.801 -16.589,42.907C-15.261,30.631 -14.487,18.578 -14.487,6.303C-14.487,-8.627 -14.598,-23.667 -16.589,-38.486C-10.064,-38.596 -4.091,-39.702 2.101,-41.471C0.995,-27.205 0,-12.94 0,1.436" style="fill:white;fill-rule:nonzero;"/>
                    </g>
                    <g transform="matrix(0.467361,0,0,0.467361,80.1412,6.06188)">
                        <path d="M0,-42.797C-4.093,-42.797 -6.747,-38.704 -7.962,-33.286C-3.318,-33.84 1.216,-34.502 5.749,-35.609C4.976,-39.589 2.985,-42.797 0,-42.797M-1.549,9.621C-17.363,9.621 -25.768,-3.98 -25.768,-18.8C-25.768,-35.499 -14.709,-52.418 2.654,-52.418C13.933,-52.418 20.458,-44.235 20.458,-32.955C20.458,-31.186 20.348,-29.637 20.126,-27.978C10.284,-27.757 0.441,-27.314 -9.29,-25.877C-9.511,-23.885 -9.843,-21.785 -9.843,-19.795C-9.843,-14.156 -9.179,-1.106 -1.549,-1.106C4.865,-1.106 5.086,-9.509 5.086,-13.492C5.086,-15.813 4.754,-18.246 4.312,-20.679L17.583,-21.785C19.242,-18.246 20.569,-14.487 20.569,-10.504C20.569,0.333 10.616,9.621 -1.549,9.621" style="fill:white;fill-rule:nonzero;"/>
                    </g>
                    <g transform="matrix(0.467361,0,0,0.467361,-64.3043,21.7182)">
                        <path d="M0,88.247C0.664,81.392 0.774,62.814 0.774,58.39C0.774,56.731 0.111,47.994 -2.212,47.994C-5.419,47.994 -11.833,73.54 -12.386,78.184C-17.141,78.295 -21.896,78.738 -26.762,79.29C-27.536,75.087 -34.061,47.994 -38.042,47.994C-39.922,47.994 -39.812,53.192 -39.812,54.077C-39.812,61.265 -38.927,76.305 -38.152,84.708C-45.12,84.931 -51.755,85.816 -58.611,87.031C-53.303,60.711 -49.543,34.17 -47.442,7.298L-43.903,7.408C-39.369,7.408 -34.946,6.855 -30.412,6.08C-29.195,22.779 -25.877,41.801 -18.579,57.062C-10.395,41.358 -8.183,20.569 -9.179,3.095C-2.986,2.654 2.876,1.546 8.958,0C10.064,29.305 16.146,59.162 23.002,86.147C15.04,86.257 7.852,86.921 0,88.247" style="fill:white;fill-rule:nonzero;"/>
                    </g>
                    <g transform="matrix(0.467361,0,0,0.467361,-43.4223,40.6336)">
                        <path d="M0,31.629C0,33.842 1.991,34.837 3.539,34.837C9.511,34.837 11.391,25.99 11.391,18.579C6.525,21.677 0,25.99 0,31.629M21.233,47.774C15.814,46.559 12.608,43.461 12.608,37.712C10.948,42.245 2.876,45.453 -2.543,45.453C-10.284,45.453 -16.145,42.579 -16.145,34.173C-16.145,22.782 2.986,15.263 11.169,10.286L11.169,9.07C11.391,-2.874 7.299,-6.744 3.428,-6.744C0.885,-6.744 -1.327,-4.975 -1.327,-1.879C-1.327,2.103 0.885,5.862 2.986,8.96L-9.952,11.391C-13.159,7.521 -15.813,2.877 -15.813,-2.1C-15.813,-11.832 -5.197,-16.145 4.645,-16.145C22.45,-16.145 25.878,-6.965 26.099,13.714C26.209,17.584 25.656,21.456 25.656,25.215C25.656,35.057 25.656,39.15 31.629,41.581L21.233,47.774Z" style="fill:white;fill-rule:nonzero;"/>
                    </g>
                    <g transform="matrix(0.467361,0,0,0.467361,-14.5816,57.4316)">
                        <path d="M0,-41.581C-6.415,-41.581 -6.967,-28.2 -6.967,-24.33C-6.967,-20.569 -7.078,-14.266 -1.659,-14.266C4.976,-14.266 5.749,-22.892 5.749,-27.757C5.749,-31.739 5.861,-41.581 0,-41.581M-7.078,29.749C-13.714,29.749 -23.446,28.09 -23.446,20.348C-23.446,18.358 -22.892,16.366 -22.118,14.596C-16.699,14.155 -11.28,13.824 -5.862,13.601C-5.972,14.376 -6.193,15.26 -6.193,16.035C-6.193,18.689 -4.313,20.902 0,20.902C6.414,20.902 12.164,17.584 10.947,13.491C9.51,8.847 -20.348,13.601 -21.787,1.105C-22.118,-2.434 -20.238,-5.308 -15.814,-8.626C-15.814,-8.626 -23.224,-13.491 -23.224,-24.108C-23.224,-40.586 -15.925,-52.861 3.207,-52.861C4.424,-52.861 5.749,-52.861 6.966,-52.641C7.851,-55.516 8.073,-58.501 8.073,-61.488C8.073,-64.252 7.851,-67.017 7.519,-69.781C13.049,-69.781 18.579,-70.335 23.997,-71.33C24.108,-70.335 24.108,-69.227 24.108,-68.232C24.108,-60.601 20.458,-54.187 14.266,-49.212C19.905,-45.34 22.118,-37.158 22.118,-30.744C22.118,-12.055 13.049,-4.093 -1.659,-4.093C-6.193,-4.093 -8.958,-5.308 -8.958,-5.308C-8.958,-5.308 -9.843,-4.203 -9.843,-2.985C-9.843,5.862 27.094,-2.1 27.094,10.175C27.094,24.882 4.202,29.749 -7.078,29.749" style="fill:white;fill-rule:nonzero;"/>
                    </g>
                    <g transform="matrix(0.467361,0,0,0.467361,9.50406,35.466)">
                        <path d="M0,25.656C0,35.608 0.664,45.45 1.437,55.405C-4.756,55.515 -10.174,56.067 -16.367,56.841C-15.372,48.104 -14.708,39.368 -14.708,30.633C-14.708,18.909 -14.819,7.188 -16.257,-4.534C-9.952,-5.198 -4.534,-6.304 1.659,-7.852C0.774,3.318 0,14.486 0,25.656M-8.957,-12.607C-13.16,-12.607 -18.468,-14.599 -18.468,-19.574C-18.468,-25.988 -11.501,-31.185 -5.419,-31.185C-0.553,-31.185 5.088,-27.426 5.088,-22.118C5.088,-15.594 -3.539,-12.607 -8.957,-12.607" style="fill:white;fill-rule:nonzero;"/>
                    </g>
                    <g transform="matrix(0.467361,0,0,0.467361,25.7337,67.4582)">
                        <path d="M0,-63.145C-6.193,-63.145 -6.193,-48.326 -6.193,-44.015C-6.193,-39.702 -6.303,-23.333 -0.221,-23.333C6.747,-23.333 6.857,-35.168 6.857,-39.922C6.857,-46.225 7.52,-63.145 0,-63.145M23.556,8.295C17.141,8.847 10.727,10.616 4.093,12.386C5.972,3.982 7.188,-9.399 7.52,-17.251C5.088,-13.602 0.222,-11.943 -3.759,-11.943C-18.689,-11.943 -22.56,-31.075 -22.56,-42.687C-22.56,-57.616 -16.809,-73.541 0.995,-73.541C4.645,-73.541 9.289,-71.438 11.391,-68.897C11.943,-70.887 12.828,-73.872 14.045,-75.531L28.975,-72.546C18.248,-58.611 22.007,-10.837 23.556,8.295" style="fill:white;fill-rule:nonzero;"/>
                    </g>
                    <g transform="matrix(0.467361,0,0,0.467361,59.1746,31.8478)">
                        <path d="M0,66.573C-2.323,64.473 -4.423,62.039 -5.64,59.054C-9.511,62.483 -14.267,63.698 -19.243,63.698C-34.283,63.698 -38.817,50.871 -38.817,38.042C-38.817,24.551 -35.499,12.939 -31.961,0C-26.984,0.22 -21.455,0.22 -16.368,0C-20.128,15.26 -22.782,25.102 -22.782,43.46C-22.782,47.332 -22.229,52.972 -17.253,52.972C-9.179,52.972 -10.064,41.914 -10.064,36.273C-10.064,25.215 -10.616,15.814 -11.501,4.644C-5.198,4.534 0.331,4.092 6.524,2.987C5.529,14.486 4.865,24.33 4.865,35.831C4.865,46.335 6.524,55.515 12.717,62.372C8.515,63.698 4.202,65.026 0,66.573" style="fill:white;fill-rule:nonzero;"/>
                    </g>
                    <g transform="matrix(0.467361,0,0,0.467361,78.8667,57.2245)">
                        <path d="M0,-42.797C-4.093,-42.797 -6.747,-38.704 -7.962,-33.286C-3.318,-33.84 1.216,-34.504 5.749,-35.609C4.976,-39.589 2.985,-42.797 0,-42.797M-1.549,9.621C-17.363,9.621 -25.768,-3.98 -25.768,-18.8C-25.768,-35.499 -14.709,-52.418 2.654,-52.418C13.934,-52.418 20.458,-44.233 20.458,-32.955C20.458,-31.186 20.348,-29.637 20.126,-27.978C10.284,-27.757 0.441,-27.314 -9.29,-25.877C-9.511,-23.887 -9.843,-21.785 -9.843,-19.795C-9.843,-14.153 -9.179,-1.106 -1.549,-1.106C4.865,-1.106 5.086,-9.509 5.086,-13.492C5.086,-15.813 4.754,-18.246 4.312,-20.679L17.583,-21.785C19.242,-18.246 20.569,-14.487 20.569,-10.504C20.569,0.333 10.616,9.621 -1.549,9.621" style="fill:white;fill-rule:nonzero;"/>
                    </g>
                    <g transform="matrix(0.467361,0,0,0.467361,-68.3163,14.9722)">
                        <path d="M0,-2.083L2.505,-1.741C3.318,-1.629 3.318,-0.454 2.505,-0.343L0,0C-0.314,0.043 -0.561,0.29 -0.603,0.603L-0.946,3.108C-1.057,3.921 -2.233,3.921 -2.344,3.108L-2.686,0.603C-2.729,0.29 -2.976,0.043 -3.29,0L-5.795,-0.343C-6.608,-0.454 -6.608,-1.629 -5.795,-1.741L-3.29,-2.083C-2.976,-2.126 -2.729,-2.373 -2.686,-2.686L-2.344,-5.191C-2.233,-6.004 -1.057,-6.004 -0.946,-5.191L-0.603,-2.686C-0.561,-2.373 -0.314,-2.126 0,-2.083" style="fill:white;fill-rule:nonzero;"/>
                    </g>
                    <g transform="matrix(0.467361,0,0,0.467361,-6.08985,40.0095)">
                        <path d="M0,-2.083L2.505,-1.741C3.318,-1.629 3.318,-0.454 2.505,-0.342L0,0C-0.314,0.043 -0.561,0.29 -0.603,0.603L-0.946,3.108C-1.057,3.921 -2.233,3.921 -2.344,3.108L-2.686,0.603C-2.729,0.29 -2.976,0.043 -3.29,0L-5.794,-0.342C-6.608,-0.454 -6.608,-1.629 -5.794,-1.741L-3.29,-2.083C-2.976,-2.126 -2.729,-2.373 -2.686,-2.686L-2.344,-5.191C-2.233,-6.004 -1.057,-6.004 -0.946,-5.191L-0.603,-2.686C-0.561,-2.373 -0.314,-2.126 0,-2.083" style="fill:white;fill-rule:nonzero;"/>
                    </g>
                    <g transform="matrix(0.467361,0,0,0.467361,-39.9917,71.8218)">
                        <path d="M0,-2.083L2.505,-1.741C3.318,-1.629 3.318,-0.454 2.505,-0.343L0,0C-0.314,0.043 -0.561,0.29 -0.603,0.603L-0.946,3.108C-1.057,3.921 -2.233,3.921 -2.344,3.108L-2.686,0.603C-2.729,0.29 -2.976,0.043 -3.29,0L-5.794,-0.343C-6.608,-0.454 -6.608,-1.629 -5.794,-1.741L-3.29,-2.083C-2.976,-2.126 -2.729,-2.373 -2.686,-2.686L-2.344,-5.191C-2.233,-6.004 -1.057,-6.004 -0.946,-5.191L-0.603,-2.686C-0.561,-2.373 -0.314,-2.126 0,-2.083" style="fill:white;fill-rule:nonzero;"/>
                    </g>
                    <g transform="matrix(0.467361,0,0,0.467361,-26.122,5.97313)">
                        <path d="M0,-2.083L2.505,-1.741C3.318,-1.629 3.318,-0.454 2.505,-0.343L0,0C-0.314,0.043 -0.561,0.29 -0.603,0.603L-0.946,3.108C-1.057,3.921 -2.233,3.921 -2.344,3.108L-2.686,0.603C-2.729,0.29 -2.976,0.043 -3.29,0L-5.795,-0.343C-6.608,-0.454 -6.608,-1.629 -5.795,-1.741L-3.29,-2.083C-2.976,-2.126 -2.729,-2.373 -2.686,-2.686L-2.344,-5.191C-2.233,-6.004 -1.057,-6.004 -0.946,-5.191L-0.603,-2.686C-0.561,-2.373 -0.314,-2.126 0,-2.083" style="fill:white;fill-rule:nonzero;"/>
                    </g>
                    <g transform="matrix(0.467361,0,0,0.467361,-24.5403,-29.6387)">
                        <path d="M0,-2.707L3.254,-2.262C4.311,-2.118 4.311,-0.59 3.254,-0.445L0,-0.001C-0.408,0.055 -0.728,0.376 -0.784,0.784L-1.229,4.038C-1.374,5.095 -2.901,5.095 -3.046,4.038L-3.491,0.784C-3.546,0.376 -3.867,0.055 -4.275,-0.001L-7.529,-0.445C-8.586,-0.59 -8.586,-2.118 -7.529,-2.262L-4.275,-2.707C-3.867,-2.763 -3.546,-3.083 -3.491,-3.491L-3.046,-6.746C-2.901,-7.802 -1.374,-7.802 -1.229,-6.746L-0.784,-3.491C-0.728,-3.083 -0.408,-2.763 0,-2.707" style="fill:white;fill-rule:nonzero;"/>
                    </g>
                    <g transform="matrix(0.439138,-0.159951,0.159951,0.439138,-16.5525,82.1301)">
                        <path d="M0,-2.707L3.254,-2.262C4.311,-2.118 4.311,-0.59 3.254,-0.445L0,-0.001C-0.408,0.055 -0.728,0.376 -0.784,0.784L-1.229,4.038C-1.374,5.095 -2.901,5.095 -3.046,4.038L-3.491,0.784C-3.546,0.376 -3.867,0.055 -4.275,-0.001L-7.529,-0.445C-8.586,-0.59 -8.586,-2.118 -7.529,-2.262L-4.275,-2.707C-3.867,-2.763 -3.546,-3.083 -3.491,-3.491L-3.046,-6.746C-2.901,-7.802 -1.374,-7.802 -1.229,-6.746L-0.784,-3.491C-0.728,-3.083 -0.408,-2.763 0,-2.707" style="fill:white;fill-rule:nonzero;"/>
                    </g>
                    <g transform="matrix(0.467361,0,0,0.467361,16.3946,-20.4926)">
                        <path d="M0,-2.083L2.505,-1.741C3.318,-1.629 3.318,-0.454 2.505,-0.343L0,0C-0.314,0.043 -0.561,0.29 -0.603,0.603L-0.946,3.108C-1.057,3.921 -2.233,3.921 -2.344,3.108L-2.686,0.603C-2.729,0.29 -2.976,0.043 -3.29,0L-5.795,-0.343C-6.608,-0.454 -6.608,-1.629 -5.795,-1.741L-3.29,-2.083C-2.976,-2.126 -2.729,-2.373 -2.686,-2.687L-2.344,-5.191C-2.233,-6.004 -1.057,-6.004 -0.946,-5.191L-0.603,-2.687C-0.561,-2.373 -0.314,-2.126 0,-2.083" style="fill:white;fill-rule:nonzero;"/>
                    </g>
                    <g transform="matrix(0.467361,0,0,0.467361,-0.143529,-38.8451)">
                        <path d="M0,-1.165L1.402,-0.973C1.857,-0.911 1.857,-0.253 1.402,-0.191L0,0.001C-0.176,0.025 -0.314,0.163 -0.338,0.338L-0.529,1.74C-0.592,2.195 -1.25,2.195 -1.312,1.74L-1.503,0.338C-1.527,0.163 -1.665,0.025 -1.841,0.001L-3.243,-0.191C-3.698,-0.253 -3.698,-0.911 -3.243,-0.973L-1.841,-1.165C-1.665,-1.189 -1.527,-1.327 -1.503,-1.503L-1.312,-2.904C-1.25,-3.36 -0.592,-3.36 -0.529,-2.904L-0.338,-1.503C-0.314,-1.327 -0.176,-1.189 0,-1.165" style="fill:white;fill-rule:nonzero;"/>
                    </g>
                    <g transform="matrix(0.467361,0,0,0.467361,-48.5127,-45.4185)">
                        <path d="M0,-2.707L3.254,-2.262C4.311,-2.118 4.311,-0.59 3.254,-0.446L0,-0.001C-0.408,0.055 -0.728,0.376 -0.784,0.784L-1.229,4.038C-1.374,5.095 -2.901,5.095 -3.046,4.038L-3.491,0.784C-3.546,0.376 -3.867,0.055 -4.275,-0.001L-7.529,-0.446C-8.586,-0.59 -8.586,-2.118 -7.529,-2.262L-4.275,-2.707C-3.867,-2.763 -3.546,-3.083 -3.491,-3.491L-3.046,-6.746C-2.901,-7.802 -1.374,-7.802 -1.229,-6.746L-0.784,-3.491C-0.728,-3.083 -0.408,-2.763 0,-2.707" style="fill:white;fill-rule:nonzero;"/>
                    </g>
                    <g transform="matrix(0.467361,0,0,0.467361,89.1827,-8.51875)">
                        <path d="M0,-3.518L2.3,-4.566C3.047,-4.907 3.675,-3.913 3.047,-3.384L1.112,-1.757C0.87,-1.553 0.793,-1.213 0.925,-0.925L1.973,1.376C2.313,2.123 1.319,2.751 0.791,2.123L-0.836,0.188C-1.04,-0.054 -1.381,-0.131 -1.669,-0L-3.969,1.048C-4.716,1.389 -5.344,0.395 -4.716,-0.134L-2.781,-1.761C-2.539,-1.965 -2.462,-2.305 -2.593,-2.593L-3.642,-4.894C-3.982,-5.641 -2.988,-6.269 -2.46,-5.641L-0.833,-3.706C-0.629,-3.463 -0.288,-3.387 0,-3.518" style="fill:white;fill-rule:nonzero;"/>
                    </g>
                    <g transform="matrix(0.467361,0,0,0.467361,51.1514,-32.4904)">
                        <path d="M0,-1.969L1.287,-2.556C1.705,-2.746 2.057,-2.19 1.705,-1.894L0.623,-0.984C0.487,-0.869 0.444,-0.679 0.517,-0.518L1.104,0.77C1.294,1.188 0.738,1.539 0.443,1.187L-0.468,0.105C-0.582,-0.031 -0.773,-0.074 -0.934,-0L-2.221,0.586C-2.639,0.777 -2.991,0.221 -2.639,-0.075L-1.556,-0.986C-1.421,-1.1 -1.378,-1.29 -1.451,-1.452L-2.038,-2.739C-2.228,-3.157 -1.672,-3.508 -1.376,-3.157L-0.466,-2.074C-0.352,-1.938 -0.161,-1.895 0,-1.969" style="fill:white;fill-rule:nonzero;"/>
                    </g>
                    <g transform="matrix(0.467361,0,0,0.467361,64.6458,-23.8261)">
                        <path d="M0,-1.969L1.287,-2.556C1.705,-2.746 2.057,-2.19 1.705,-1.894L0.623,-0.984C0.487,-0.87 0.444,-0.679 0.517,-0.518L1.104,0.77C1.294,1.188 0.738,1.539 0.443,1.187L-0.468,0.105C-0.582,-0.031 -0.773,-0.074 -0.934,-0L-2.221,0.586C-2.639,0.777 -2.991,0.221 -2.639,-0.075L-1.556,-0.986C-1.421,-1.1 -1.378,-1.29 -1.451,-1.452L-2.038,-2.739C-2.228,-3.157 -1.672,-3.508 -1.376,-3.157L-0.466,-2.074C-0.352,-1.938 -0.161,-1.896 0,-1.969" style="fill:white;fill-rule:nonzero;"/>
                    </g>
                    <g transform="matrix(0.467361,0,0,0.467361,40.8705,-44.6224)">
                        <path d="M0,-1.969L1.287,-2.556C1.705,-2.746 2.057,-2.19 1.705,-1.894L0.623,-0.984C0.487,-0.869 0.444,-0.679 0.517,-0.518L1.104,0.77C1.294,1.188 0.738,1.539 0.443,1.187L-0.468,0.105C-0.582,-0.031 -0.773,-0.074 -0.934,-0L-2.221,0.586C-2.639,0.777 -2.991,0.221 -2.639,-0.075L-1.556,-0.986C-1.421,-1.1 -1.378,-1.29 -1.451,-1.452L-2.038,-2.739C-2.228,-3.157 -1.672,-3.508 -1.376,-3.157L-0.466,-2.074C-0.352,-1.938 -0.161,-1.895 0,-1.969" style="fill:white;fill-rule:nonzero;"/>
                    </g>
                    <g transform="matrix(0.467361,0,0,0.467361,75.3637,-36.0689)">
                        <path d="M0,-1.969L1.287,-2.556C1.705,-2.746 2.057,-2.19 1.705,-1.894L0.623,-0.984C0.487,-0.87 0.444,-0.679 0.517,-0.518L1.104,0.77C1.294,1.188 0.738,1.539 0.443,1.187L-0.468,0.105C-0.582,-0.031 -0.773,-0.074 -0.934,-0L-2.221,0.586C-2.639,0.777 -2.991,0.221 -2.639,-0.075L-1.556,-0.986C-1.421,-1.1 -1.378,-1.29 -1.451,-1.452L-2.038,-2.739C-2.228,-3.157 -1.672,-3.508 -1.376,-3.157L-0.466,-2.074C-0.352,-1.939 -0.161,-1.896 0,-1.969" style="fill:white;fill-rule:nonzero;"/>
                    </g>
                    <g transform="matrix(0.467361,0,0,0.467361,44.7917,22.9136)">
                        <path d="M0,-4.571L2.989,-5.933C3.96,-6.375 4.776,-5.084 3.959,-4.397L1.445,-2.283C1.13,-2.018 1.031,-1.576 1.201,-1.201L2.563,1.788C3.006,2.758 1.714,3.574 1.028,2.758L-1.087,0.244C-1.352,-0.071 -1.794,-0.17 -2.168,0L-5.158,1.362C-6.128,1.804 -6.944,0.513 -6.128,-0.174L-3.614,-2.288C-3.299,-2.553 -3.199,-2.995 -3.37,-3.37L-4.732,-6.359C-5.174,-7.329 -3.883,-8.145 -3.196,-7.329L-1.082,-4.815C-0.817,-4.5 -0.375,-4.4 0,-4.571" style="fill:white;fill-rule:nonzero;"/>
                    </g>
                    <g transform="matrix(0.467361,0,0,0.467361,32.3028,66.24)">
                        <path d="M0,-1.969L1.287,-2.556C1.705,-2.746 2.057,-2.19 1.705,-1.894L0.623,-0.984C0.487,-0.869 0.444,-0.679 0.517,-0.518L1.104,0.77C1.294,1.188 0.738,1.539 0.443,1.187L-0.468,0.105C-0.582,-0.031 -0.773,-0.074 -0.934,-0L-2.221,0.586C-2.639,0.777 -2.991,0.221 -2.639,-0.075L-1.556,-0.986C-1.421,-1.1 -1.378,-1.29 -1.451,-1.452L-2.038,-2.739C-2.228,-3.157 -1.672,-3.508 -1.376,-3.157L-0.466,-2.074C-0.352,-1.939 -0.161,-1.896 0,-1.969" style="fill:white;fill-rule:nonzero;"/>
                    </g>
                    <g transform="matrix(0.467361,0,0,0.467361,45.1221,72.4095)">
                        <path d="M0,-4.571L2.989,-5.933C3.96,-6.375 4.776,-5.084 3.959,-4.397L1.445,-2.283C1.131,-2.018 1.031,-1.576 1.201,-1.201L2.563,1.788C3.006,2.758 1.714,3.574 1.028,2.758L-1.087,0.244C-1.352,-0.071 -1.794,-0.17 -2.168,0L-5.157,1.362C-6.128,1.804 -6.944,0.513 -6.128,-0.174L-3.614,-2.288C-3.299,-2.553 -3.199,-2.995 -3.37,-3.37L-4.732,-6.359C-5.174,-7.329 -3.883,-8.145 -3.196,-7.329L-1.082,-4.815C-0.817,-4.5 -0.374,-4.4 0,-4.571" style="fill:white;fill-rule:nonzero;"/>
                    </g>
                </g>
            </g>
        </g>
    </g>
</svg>
