<?xml version="1.0" encoding="UTF-8" standalone="no"?>
<!DOCTYPE svg PUBLIC "-//W3C//DTD SVG 1.1//EN" "http://www.w3.org/Graphics/SVG/1.1/DTD/svg11.dtd">
<svg width="100%" height="100%" viewBox="0 0 4000 2800" version="1.1" xmlns="http://www.w3.org/2000/svg" xmlns:xlink="http://www.w3.org/1999/xlink" xml:space="preserve" xmlns:serif="http://www.serif.com/" style="fill-rule:evenodd;clip-rule:evenodd;stroke-linejoin:round;stroke-miterlimit:2;">
    <g transform="matrix(1,0,0,1,-12546.4,-6429.79)">
        <g id="Plan-de-travail16" serif:id="Plan de travail16" transform="matrix(1.01561,0,0,1.00501,11843.6,6399.25)">
            <rect x="692.012" y="30.389" width="3938.52" height="2786.05" style="fill:none;"/>
            <clipPath id="_clip1">
                <rect x="692.012" y="30.389" width="3938.52" height="2786.05"/>
            </clipPath>
            <g clip-path="url(#_clip1)">
                <g transform="matrix(2.26815,0,0,2.36849,-1187.79,-1514.43)">
                    <rect x="828.782" y="652.241" width="1736.44" height="1176.3" style="fill:rgb(11,5,30);"/>
                </g>
                <g transform="matrix(5.58844,-1.45057,1.43542,5.64741,443.303,224.907)">
                    <path d="M133.376,262.062L133.376,265.902C133.376,271.102 133.496,276.182 133.736,281.142C133.736,282.102 134.096,285.742 134.816,292.062C134.896,292.462 135.016,292.782 135.176,293.022C135.976,293.662 136.696,293.982 137.336,293.982C138.216,293.982 139.096,293.742 139.976,293.262C141.336,292.382 142.016,291.342 142.016,290.142L142.016,289.542C141.936,286.422 141.736,284.142 141.416,282.702C140.856,279.502 140.576,275.942 140.576,272.022C140.576,270.582 140.616,268.982 140.696,267.222C141.576,266.342 142.936,264.662 144.776,262.182C146.136,260.342 147.096,258.942 147.656,257.982C148.056,257.342 148.496,256.822 148.976,256.422C149.296,256.182 149.656,256.062 150.056,256.062C150.296,256.142 150.456,256.222 150.536,256.302C151.416,257.182 152.016,257.902 152.336,258.462C153.456,261.022 156.496,266.702 161.456,275.502C161.856,276.142 162.176,276.702 162.416,277.182C162.976,278.062 163.856,279.462 165.056,281.382C167.696,285.382 169.416,288.542 170.216,290.862C170.536,291.662 171.176,292.542 172.136,293.502C172.936,294.142 173.656,294.502 174.296,294.582C175.416,294.582 176.736,294.262 178.256,293.622C179.136,293.142 179.616,292.182 179.696,290.742C179.616,290.422 179.536,290.142 179.456,289.902C178.976,289.342 177.456,286.902 174.896,282.582C174.576,282.022 174.296,281.542 174.056,281.142C173.016,279.462 171.456,276.982 169.376,273.702C166.656,269.382 164.656,266.182 163.376,264.102C160.576,259.702 157.936,254.022 155.456,247.062C157.456,243.782 158.536,241.982 158.696,241.662C158.936,241.262 159.376,240.702 160.016,239.982C160.576,239.182 160.976,238.622 161.216,238.302C161.776,237.422 162.696,236.142 163.976,234.462C166.456,231.022 168.176,228.382 169.136,226.542C169.456,225.822 170.096,225.102 171.056,224.382C173.616,222.382 175.416,220.702 176.456,219.342C176.696,218.942 176.856,218.542 176.936,218.142C176.856,217.342 176.536,216.542 175.976,215.742C174.696,214.462 173.776,213.782 173.216,213.702C172.976,213.782 172.816,213.822 172.736,213.822C171.296,214.542 170.096,215.502 169.136,216.702C166.096,220.382 160.336,228.182 151.856,240.102C148.416,245.062 145.736,248.902 143.816,251.622C142.216,253.702 141.416,254.742 141.416,254.742C141.176,254.982 141.016,255.102 140.936,255.102C140.776,255.022 140.656,254.902 140.576,254.742C139.856,251.302 139.496,247.102 139.496,242.142C139.416,237.742 139.296,229.902 139.136,218.622C139.136,217.662 138.976,216.542 138.656,215.262C138.096,214.222 137.216,213.542 136.016,213.222C135.696,213.222 135.456,213.262 135.296,213.342C133.856,214.062 132.896,214.822 132.416,215.622L132.416,235.662C132.416,236.942 132.496,238.782 132.656,241.182C132.896,243.742 133.016,245.622 133.016,246.822C132.936,248.582 132.776,250.182 132.536,251.622L132.536,251.982C132.536,252.302 132.616,252.822 132.776,253.542C133.176,255.782 133.376,258.622 133.376,262.062Z" style="fill:white;fill-rule:nonzero;stroke:white;stroke-width:7.27px;"/>
                </g>
                <g transform="matrix(5.72627,-0.71525,0.707782,5.7867,652.616,129.754)">
                    <path d="M185.68,250.759L185.68,251.839C185.68,252.079 185.88,255.119 186.28,260.959C186.44,263.279 187.32,266.039 188.92,269.239C191.72,274.679 195.64,278.039 200.68,279.319C203.56,280.039 206.48,280.399 209.44,280.399C213.04,280.399 216.52,279.879 219.88,278.839C229.88,275.719 237.64,268.759 243.16,257.959C245.24,253.799 246.32,249.599 246.4,245.359C246.32,240.239 244.88,234.799 242.08,229.039C240.56,226.159 238.6,224.199 236.2,223.159C230.28,220.759 225.96,219.559 223.24,219.559C222.44,219.559 221.68,219.599 220.96,219.679C213.44,220.079 208.12,220.959 205,222.319C203.64,222.959 202.08,223.799 200.32,224.839C191.04,230.599 186.16,239.239 185.68,250.759ZM239.08,241.519C239.56,242.399 239.8,243.599 239.8,245.119C239.8,248.879 239.04,252.279 237.52,255.319C232.08,266.039 222.8,271.999 209.68,273.199L208.84,273.199C205.32,273.199 202.32,272.039 199.84,269.719C199.68,269.559 199.6,269.439 199.6,269.359C195.2,264.639 192.96,258.559 192.88,251.119C192.96,247.199 193.68,243.639 195.04,240.439C196.48,237.079 199.52,233.799 204.16,230.599C207.2,228.439 209.84,227.239 212.08,226.999C212.72,226.919 213.8,226.879 215.32,226.879C216.28,226.879 217,226.839 217.48,226.759L217.6,226.759C222,227.399 224.32,227.759 224.56,227.839C228.64,228.959 231.04,229.759 231.76,230.239C232,230.479 232.2,230.679 232.36,230.839C233.48,232.039 235.36,234.999 238,239.719C238.4,240.439 238.76,241.039 239.08,241.519Z" style="fill:white;fill-rule:nonzero;stroke:white;stroke-width:7.27px;"/>
                </g>
                <g transform="matrix(5.76619,-0.2076,0.205432,5.82703,788.091,39.7257)">
                    <path d="M260.971,209.051C258.571,216.811 257.371,223.051 257.371,227.771L257.371,228.131C257.371,229.011 257.291,230.251 257.131,231.851C256.891,233.771 256.771,235.691 256.771,237.611C256.851,242.411 257.411,247.331 258.451,252.371C259.651,258.051 262.411,262.451 266.731,265.571C267.371,266.051 269.291,267.091 272.491,268.691C276.171,270.611 280.531,271.571 285.571,271.571L287.971,271.571C288.051,271.491 288.211,271.411 288.451,271.331C291.331,270.691 294.891,268.931 299.131,266.051C299.771,265.571 300.571,264.531 301.531,262.931C303.291,259.971 304.571,257.731 305.371,256.211C307.211,252.451 308.131,249.171 308.131,246.371C308.131,240.451 307.531,236.291 306.331,233.891C305.851,233.251 305.291,232.891 304.651,232.811C302.651,232.651 300.731,232.571 298.891,232.571C296.971,232.571 294.811,232.651 292.411,232.811C291.291,232.891 290.531,232.931 290.131,232.931C287.411,233.091 285.211,234.131 283.531,236.051C283.291,236.451 283.131,236.891 283.051,237.371C283.131,238.251 283.491,238.851 284.131,239.171C285.411,239.731 286.491,240.011 287.371,240.011C288.091,240.011 289.211,239.891 290.731,239.651C291.771,239.491 292.531,239.411 293.011,239.411C294.371,239.331 295.371,239.291 296.011,239.291C297.611,239.291 298.891,239.451 299.851,239.771C300.891,240.251 301.491,240.931 301.651,241.811L301.651,242.891C301.731,244.011 301.771,244.811 301.771,245.291C301.771,246.651 301.611,247.851 301.291,248.891C300.091,252.811 297.891,256.771 294.691,260.771C292.211,263.731 289.411,265.251 286.291,265.331C285.411,265.331 284.571,265.211 283.771,264.971C278.091,263.691 273.811,262.051 270.931,260.051C268.851,258.451 267.371,256.291 266.491,253.571C265.371,249.731 264.731,246.651 264.571,244.331C264.171,239.531 263.971,236.451 263.971,235.091C263.971,233.171 264.091,231.411 264.331,229.811C264.491,229.091 264.571,227.971 264.571,226.451C264.651,224.851 264.771,223.651 264.931,222.851C264.931,222.611 265.011,222.131 265.171,221.411C266.851,211.411 269.211,204.691 272.251,201.251C274.571,198.611 278.531,197.291 284.131,197.291C288.611,197.371 292.651,198.851 296.251,201.731C297.691,203.011 298.531,204.771 298.771,207.011C298.931,209.331 300.131,210.811 302.371,211.451C302.851,211.531 303.291,211.571 303.691,211.571C305.291,211.571 306.211,210.771 306.451,209.171C306.451,208.931 306.491,208.771 306.571,208.691C306.571,208.211 306.451,207.531 306.211,206.651C306.051,206.011 305.931,205.531 305.851,205.211C305.291,201.211 303.371,198.011 300.091,195.611C297.291,193.611 294.811,192.251 292.651,191.531C291.531,191.131 290.171,190.931 288.571,190.931C280.571,191.011 274.731,192.011 271.051,193.931C266.651,196.251 263.531,200.491 261.691,206.651C261.611,206.891 261.531,207.211 261.451,207.611C261.211,208.331 261.051,208.811 260.971,209.051Z" style="fill:white;fill-rule:nonzero;stroke:white;stroke-width:7.27px;"/>
                </g>
                <g transform="matrix(5.76732,0.172787,-0.170983,5.82817,890.102,-66.766)">
                    <path d="M354.599,243.786C353.719,242.586 349.639,241.346 342.359,240.066C340.119,239.666 338.439,239.466 337.319,239.466C332.839,239.466 329.159,241.706 326.279,246.186C326.199,246.346 326.119,246.466 326.039,246.546C325.079,248.306 325.039,251.186 325.919,255.186C326.559,258.226 327.599,260.146 329.039,260.946C335.199,264.386 342.439,264.386 350.759,260.946C353.079,259.906 354.439,259.146 354.839,258.666C354.839,258.586 354.679,255.866 354.359,250.506L354.599,243.786ZM334.679,208.986C341.799,208.906 347.279,209.586 351.119,211.026C355.999,212.946 359.199,215.906 360.719,219.906C361.439,221.986 362.079,225.186 362.639,229.506C362.879,231.586 362.959,234.866 362.879,239.346C362.879,239.666 362.839,240.146 362.759,240.786L362.759,242.226C362.759,243.186 362.679,244.666 362.519,246.666C362.359,248.426 362.279,249.706 362.279,250.506C362.279,251.626 362.239,253.186 362.159,255.186C362.159,257.826 362.119,259.746 362.039,260.946C361.799,265.426 361.559,267.946 361.319,268.506C360.759,269.546 359.999,270.106 359.039,270.186C357.679,270.186 356.439,269.706 355.319,268.746C355.239,268.666 355.159,268.366 355.079,267.846C354.999,267.326 354.919,266.826 354.839,266.346L354.839,265.626C354.839,265.626 351.919,266.786 346.079,269.106C344.559,269.666 343.359,270.026 342.479,270.186C337.999,270.826 333.159,270.266 327.959,268.506C327.079,268.186 326.439,267.906 326.039,267.666C320.759,264.146 318.079,259.666 317.999,254.226C317.919,245.426 320.599,239.346 326.039,235.986C328.519,234.546 331.599,233.426 335.279,232.626C337.599,232.066 340.399,232.226 343.679,233.106C346.959,233.986 349.679,235.026 351.839,236.226L355.079,237.906C354.999,237.906 354.959,235.026 354.959,229.266C354.799,228.866 354.559,227.986 354.239,226.626C353.439,223.106 352.599,220.986 351.719,220.266C349.319,218.186 347.239,216.986 345.479,216.666C344.919,216.586 344.319,216.506 343.679,216.426C336.559,215.866 331.559,216.506 328.679,218.346C328.279,218.586 326.959,219.826 324.719,222.066C323.519,223.266 322.559,223.946 321.839,224.106C321.039,224.186 320.159,223.706 319.199,222.666C318.959,222.346 318.799,222.066 318.719,221.826C318.719,220.626 318.919,219.706 319.319,219.066C323.639,212.586 328.759,209.226 334.679,208.986Z" style="fill:white;fill-rule:nonzero;stroke:white;stroke-width:7.27px;"/>
                </g>
                <g transform="matrix(5.72693,0.709886,-0.702473,5.78736,1049.27,-263.212)">
                    <path d="M415.585,263.759C415.585,263.359 415.545,262.639 415.465,261.599C415.385,260.479 415.345,259.719 415.345,259.319C415.345,258.679 415.385,257.739 415.465,256.499C415.545,255.259 415.585,254.359 415.585,253.799L415.585,252.959C415.505,251.679 415.385,249.039 415.225,245.039C415.065,240.559 414.945,237.679 414.865,236.399L414.745,236.399L414.865,236.279C414.945,232.199 416.065,228.359 418.225,224.759C418.305,224.599 418.705,223.919 419.425,222.719C421.105,219.919 423.265,218.199 425.905,217.559C426.385,217.479 426.785,217.399 427.105,217.319L427.225,217.319C430.905,217.479 434.065,219.599 436.705,223.679C438.785,226.879 440.145,232.439 440.785,240.359L440.785,241.439C440.865,241.919 440.905,242.279 440.905,242.519C441.065,244.839 441.225,252.119 441.385,264.359C441.465,265.959 441.545,267.239 441.625,268.199C442.025,270.199 442.785,271.319 443.905,271.559C444.385,271.479 445.145,271.039 446.185,270.239C447.705,268.879 448.545,267.799 448.705,266.999C448.785,266.519 448.825,265.999 448.825,265.439C448.825,264.479 448.705,262.879 448.465,260.639C448.385,259.679 448.345,258.239 448.345,256.319C448.345,254.719 448.305,253.559 448.225,252.839C447.585,243.159 447.065,236.319 446.665,232.319C445.945,224.959 443.945,219.399 440.665,215.639C437.065,211.559 432.545,209.319 427.105,208.919L426.385,208.919C423.585,208.919 420.545,210.639 417.265,214.079C416.945,214.399 416.585,214.719 416.185,215.039C415.545,215.839 414.905,216.759 414.265,217.799C413.705,218.759 412.905,220.279 411.865,222.359C410.345,219.399 408.865,217.079 407.425,215.399C403.985,211.479 399.545,209.319 394.105,208.919L393.505,208.919C390.705,208.919 387.545,210.679 384.025,214.199C383.705,214.519 383.345,214.879 382.945,215.279C381.985,216.239 380.545,218.719 378.625,222.719C378.305,223.439 378.025,224.039 377.785,224.519C376.105,227.639 375.225,232.519 375.145,239.159L375.145,242.999C375.145,254.519 375.305,262.279 375.625,266.279C375.705,266.999 376.185,268.439 377.065,270.599C377.305,270.839 377.785,270.959 378.505,270.959C380.185,270.959 381.385,270.479 382.105,269.519C382.505,268.559 382.745,266.479 382.825,263.279C382.825,262.639 382.785,262.119 382.705,261.719C382.225,258.199 381.985,253.639 381.985,248.039C381.985,245.879 382.025,243.199 382.105,239.999C382.265,234.159 383.985,227.679 387.265,220.559C388.465,218.079 390.865,216.799 394.465,216.719C398.865,216.799 402.225,218.759 404.545,222.599C406.865,226.359 408.185,230.559 408.505,235.199C408.585,236.239 408.665,237.399 408.745,238.679C408.745,240.359 408.785,241.399 408.865,241.799C408.865,242.919 408.825,246.239 408.745,251.759C408.585,258.639 408.505,262.839 408.505,264.359L408.505,266.159C408.505,267.039 408.545,267.719 408.625,268.199C408.945,270.359 409.705,271.479 410.905,271.559C411.305,271.559 411.625,271.479 411.865,271.319C414.105,270.519 415.345,268.759 415.585,266.039L415.585,263.759Z" style="fill:white;fill-rule:nonzero;stroke:white;stroke-width:7.27px;"/>
                </g>
                <g transform="matrix(5.53831,1.63518,-1.6181,5.59675,1403.67,-689.111)">
                    <path d="M495.196,230.528C490.876,227.968 486.036,227.208 480.676,228.248C480.036,228.328 479.636,228.408 479.476,228.488C474.436,229.288 470.636,232.608 468.076,238.448C467.916,238.768 467.716,239.208 467.476,239.768C467.156,240.568 466.956,241.088 466.876,241.328C466.396,242.288 466.136,243.628 466.096,245.348C466.056,247.068 466.116,248.528 466.276,249.728L466.636,251.648C466.716,251.648 471.036,250.888 479.596,249.368C484.316,248.968 488.916,248.128 493.396,246.848C495.556,246.208 497.636,244.088 499.636,240.488C500.436,238.968 499.756,236.568 497.596,233.288C496.716,231.928 495.916,231.008 495.196,230.528ZM478.756,220.808C486.996,218.888 494.076,220.208 499.996,224.768C502.636,226.928 504.556,229.368 505.756,232.088C507.756,236.968 507.276,241.568 504.316,245.888C503.516,246.928 502.596,248.008 501.556,249.128C497.556,253.448 490.916,255.848 481.636,256.328C480.356,256.408 478.556,256.588 476.236,256.868C473.916,257.148 471.916,257.408 470.236,257.648L467.836,258.128C467.836,258.128 468.356,259.408 469.396,261.968C469.876,262.928 470.436,263.768 471.076,264.488C471.396,264.888 471.836,265.528 472.396,266.408C474.396,269.048 476.116,270.728 477.556,271.448C484.516,274.568 490.556,275.408 495.676,273.968C496.876,273.648 498.116,273.248 499.396,272.768C499.796,272.608 501.476,271.208 504.436,268.568C505.316,267.848 506.036,267.288 506.596,266.888C507.316,266.408 508.036,267.008 508.756,268.688C509.076,269.488 509.196,270.168 509.116,270.728C508.316,274.328 506.436,276.768 503.476,278.048C503.316,278.128 503.236,278.168 503.236,278.168C498.916,279.848 495.796,280.848 493.876,281.168C488.516,281.968 483.076,281.328 477.556,279.248C477.236,279.088 476.836,278.928 476.356,278.768C475.236,278.288 474.396,277.968 473.836,277.808C471.516,277.008 469.236,275.048 466.996,271.928C465.556,269.928 464.516,268.608 463.876,267.968C461.636,265.408 460.276,262.088 459.796,258.008C459.716,257.608 459.676,257.248 459.676,256.928C459.676,256.288 459.476,255.168 459.076,253.568C458.356,250.288 458.116,247.808 458.356,246.128C459.556,239.488 461.076,234.688 462.916,231.728C463.876,230.368 464.916,229.088 466.036,227.888C469.636,224.368 473.876,222.008 478.756,220.808Z" style="fill:white;fill-rule:nonzero;stroke:white;stroke-width:7.27px;"/>
                </g>
            </g>
        </g>
    </g>
</svg>
