<?xml version="1.0" encoding="UTF-8" standalone="no"?>
<!DOCTYPE svg PUBLIC "-//W3C//DTD SVG 1.1//EN" "http://www.w3.org/Graphics/SVG/1.1/DTD/svg11.dtd">
<svg width="100%" height="100%" viewBox="0 0 4000 2800" version="1.1" xmlns="http://www.w3.org/2000/svg" xmlns:xlink="http://www.w3.org/1999/xlink" xml:space="preserve" xmlns:serif="http://www.serif.com/" style="fill-rule:evenodd;clip-rule:evenodd;stroke-linejoin:round;stroke-miterlimit:2;">
    <g transform="matrix(1,0,0,1,-8996.27,-3132.82)">
        <g id="Plan-de-travail16" serif:id="Plan de travail16" transform="matrix(1.01561,0,0,1.00501,8293.45,3102.28)">
            <rect x="692.012" y="30.389" width="3938.52" height="2786.05" style="fill:none;"/>
            <clipPath id="_clip1">
                <rect x="692.012" y="30.389" width="3938.52" height="2786.05"/>
            </clipPath>
            <g clip-path="url(#_clip1)">
                <g transform="matrix(2.26815,0,0,2.36849,-1187.79,-1514.43)">
                    <rect x="828.782" y="652.241" width="1736.44" height="1176.3" style="fill:rgb(11,5,30);"/>
                </g>
                <g transform="matrix(0.430271,0,0,0.434811,-805.729,467.06)">
                    <path d="M5221.92,1534.49L5168.22,1534.49L5168.22,1349.73L5163.66,1349.73C5159.72,1356.1 5154.11,1364.1 5146.83,1373.73C5139.55,1383.36 5129.15,1391.93 5115.65,1399.44C5102.15,1406.95 5084.18,1410.71 5061.72,1410.71C5032.6,1410.71 5006.89,1403.31 4984.59,1388.52C4962.29,1373.73 4944.84,1352.8 4932.25,1325.72C4919.66,1298.64 4913.36,1266.6 4913.36,1229.58C4913.36,1192.87 4919.66,1161.01 4932.25,1134.01C4944.84,1107.01 4962.36,1086.15 4984.81,1071.44C5007.27,1056.72 5033.2,1049.36 5062.63,1049.36C5085.39,1049.36 5103.4,1053.12 5116.68,1060.63C5129.95,1068.14 5140.11,1076.63 5147.17,1086.11C5154.22,1095.59 5159.72,1103.37 5163.66,1109.44L5170.04,1109.44L5170.04,1053.91L5221.92,1053.91L5221.92,1534.49ZM5169.13,1228.67C5169.13,1202.58 5165.33,1179.71 5157.75,1160.07C5150.16,1140.42 5138.94,1125.1 5124.07,1114.1C5109.21,1103.1 5090.85,1097.6 5069.01,1097.6C5046.25,1097.6 5027.33,1103.41 5012.23,1115.01C4997.14,1126.62 4985.84,1142.32 4978.33,1162.11C4970.82,1181.91 4967.07,1204.1 4967.07,1228.67C4967.07,1253.55 4970.9,1276.11 4978.56,1296.37C4986.22,1316.62 4997.59,1332.7 5012.69,1344.61C5027.78,1356.51 5046.55,1362.47 5069.01,1362.47C5090.55,1362.47 5108.75,1356.82 5123.62,1345.52C5138.48,1334.21 5149.78,1318.51 5157.52,1298.41C5165.26,1278.31 5169.13,1255.07 5169.13,1228.67Z" style="fill:white;fill-rule:nonzero;"/>
                    <path d="M5537.26,1260.53L5537.26,1053.91L5590.96,1053.91L5590.96,1403.43L5537.26,1403.43L5537.26,1344.26L5533.62,1344.26C5525.43,1362.01 5512.68,1377.07 5495.39,1389.43C5478.1,1401.8 5456.25,1407.98 5429.86,1407.98C5408.01,1407.98 5388.59,1403.16 5371.6,1393.53C5354.61,1383.89 5341.26,1369.33 5331.56,1349.84C5321.85,1330.35 5316.99,1305.73 5316.99,1276L5316.99,1053.91L5370.69,1053.91L5370.69,1272.36C5370.69,1297.85 5377.86,1318.17 5392.2,1333.34C5406.53,1348.51 5424.85,1356.1 5447.15,1356.1C5460.5,1356.1 5474.11,1352.68 5487.99,1345.86C5501.87,1339.03 5513.56,1328.56 5523.04,1314.45C5532.52,1300.35 5537.26,1282.37 5537.26,1260.53Z" style="fill:white;fill-rule:nonzero;"/>
                    <path d="M5832.57,1410.71C5798.9,1410.71 5769.89,1403.24 5745.54,1388.29C5721.19,1373.35 5702.45,1352.42 5689.33,1325.49C5676.21,1298.57 5669.65,1267.2 5669.65,1231.4C5669.65,1195.6 5676.21,1164.01 5689.33,1136.63C5702.45,1109.25 5720.81,1087.86 5744.4,1072.46C5767.99,1057.06 5795.56,1049.36 5827.11,1049.36C5845.32,1049.36 5863.29,1052.4 5881.04,1058.47C5898.79,1064.53 5914.95,1074.36 5929.51,1087.93C5944.07,1101.51 5955.68,1119.45 5964.32,1141.75C5972.97,1164.05 5977.29,1191.5 5977.29,1224.12L5977.29,1246.87L5707.88,1246.87L5707.88,1200.45L5922.68,1200.45C5922.68,1180.73 5918.78,1163.14 5910.96,1147.66C5903.15,1132.19 5892.08,1119.98 5877.74,1111.03C5863.41,1102.08 5846.53,1097.6 5827.11,1097.6C5805.72,1097.6 5787.25,1102.88 5771.7,1113.42C5756.16,1123.96 5744.21,1137.65 5735.87,1154.49C5727.52,1171.33 5723.35,1189.38 5723.35,1208.65L5723.35,1239.59C5723.35,1265.99 5727.94,1288.33 5737.12,1306.61C5746.3,1324.88 5759.08,1338.77 5775.46,1348.25C5791.84,1357.73 5810.88,1362.47 5832.57,1362.47C5846.68,1362.47 5859.46,1360.46 5870.92,1356.44C5882.37,1352.42 5892.27,1346.35 5900.61,1338.23C5908.95,1330.12 5915.4,1319.99 5919.95,1307.86L5971.83,1322.42C5966.37,1340.02 5957.19,1355.45 5944.3,1368.73C5931.4,1382 5915.48,1392.31 5896.52,1399.67C5877.55,1407.03 5856.24,1410.71 5832.57,1410.71Z" style="fill:white;fill-rule:nonzero;"/>
                    <rect x="6055.99" y="937.411" width="53.701" height="466.015" style="fill:white;fill-rule:nonzero;"/>
                    <path d="M6496.93,1534.49L6443.23,1534.49L6443.23,1349.73L6438.68,1349.73C6434.74,1356.1 6429.12,1364.1 6421.84,1373.73C6414.56,1383.36 6404.17,1391.93 6390.67,1399.44C6377.17,1406.95 6359.19,1410.71 6336.74,1410.71C6307.61,1410.71 6281.9,1403.31 6259.6,1388.52C6237.3,1373.73 6219.86,1352.8 6207.27,1325.72C6194.68,1298.64 6188.38,1266.6 6188.38,1229.58C6188.38,1192.87 6194.68,1161.01 6207.27,1134.01C6219.86,1107.01 6237.38,1086.15 6259.83,1071.44C6282.28,1056.72 6308.22,1049.36 6337.65,1049.36C6360.4,1049.36 6378.42,1053.12 6391.69,1060.63C6404.97,1068.14 6415.13,1076.63 6422.18,1086.11C6429.24,1095.59 6434.74,1103.37 6438.68,1109.44L6445.05,1109.44L6445.05,1053.91L6496.93,1053.91L6496.93,1534.49ZM6444.14,1228.67C6444.14,1202.58 6440.35,1179.71 6432.76,1160.07C6425.18,1140.42 6413.95,1125.1 6399.09,1114.1C6384.22,1103.1 6365.86,1097.6 6344.02,1097.6C6321.27,1097.6 6302.34,1103.41 6287.25,1115.01C6272.15,1126.62 6260.85,1142.32 6253.34,1162.11C6245.84,1181.91 6242.08,1204.1 6242.08,1228.67C6242.08,1253.55 6245.91,1276.11 6253.57,1296.37C6261.23,1316.62 6272.61,1332.7 6287.7,1344.61C6302.8,1356.51 6321.57,1362.47 6344.02,1362.47C6365.56,1362.47 6383.77,1356.82 6398.63,1345.52C6413.5,1334.21 6424.8,1318.51 6432.54,1298.41C6440.27,1278.31 6444.14,1255.07 6444.14,1228.67Z" style="fill:white;fill-rule:nonzero;"/>
                    <path d="M6812.27,1260.53L6812.27,1053.91L6865.97,1053.91L6865.97,1403.43L6812.27,1403.43L6812.27,1344.26L6808.63,1344.26C6800.44,1362.01 6787.7,1377.07 6770.4,1389.43C6753.11,1401.8 6731.27,1407.98 6704.87,1407.98C6683.03,1407.98 6663.61,1403.16 6646.62,1393.53C6629.63,1383.89 6616.28,1369.33 6606.57,1349.84C6596.86,1330.35 6592.01,1305.73 6592.01,1276L6592.01,1053.91L6645.71,1053.91L6645.71,1272.36C6645.71,1297.85 6652.88,1318.17 6667.21,1333.34C6681.55,1348.51 6699.86,1356.1 6722.16,1356.1C6735.51,1356.1 6749.13,1352.68 6763.01,1345.86C6776.89,1339.03 6788.57,1328.56 6798.05,1314.45C6807.53,1300.35 6812.27,1282.37 6812.27,1260.53Z" style="fill:white;fill-rule:nonzero;"/>
                    <path d="M7107.59,1410.71C7073.91,1410.71 7044.9,1403.24 7020.55,1388.29C6996.2,1373.35 6977.47,1352.42 6964.35,1325.49C6951.23,1298.57 6944.67,1267.2 6944.67,1231.4C6944.67,1195.6 6951.23,1164.01 6964.35,1136.63C6977.47,1109.25 6995.83,1087.86 7019.41,1072.46C7043,1057.06 7070.57,1049.36 7102.13,1049.36C7120.33,1049.36 7138.31,1052.4 7156.06,1058.47C7173.81,1064.53 7189.96,1074.36 7204.52,1087.93C7219.09,1101.51 7230.69,1119.45 7239.34,1141.75C7247.99,1164.05 7252.31,1191.5 7252.31,1224.12L7252.31,1246.87L6982.89,1246.87L6982.89,1200.45L7197.7,1200.45C7197.7,1180.73 7193.79,1163.14 7185.98,1147.66C7178.17,1132.19 7167.09,1119.98 7152.76,1111.03C7138.42,1102.08 7121.55,1097.6 7102.13,1097.6C7080.74,1097.6 7062.27,1102.88 7046.72,1113.42C7031.17,1123.96 7019.23,1137.65 7010.88,1154.49C7002.54,1171.33 6998.37,1189.38 6998.37,1208.65L6998.37,1239.59C6998.37,1265.99 7002.96,1288.33 7012.13,1306.61C7021.31,1324.88 7034.09,1338.77 7050.48,1348.25C7066.86,1357.73 7085.9,1362.47 7107.59,1362.47C7121.7,1362.47 7134.48,1360.46 7145.93,1356.44C7157.38,1352.42 7167.28,1346.35 7175.63,1338.23C7183.97,1330.12 7190.42,1319.99 7194.97,1307.86L7246.85,1322.42C7241.39,1340.02 7232.21,1355.45 7219.32,1368.73C7206.42,1382 7190.49,1392.31 7171.53,1399.67C7152.57,1407.03 7131.25,1410.71 7107.59,1410.71Z" style="fill:white;fill-rule:nonzero;"/>
                    <path d="M7649.98,1410.71C7617.22,1410.71 7589,1402.97 7565.34,1387.5C7541.67,1372.03 7523.47,1350.71 7510.72,1323.56C7497.98,1296.4 7491.61,1265.38 7491.61,1230.49C7491.61,1194.99 7498.17,1163.63 7511.29,1136.4C7524.41,1109.17 7542.77,1087.86 7566.36,1072.46C7589.95,1057.06 7617.52,1049.36 7649.07,1049.36C7673.65,1049.36 7695.8,1053.91 7715.52,1063.02C7735.24,1072.12 7751.39,1084.86 7763.98,1101.24C7776.57,1117.63 7784.39,1136.74 7787.42,1158.59L7733.72,1158.59C7729.62,1142.66 7720.56,1128.51 7706.53,1116.15C7692.5,1103.79 7673.65,1097.6 7649.98,1097.6C7629.05,1097.6 7610.73,1103.03 7595.03,1113.87C7579.33,1124.72 7567.12,1139.96 7558.4,1159.61C7549.67,1179.26 7545.31,1202.28 7545.31,1228.67C7545.31,1255.67 7549.6,1279.19 7558.17,1299.21C7566.74,1319.23 7578.87,1334.78 7594.57,1345.86C7610.28,1356.93 7628.74,1362.47 7649.98,1362.47C7663.94,1362.47 7676.61,1360.04 7687.98,1355.19C7699.36,1350.33 7708.99,1343.35 7716.88,1334.25C7724.77,1325.15 7730.38,1314.23 7733.72,1301.49L7787.42,1301.49C7784.39,1322.12 7776.92,1340.66 7765.01,1357.12C7753.1,1373.58 7737.4,1386.63 7717.9,1396.26C7698.41,1405.89 7675.77,1410.71 7649.98,1410.71Z" style="fill:white;fill-rule:nonzero;"/>
                    <path d="M7916.17,1193.17L7916.17,1403.43L7862.47,1403.43L7862.47,937.411L7916.17,937.411L7916.17,1108.53L7920.72,1108.53C7928.92,1090.47 7941.24,1076.1 7957.7,1065.41C7974.16,1054.71 7996.12,1049.36 8023.57,1049.36C8047.39,1049.36 8068.25,1054.1 8086.15,1063.59C8104.05,1073.07 8117.97,1087.55 8127.9,1107.05C8137.84,1126.54 8142.81,1151.31 8142.81,1181.34L8142.81,1403.43L8089.11,1403.43L8089.11,1184.98C8089.11,1157.22 8081.94,1135.72 8067.61,1120.47C8053.27,1105.23 8033.44,1097.6 8008.1,1097.6C7990.51,1097.6 7974.77,1101.32 7960.89,1108.75C7947.01,1116.19 7936.08,1127.03 7928.12,1141.29C7920.15,1155.55 7916.17,1172.85 7916.17,1193.17Z" style="fill:white;fill-rule:nonzero;"/>
                    <path d="M8379.87,1410.71C8348.32,1410.71 8320.67,1403.2 8296.93,1388.18C8273.19,1373.16 8254.69,1352.15 8241.41,1325.15C8228.14,1298.15 8221.5,1266.6 8221.5,1230.49C8221.5,1194.08 8228.14,1162.3 8241.41,1135.15C8254.69,1108 8273.19,1086.91 8296.93,1071.89C8320.67,1056.87 8348.32,1049.36 8379.87,1049.36C8411.43,1049.36 8439.07,1056.87 8462.82,1071.89C8486.56,1086.91 8505.06,1108 8518.34,1135.15C8531.61,1162.3 8538.25,1194.08 8538.25,1230.49C8538.25,1266.6 8531.61,1298.15 8518.34,1325.15C8505.06,1352.15 8486.56,1373.16 8462.82,1388.18C8439.07,1403.2 8411.43,1410.71 8379.87,1410.71ZM8379.87,1362.47C8403.84,1362.47 8423.56,1356.32 8439.04,1344.04C8454.51,1331.75 8465.96,1315.59 8473.4,1295.57C8480.83,1275.55 8484.55,1253.85 8484.55,1230.49C8484.55,1207.13 8480.83,1185.36 8473.4,1165.18C8465.96,1145.01 8454.51,1128.7 8439.04,1116.26C8423.56,1103.82 8403.84,1097.6 8379.87,1097.6C8355.91,1097.6 8336.18,1103.82 8320.71,1116.26C8305.24,1128.7 8293.79,1145.01 8286.35,1165.18C8278.92,1185.36 8275.2,1207.13 8275.2,1230.49C8275.2,1253.85 8278.92,1275.55 8286.35,1295.57C8293.79,1315.59 8305.24,1331.75 8320.71,1344.04C8336.18,1356.32 8355.91,1362.47 8379.87,1362.47Z" style="fill:white;fill-rule:nonzero;"/>
                    <path d="M8864.51,1132.19L8816.27,1145.84C8813.24,1137.8 8808.8,1129.95 8802.96,1122.29C8797.12,1114.63 8789.19,1108.3 8779.18,1103.29C8769.17,1098.29 8756.35,1095.78 8740.72,1095.78C8719.34,1095.78 8701.55,1100.67 8687.36,1110.46C8673.18,1120.24 8666.09,1132.65 8666.09,1147.66C8666.09,1161.01 8670.94,1171.56 8680.65,1179.29C8690.36,1187.03 8705.53,1193.48 8726.16,1198.63L8778.04,1211.38C8809.29,1218.96 8832.58,1230.53 8847.9,1246.08C8863.22,1261.63 8870.88,1281.61 8870.88,1306.04C8870.88,1326.06 8865.15,1343.96 8853.7,1359.74C8842.25,1375.51 8826.28,1387.95 8805.8,1397.06C8785.32,1406.16 8761.51,1410.71 8734.35,1410.71C8698.7,1410.71 8669.2,1402.97 8645.84,1387.5C8622.48,1372.03 8607.68,1349.42 8601.47,1319.69L8652.44,1306.95C8657.29,1325.76 8666.51,1339.87 8680.08,1349.27C8693.66,1358.67 8711.45,1363.38 8733.44,1363.38C8758.47,1363.38 8778.38,1358.03 8793.17,1347.34C8807.96,1336.64 8815.36,1323.79 8815.36,1308.77C8815.36,1296.63 8811.11,1286.43 8802.62,1278.16C8794.12,1269.89 8781.08,1263.71 8763.48,1259.62L8705.23,1245.96C8673.22,1238.38 8649.74,1226.59 8634.8,1210.58C8619.86,1194.58 8612.39,1174.51 8612.39,1150.39C8612.39,1130.67 8617.96,1113.23 8629.11,1098.06C8640.26,1082.89 8655.51,1070.98 8674.85,1062.33C8694.19,1053.69 8716.15,1049.36 8740.72,1049.36C8775.31,1049.36 8802.5,1056.95 8822.3,1072.12C8842.1,1087.29 8856.17,1107.31 8864.51,1132.19Z" style="fill:white;fill-rule:nonzero;"/>
                    <path d="M9095.2,1410.71C9061.53,1410.71 9032.51,1403.24 9008.17,1388.29C8983.82,1373.35 8965.08,1352.42 8951.96,1325.49C8938.84,1298.57 8932.28,1267.2 8932.28,1231.4C8932.28,1195.6 8938.84,1164.01 8951.96,1136.63C8965.08,1109.25 8983.44,1087.86 9007.03,1072.46C9030.62,1057.06 9058.19,1049.36 9089.74,1049.36C9107.94,1049.36 9125.92,1052.4 9143.67,1058.47C9161.42,1064.53 9177.58,1074.36 9192.14,1087.93C9206.7,1101.51 9218.31,1119.45 9226.95,1141.75C9235.6,1164.05 9239.92,1191.5 9239.92,1224.12L9239.92,1246.87L8970.51,1246.87L8970.51,1200.45L9185.31,1200.45C9185.31,1180.73 9181.41,1163.14 9173.59,1147.66C9165.78,1132.19 9154.71,1119.98 9140.37,1111.03C9126.03,1102.08 9109.16,1097.6 9089.74,1097.6C9068.35,1097.6 9049.88,1102.88 9034.33,1113.42C9018.78,1123.96 9006.84,1137.65 8998.5,1154.49C8990.15,1171.33 8985.98,1189.38 8985.98,1208.65L8985.98,1239.59C8985.98,1265.99 8990.57,1288.33 8999.75,1306.61C9008.93,1324.88 9021.7,1338.77 9038.09,1348.25C9054.47,1357.73 9073.51,1362.47 9095.2,1362.47C9109.31,1362.47 9122.09,1360.46 9133.54,1356.44C9145,1352.42 9154.9,1346.35 9163.24,1338.23C9171.58,1330.12 9178.03,1319.99 9182.58,1307.86L9234.46,1322.42C9229,1340.02 9219.82,1355.45 9206.93,1368.73C9194.03,1382 9178.1,1392.31 9159.14,1399.67C9140.18,1407.03 9118.87,1410.71 9095.2,1410.71Z" style="fill:white;fill-rule:nonzero;"/>
                    <path d="M9637.6,1410.71C9604.83,1410.71 9576.61,1402.97 9552.95,1387.5C9529.28,1372.03 9511.08,1350.71 9498.34,1323.56C9485.59,1296.4 9479.22,1265.38 9479.22,1230.49C9479.22,1194.99 9485.78,1163.63 9498.91,1136.4C9512.03,1109.17 9530.38,1087.86 9553.97,1072.46C9577.56,1057.06 9605.13,1049.36 9636.69,1049.36C9661.26,1049.36 9683.41,1053.91 9703.13,1063.02C9722.85,1072.12 9739.01,1084.86 9751.6,1101.24C9764.19,1117.63 9772,1136.74 9775.03,1158.59L9721.33,1158.59C9717.24,1142.66 9708.17,1128.51 9694.14,1116.15C9680.11,1103.79 9661.26,1097.6 9637.6,1097.6C9616.66,1097.6 9598.34,1103.03 9582.64,1113.87C9566.94,1124.72 9554.73,1139.96 9546.01,1159.61C9537.29,1179.26 9532.92,1202.28 9532.92,1228.67C9532.92,1255.67 9537.21,1279.19 9545.78,1299.21C9554.35,1319.23 9566.49,1334.78 9582.19,1345.86C9597.89,1356.93 9616.36,1362.47 9637.6,1362.47C9651.55,1362.47 9664.22,1360.04 9675.6,1355.19C9686.97,1350.33 9696.61,1343.35 9704.5,1334.25C9712.38,1325.15 9718,1314.23 9721.33,1301.49L9775.03,1301.49C9772,1322.12 9764.53,1340.66 9752.62,1357.12C9740.71,1373.58 9725.01,1386.63 9705.52,1396.26C9686.02,1405.89 9663.38,1410.71 9637.6,1410.71Z" style="fill:white;fill-rule:nonzero;"/>
                    <path d="M9952.94,1411.62C9930.79,1411.62 9910.69,1407.41 9892.64,1398.99C9874.59,1390.57 9860.25,1378.36 9849.63,1362.35C9839.01,1346.35 9833.7,1326.97 9833.7,1304.22C9833.7,1284.19 9837.65,1267.92 9845.53,1255.41C9853.42,1242.89 9863.97,1233.07 9877.16,1225.94C9890.36,1218.81 9904.96,1213.46 9920.97,1209.9C9936.97,1206.33 9953.09,1203.49 9969.32,1201.37C9990.56,1198.63 10007.8,1196.55 10021.1,1195.11C10034.4,1193.67 10044.1,1191.2 10050.2,1187.71C10056.4,1184.22 10059.4,1178.15 10059.4,1169.51L10059.4,1167.69C10059.4,1145.24 10053.3,1127.79 10041.1,1115.35C10028.9,1102.91 10010.4,1096.69 9985.7,1096.69C9960.07,1096.69 9939.97,1102.31 9925.4,1113.53C9910.84,1124.76 9900.6,1136.74 9894.68,1149.48L9843.71,1131.28C9852.82,1110.04 9864.99,1093.47 9880.24,1081.56C9895.48,1069.65 9912.17,1061.31 9930.3,1056.53C9948.42,1051.75 9966.29,1049.36 9983.88,1049.36C9995.11,1049.36 10008,1050.69 10022.7,1053.35C10037.3,1056 10051.5,1061.42 10065.2,1069.62C10079,1077.81 10090.4,1090.17 10099.5,1106.7C10108.6,1123.24 10113.1,1145.39 10113.1,1173.15L10113.1,1403.43L10059.4,1403.43L10059.4,1356.1L10056.7,1356.1C10053.1,1363.68 10047,1371.8 10038.5,1380.44C10030,1389.09 10018.7,1396.45 10004.6,1402.52C9990.48,1408.58 9973.26,1411.62 9952.94,1411.62ZM9961.13,1363.38C9982.37,1363.38 10000.3,1359.21 10014.9,1350.86C10029.6,1342.52 10040.7,1331.75 10048.2,1318.55C10055.7,1305.35 10059.4,1291.47 10059.4,1276.91L10059.4,1227.76C10057.2,1230.49 10052.2,1232.96 10044.5,1235.15C10036.9,1237.36 10028.1,1239.25 10018.1,1240.84C10008.2,1242.44 9998.56,1243.8 9989.23,1244.94C9979.9,1246.08 9972.35,1247.03 9966.59,1247.78C9952.63,1249.61 9939.62,1252.53 9927.57,1256.55C9915.51,1260.57 9905.8,1266.56 9898.44,1274.52C9891.08,1282.49 9887.4,1293.29 9887.4,1306.95C9887.4,1325.61 9894.34,1339.67 9908.22,1349.16C9922.1,1358.64 9939.74,1363.38 9961.13,1363.38Z" style="fill:white;fill-rule:nonzero;"/>
                    <rect x="10208.2" y="937.411" width="53.701" height="466.015" style="fill:white;fill-rule:nonzero;"/>
                    <path d="M10357,1403.43L10357,1053.91L10408.9,1053.91L10408.9,1108.53L10413.4,1108.53C10420.7,1089.87 10432.5,1075.34 10448.7,1064.95C10464.9,1054.56 10484.4,1049.36 10507.2,1049.36C10530.2,1049.36 10549.4,1054.56 10564.8,1064.95C10580.2,1075.34 10592.3,1089.87 10600.9,1108.53L10604.6,1108.53C10613.5,1090.47 10626.9,1076.1 10644.8,1065.41C10662.7,1054.71 10684.2,1049.36 10709.2,1049.36C10740.5,1049.36 10766,1059.11 10785.9,1078.6C10805.8,1098.1 10815.7,1128.4 10815.7,1169.51L10815.7,1403.43L10762,1403.43L10762,1169.51C10762,1143.72 10755,1125.29 10740.9,1114.21C10726.7,1103.14 10710.1,1097.6 10691,1097.6C10666.4,1097.6 10647.4,1105 10633.9,1119.79C10620.4,1134.58 10613.7,1153.28 10613.7,1175.88L10613.7,1403.43L10559,1403.43L10559,1164.05C10559,1144.17 10552.6,1128.13 10539.7,1115.92C10526.8,1103.71 10510.2,1097.6 10489.9,1097.6C10475.9,1097.6 10462.9,1101.32 10450.8,1108.75C10438.8,1116.19 10429.1,1126.46 10421.7,1139.59C10414.4,1152.71 10410.7,1167.84 10410.7,1184.98L10410.7,1403.43L10357,1403.43Z" style="fill:white;fill-rule:nonzero;"/>
                    <path d="M11057.3,1410.71C11023.7,1410.71 10994.6,1403.24 10970.3,1388.29C10945.9,1373.35 10927.2,1352.42 10914.1,1325.49C10901,1298.57 10894.4,1267.2 10894.4,1231.4C10894.4,1195.6 10901,1164.01 10914.1,1136.63C10927.2,1109.25 10945.6,1087.86 10969.2,1072.46C10992.7,1057.06 11020.3,1049.36 11051.9,1049.36C11070.1,1049.36 11088.1,1052.4 11105.8,1058.47C11123.5,1064.53 11139.7,1074.36 11154.3,1087.93C11168.8,1101.51 11180.4,1119.45 11189.1,1141.75C11197.7,1164.05 11202.1,1191.5 11202.1,1224.12L11202.1,1246.87L10932.6,1246.87L10932.6,1200.45L11147.4,1200.45C11147.4,1180.73 11143.5,1163.14 11135.7,1147.66C11127.9,1132.19 11116.8,1119.98 11102.5,1111.03C11088.2,1102.08 11071.3,1097.6 11051.9,1097.6C11030.5,1097.6 11012,1102.88 10996.5,1113.42C10980.9,1123.96 10969,1137.65 10960.6,1154.49C10952.3,1171.33 10948.1,1189.38 10948.1,1208.65L10948.1,1239.59C10948.1,1265.99 10952.7,1288.33 10961.9,1306.61C10971.1,1324.88 10983.8,1338.77 11000.2,1348.25C11016.6,1357.73 11035.6,1362.47 11057.3,1362.47C11071.4,1362.47 11084.2,1360.46 11095.7,1356.44C11107.1,1352.42 11117,1346.35 11125.4,1338.23C11133.7,1330.12 11140.2,1319.99 11144.7,1307.86L11196.6,1322.42C11191.1,1340.02 11182,1355.45 11169.1,1368.73C11156.2,1382 11140.2,1392.31 11121.3,1399.67C11102.3,1407.03 11081,1410.71 11057.3,1410.71Z" style="fill:white;fill-rule:nonzero;"/>
                    <rect x="4929.75" y="1726.18" width="53.701" height="466.015" style="fill:white;fill-rule:nonzero;"/>
                    <path d="M5298.79,2049.29L5298.79,1842.68L5352.49,1842.68L5352.49,2192.19L5298.79,2192.19L5298.79,2133.03L5295.15,2133.03C5286.96,2150.78 5274.21,2165.84 5256.92,2178.2C5239.63,2190.56 5217.78,2196.74 5191.39,2196.74C5169.54,2196.74 5150.12,2191.93 5133.14,2182.29C5116.15,2172.66 5102.8,2158.1 5093.09,2138.61C5083.38,2119.11 5078.52,2094.5 5078.52,2064.77L5078.52,1842.68L5132.23,1842.68L5132.23,2061.13C5132.23,2086.61 5139.39,2106.94 5153.73,2122.11C5168.06,2137.28 5186.38,2144.86 5208.68,2144.86C5222.03,2144.86 5235.65,2141.45 5249.53,2134.62C5263.4,2127.8 5275.09,2117.33 5284.57,2103.22C5294.05,2089.11 5298.79,2071.14 5298.79,2049.29Z" style="fill:white;fill-rule:nonzero;"/>
                    <path d="M5599.57,1842.68L5599.57,1888.19L5418.44,1888.19L5418.44,1842.68L5599.57,1842.68ZM5471.23,1758.94L5524.93,1758.94L5524.93,2092.07C5524.93,2107.24 5527.17,2118.58 5531.64,2126.09C5536.12,2133.6 5541.88,2138.61 5548.94,2141.11C5555.99,2143.61 5563.46,2144.86 5571.35,2144.86C5577.27,2144.86 5582.12,2144.52 5585.91,2143.84C5589.71,2143.16 5592.74,2142.59 5595.02,2142.13L5605.94,2190.37C5602.3,2191.74 5597.22,2193.14 5590.69,2194.58C5584.17,2196.02 5575.9,2196.74 5565.89,2196.74C5550.72,2196.74 5535.89,2193.48 5521.4,2186.96C5506.92,2180.44 5494.93,2170.5 5485.45,2157.15C5475.97,2143.8 5471.23,2126.96 5471.23,2106.64L5471.23,1758.94Z" style="fill:white;fill-rule:nonzero;"/>
                    <path d="M5829.35,1842.68L5829.35,1888.19L5648.22,1888.19L5648.22,1842.68L5829.35,1842.68ZM5701.01,1758.94L5754.71,1758.94L5754.71,2092.07C5754.71,2107.24 5756.95,2118.58 5761.43,2126.09C5765.9,2133.6 5771.67,2138.61 5778.72,2141.11C5785.77,2143.61 5793.25,2144.86 5801.13,2144.86C5807.05,2144.86 5811.9,2144.52 5815.7,2143.84C5819.49,2143.16 5822.52,2142.59 5824.8,2142.13L5835.72,2190.37C5832.08,2191.74 5827,2193.14 5820.48,2194.58C5813.95,2196.02 5805.69,2196.74 5795.67,2196.74C5780.5,2196.74 5765.67,2193.48 5751.19,2186.96C5736.7,2180.44 5724.72,2170.5 5715.23,2157.15C5705.75,2143.8 5701.01,2126.96 5701.01,2106.64L5701.01,1758.94Z" style="fill:white;fill-rule:nonzero;"/>
                    <path d="M6050.03,2199.47C6016.35,2199.47 5987.34,2192 5962.99,2177.06C5938.65,2162.12 5919.91,2141.18 5906.79,2114.26C5893.67,2087.33 5887.11,2055.97 5887.11,2020.17C5887.11,1984.37 5893.67,1952.78 5906.79,1925.39C5919.91,1898.01 5938.27,1876.62 5961.86,1861.23C5985.45,1845.83 6013.02,1838.13 6044.57,1838.13C6062.77,1838.13 6080.75,1841.16 6098.5,1847.23C6116.25,1853.3 6132.4,1863.12 6146.97,1876.7C6161.53,1890.28 6173.13,1908.22 6181.78,1930.51C6190.43,1952.81 6194.75,1980.27 6194.75,2012.89L6194.75,2035.64L5925.34,2035.64L5925.34,1989.22L6140.14,1989.22C6140.14,1969.5 6136.23,1951.9 6128.42,1936.43C6120.61,1920.96 6109.53,1908.75 6095.2,1899.8C6080.86,1890.85 6063.99,1886.37 6044.57,1886.37C6023.18,1886.37 6004.71,1891.64 5989.16,1902.18C5973.61,1912.73 5961.67,1926.42 5953.32,1943.26C5944.98,1960.1 5940.81,1978.15 5940.81,1997.41L5940.81,2028.36C5940.81,2054.76 5945.4,2077.09 5954.57,2095.37C5963.75,2113.65 5976.53,2127.53 5992.92,2137.01C6009.3,2146.49 6028.34,2151.23 6050.03,2151.23C6064.14,2151.23 6076.92,2149.22 6088.37,2145.2C6099.83,2141.18 6109.72,2135.12 6118.07,2127C6126.41,2118.89 6132.86,2108.76 6137.41,2096.62L6189.29,2111.19C6183.83,2128.78 6174.65,2144.22 6161.76,2157.49C6148.86,2170.76 6132.93,2181.08 6113.97,2188.44C6095.01,2195.8 6073.7,2199.47 6050.03,2199.47Z" style="fill:white;fill-rule:nonzero;"/>
                </g>
                <g transform="matrix(0.719982,0,0,0.727579,-2260.23,421.786)">
                    <rect x="4956.48" y="1705.07" width="1374.04" height="18.469" style="fill:white;"/>
                    <rect x="4956.48" y="1705.07" width="1374.04" height="18.469" style="fill:white;"/>
                </g>
                <g transform="matrix(0.470105,0,0,0.727579,166.953,421.786)">
                    <rect x="4956.48" y="1705.07" width="1374.04" height="18.469" style="fill:white;"/>
                    <rect x="4956.48" y="1705.07" width="1374.04" height="18.469" style="fill:white;"/>
                </g>
                <g transform="matrix(0.408276,0,0,0.727579,-715.26,561.538)">
                    <rect x="4956.48" y="1705.07" width="1374.04" height="18.469" style="fill:white;"/>
                    <rect x="4956.48" y="1705.07" width="1374.04" height="18.469" style="fill:white;"/>
                </g>
                <g transform="matrix(0.608174,0,0,0.727579,-935.214,561.538)">
                    <rect x="4956.48" y="1705.07" width="1374.04" height="18.469" style="fill:white;"/>
                    <rect x="4956.48" y="1705.07" width="1374.04" height="18.469" style="fill:white;"/>
                </g>
                <g transform="matrix(0.86509,0,0,0.727579,-2979.45,701.29)">
                    <rect x="4956.48" y="1705.07" width="1374.04" height="18.469" style="fill:white;"/>
                    <rect x="4956.48" y="1705.07" width="1374.04" height="18.469" style="fill:white;"/>
                </g>
                <g transform="matrix(0.376088,0,0,0.727579,762.126,701.29)">
                    <rect x="4956.48" y="1705.07" width="1374.04" height="18.469" style="fill:white;"/>
                    <rect x="4956.48" y="1705.07" width="1374.04" height="18.469" style="fill:white;"/>
                </g>
            </g>
        </g>
    </g>
</svg>
