<?xml version="1.0" encoding="UTF-8" standalone="no"?>
<!DOCTYPE svg PUBLIC "-//W3C//DTD SVG 1.1//EN" "http://www.w3.org/Graphics/SVG/1.1/DTD/svg11.dtd">
<svg width="100%" height="100%" viewBox="0 0 4000 2800" version="1.1" xmlns="http://www.w3.org/2000/svg" xmlns:xlink="http://www.w3.org/1999/xlink" xml:space="preserve" xmlns:serif="http://www.serif.com/" style="fill-rule:evenodd;clip-rule:evenodd;stroke-linejoin:round;stroke-miterlimit:2;">
    <g transform="matrix(1,0,0,1,-17004,-24301.4)">
        <g id="Plan-de-travail16" serif:id="Plan de travail16" transform="matrix(1.01561,0,0,1.00501,16301.2,24270.9)">
            <rect x="692.012" y="30.389" width="3938.52" height="2786.05" style="fill:none;"/>
            <clipPath id="_clip1">
                <rect x="692.012" y="30.389" width="3938.52" height="2786.05"/>
            </clipPath>
            <g clip-path="url(#_clip1)">
                <g transform="matrix(2.26815,0,0,2.36849,-1187.79,-1514.43)">
                    <rect x="828.782" y="652.241" width="1736.44" height="1176.3" style="fill:rgb(11,5,30);"/>
                </g>
                <g id="logo-6" serif:id="logo 6">
                </g>
                <g transform="matrix(6.62277,-4.41584e-16,7.28289e-17,6.69263,1035.38,272.929)">
                    <g>
                        <path d="M135.527,274.164C135.893,274.124 136.233,273.977 136.523,273.679C136.637,273.561 137.093,273.044 136.959,272.096C136.78,270.825 135.201,265.062 134.575,263.951C134.026,262.977 133.191,262.929 132.848,262.962C129.142,263.322 111.948,264.942 106.567,265.449C105.743,256.61 101.744,214.148 100.103,204.198C99.95,203.277 99.288,202.508 98.011,202.217C96.721,201.924 94.4,202.203 92.454,202.677C91.322,202.953 90.322,203.283 89.741,203.546C89.215,203.784 88.89,204.058 88.74,204.233C88.35,204.688 88.289,205.152 88.326,205.523C89.479,217.021 92.258,261.299 95.423,272.825C95.762,274.06 96.667,275.078 98.133,275.798C99.756,276.595 102.186,277.044 105.08,277.188C115.382,277.7 131.992,274.541 135.527,274.164ZM191.459,216.857L191.454,216.89C191.285,218.111 190.327,222.105 190.801,224.121C190.997,224.956 191.571,225.546 192.471,225.839C192.899,225.978 193.648,226.033 194.254,226.053C195.323,236.367 197.41,256.05 198.018,261.778C198.016,261.764 198.014,261.736 198.014,261.736C198.014,261.736 198.174,262.826 198.525,263.211C199.14,263.886 201.296,266.104 202.126,266.697C202.531,266.987 202.999,267.127 203.508,267.141C203.839,267.15 204.2,267.083 204.523,267.051C209.668,266.543 228.519,265.115 234.091,263.934C234.734,263.798 235.284,263.415 235.673,262.743C235.965,262.24 236.17,261.487 236.231,260.58C236.353,258.753 235.941,256.146 235.469,254.543C235.174,253.545 234.769,252.86 234.503,252.601C234.026,252.137 232.571,252.194 232.571,252.194C232.571,252.194 232.655,252.178 232.693,252.174C229.707,252.484 220.759,254.393 214.155,254.992C211.613,255.222 209.456,255.3 208.274,254.893C207.932,254.776 207.748,254.434 207.574,254.05C207.261,253.359 207.093,252.489 206.994,251.58C206.787,249.671 206.91,247.591 207.034,246.282C210.111,246.142 217.367,245.758 219.268,245.177C219.801,245.014 220.252,244.663 220.56,244.079C220.845,243.537 220.998,242.597 220.92,241.454C220.754,239.021 219.714,235.364 219.478,234.66C219.044,233.364 217.795,233.445 217.73,233.452C216.332,233.599 208.819,234.202 205.805,234.443C205.416,233.228 204.852,231.223 204.659,229.315C204.57,228.43 204.555,227.569 204.717,226.846C204.807,226.446 204.918,226.083 205.225,225.898C206.298,225.255 208.425,224.877 210.961,224.569C217.545,223.767 226.693,223.749 229.68,223.425C230.059,223.384 230.459,223.332 230.794,223.15C230.82,223.141 232.499,222.572 233.154,222.065C233.928,221.467 234.279,220.686 234.158,219.807C234.083,219.265 233.742,218.384 233.224,217.397C232.264,215.567 230.709,213.215 230.241,212.414C229.851,211.748 228.152,211.697 228.152,211.697C228.152,211.697 228.34,211.651 228.419,211.642C223.478,212.171 204.009,214.255 199.025,214.795C198.861,214.813 193.72,214.857 192.726,215.186C191.647,215.542 191.448,216.347 191.459,216.857ZM293.243,243.251C293.072,243.533 292.934,243.851 292.908,244.178C292.845,244.981 292.304,246.901 292.103,248.746C291.93,250.334 292.032,251.87 292.555,252.914C293.279,254.359 294.858,256.18 296.67,257.25C298.07,258.077 299.603,258.45 301.019,258.126C305.906,257.011 319.621,250.374 323.453,246.916C324.651,245.835 325.321,244.291 325.53,242.569C325.805,240.3 325.271,237.716 324.37,235.79C323.821,234.615 321.758,232.135 319.015,229.222C312.941,222.775 303.539,213.943 301.749,212.513C301.158,212.042 300.77,211.461 300.69,210.817C300.61,210.168 300.852,209.487 301.376,208.831C302.881,206.945 306.308,205.434 312.054,204.952C312.846,204.885 314.028,204.8 314.712,204.42C315.421,204.026 315.852,203.427 315.93,202.606C315.974,202.148 315.866,201.361 315.616,200.459C315.175,198.866 314.339,196.766 314.062,196.06C313.939,195.745 313.672,195.243 312.91,195.068C312.828,195.049 312.429,194.999 311.783,195.115C310.067,195.422 304.268,196.792 299.317,199.126C295.735,200.815 292.639,203.064 291.46,205.65C289.086,210.854 291.841,215.888 296.681,220.82C300.546,224.758 305.689,228.701 309.745,232.834C312.265,235.402 314.365,238.028 315.332,240.804C315.464,241.185 315.361,241.627 315.195,242.038C314.989,242.545 314.652,243.017 314.251,243.313C312.121,244.888 305.421,247.522 303.056,248.521C302.448,248.779 301.902,248.841 301.447,248.811C301.783,248.238 302.115,247.603 302.322,247.028C302.786,245.738 302.572,244.617 302.014,244.006C301.621,243.575 300.829,243.137 299.811,242.848C298.216,242.395 295.95,242.165 295.2,242.041C294.623,241.945 294.125,242.108 293.712,242.503C293.561,242.646 293.354,243.03 293.243,243.251ZM380.18,232.074C380.009,232.355 379.871,232.673 379.845,233.001C379.782,233.804 379.241,235.724 379.04,237.568C378.867,239.156 378.969,240.693 379.492,241.736C380.216,243.181 381.795,245.002 383.607,246.072C385.007,246.9 386.54,247.272 387.956,246.949C392.843,245.833 406.558,239.196 410.39,235.738C411.588,234.657 412.257,233.114 412.467,231.392C412.742,229.122 412.208,226.539 411.307,224.612C410.758,223.438 408.695,220.957 405.952,218.045C399.878,211.597 390.476,202.765 388.686,201.336C388.095,200.864 387.707,200.284 387.627,199.64C387.547,198.99 387.789,198.31 388.313,197.654C389.818,195.768 393.245,194.256 398.99,193.774C399.783,193.708 400.964,193.623 401.648,193.242C402.357,192.848 402.789,192.249 402.867,191.428C402.91,190.97 402.803,190.184 402.553,189.282C402.112,187.689 401.276,185.588 400.999,184.883C400.876,184.568 400.609,184.066 399.847,183.891C399.765,183.872 399.366,183.822 398.72,183.937C397.004,184.244 391.205,185.614 386.254,187.949C382.672,189.637 379.576,191.886 378.396,194.473C376.022,199.676 378.778,204.71 383.618,209.642C387.483,213.58 392.626,217.523 396.682,221.656C399.202,224.224 401.302,226.85 402.269,229.626C402.401,230.007 402.298,230.449 402.131,230.86C401.925,231.367 401.588,231.839 401.188,232.136C399.057,233.711 392.358,236.344 389.993,237.344C389.384,237.601 388.839,237.663 388.384,237.633C388.72,237.061 389.051,236.425 389.258,235.851C389.723,234.56 389.509,233.439 388.951,232.828C388.558,232.397 387.766,231.959 386.748,231.67C385.153,231.218 382.887,230.987 382.137,230.863C381.56,230.767 381.062,230.931 380.648,231.325C380.498,231.468 380.291,231.853 380.18,232.074ZM198.556,66.604C220.146,64.439 242.397,72.758 257.275,88.826C272.059,104.792 278.855,131.593 274.725,153.364C270.866,173.67 257.517,188.303 239.256,198.253C219.288,209.137 193.988,209.511 173.639,199.054C153.019,188.463 138.253,167.36 135.783,143.86C133.387,121.026 140.964,102.736 160.84,82.404C170.411,72.613 184.424,68.155 198.099,66.652C198.249,66.636 198.398,66.62 198.556,66.604ZM199.423,75.172C180.863,77.213 163.18,91.806 153.261,107.784C143.016,124.282 140.532,142.168 148.656,160.023C156.116,176.419 172.371,190.387 189.98,195.632C209.146,201.343 227.24,197.97 242.844,185.167C258.533,172.302 269.151,150.563 266.997,130.069C264.891,110.031 251.191,93.406 234.268,81.891C223.145,74.322 211.392,73.972 199.423,75.172ZM128.531,191.062C128.76,191.211 129.154,191.287 129.154,191.287C129.154,191.287 130.518,191.416 130.978,190.973C131.685,190.291 134.871,188.203 135.887,186.752C136.515,185.856 136.577,184.997 136.342,184.362C129.355,165.468 124.64,143.197 123.695,127.926C123.304,121.605 123.535,116.523 124.592,113.476C124.881,112.644 124.712,111.896 124.125,111.247C123.73,110.811 122.991,110.385 121.993,110.128C119.809,109.564 116.144,109.636 114.558,110.197C113.627,110.526 113.132,111.1 112.942,111.581C112.36,113.058 112.146,117.1 112.386,122.51C112.799,131.813 114.375,145.374 116.655,156.368C108.705,144.859 93.736,123.263 90.338,118.913C89.968,118.439 89.273,118.035 88.23,118.085C87.257,118.132 85.679,118.631 84.178,119.285C82.511,120.011 80.94,120.912 80.388,121.391C79.672,122.012 79.624,122.7 79.657,123.021C80.808,134.487 85.518,178.868 86.714,190.17C86.748,190.49 86.932,191.43 88.13,191.625C88.543,191.692 90.667,191.608 92.782,191.413C94.195,191.283 95.603,191.116 96.446,190.954C97.062,190.835 97.485,190.667 97.672,190.555C98.469,190.074 98.55,189.395 98.503,188.936C97.833,182.308 95.08,156.272 93.805,144.232C101.807,155.521 120.806,182.296 125.753,189.018C126.434,189.944 128.005,190.719 128.531,191.062ZM282.49,101.795C287.915,110.207 298.84,142.39 283.695,168.839C283.378,169.392 283.291,170.117 283.714,170.941C284.253,171.992 286.369,173.69 288.35,174.711C289.626,175.369 290.85,175.727 291.558,175.701C292.542,175.665 293.135,175.174 293.433,174.519C307.341,143.936 305.084,126.375 293.764,99.286C293.602,98.899 293.328,98.551 292.917,98.275C292.462,97.969 291.73,97.733 290.813,97.667C288.679,97.516 285.244,98.184 283.779,98.844C281.997,99.647 282.053,101.117 282.49,101.795ZM312.417,152.375C312.24,152.671 312.093,152.999 312.067,153.34C311.985,154.378 311.287,156.861 311.027,159.246C310.815,161.194 310.921,163.081 311.562,164.361C312.465,166.161 314.433,168.427 316.689,169.76C318.386,170.763 320.24,171.229 321.956,170.837C328.213,169.409 345.777,160.914 350.684,156.486C352.147,155.165 352.955,153.275 353.211,151.171C353.556,148.329 352.883,145.095 351.756,142.682C351.057,141.187 348.422,138.04 344.931,134.334C337.114,126.035 325.013,114.666 322.709,112.826C321.842,112.134 321.287,111.274 321.17,110.329C321.053,109.379 321.387,108.377 322.154,107.417C324.145,104.923 328.658,102.875 336.255,102.238C337.22,102.157 338.661,102.072 339.494,101.609C340.267,101.179 340.741,100.53 340.827,99.635C340.879,99.08 340.739,98.129 340.437,97.036C339.872,94.998 338.801,92.31 338.448,91.408C338.324,91.092 338.057,90.59 337.293,90.415C337.201,90.393 336.754,90.349 336.027,90.479C333.83,90.873 326.405,92.627 320.065,95.616C315.557,97.741 311.642,100.547 310.157,103.801C307.173,110.343 310.716,116.644 316.8,122.844C321.786,127.924 328.419,133.011 333.651,138.341C336.955,141.708 339.699,145.157 340.966,148.796C341.172,149.39 341.04,150.08 340.78,150.719C340.482,151.455 339.988,152.135 339.407,152.565C336.64,154.611 327.942,158.039 324.871,159.338C323.654,159.853 322.611,159.819 321.848,159.639C322.376,158.792 322.966,157.744 323.299,156.82C323.825,155.361 323.628,154.089 322.997,153.398C322.531,152.886 321.583,152.382 320.374,152.039C318.335,151.461 315.437,151.168 314.478,151.009C313.889,150.912 313.381,151.079 312.959,151.482C312.777,151.655 312.523,152.156 312.417,152.375ZM391.691,86.02L391.631,84.4L391.312,84.422L391.364,86.044L389.807,86.214C389.803,86.185 389.801,86.156 389.799,86.126C389.753,85.267 390.386,84.521 391.241,84.428L361.899,87.62C361.422,87.648 357.509,87.891 355.569,88.376C354.605,88.617 353.974,89.041 353.725,89.35C353.563,89.55 353.263,90.209 353.273,91.213C353.291,93.003 353.794,96.953 353.84,97.408C353.946,98.468 354.534,99.011 355.471,99.212C355.809,99.284 356.255,99.283 356.741,99.222C356.839,99.21 356.969,99.195 357.102,99.181C358.675,115.128 362.161,150.769 363.656,161.228C363.787,162.143 364.292,163.056 364.981,163.852C365.766,164.758 366.777,165.514 367.298,165.936C367.726,166.282 368.237,166.466 368.799,166.513C369.237,166.55 369.721,166.484 370.147,166.443C375.329,165.954 394.547,163.888 399.559,163.352C399.865,163.319 400.432,163.204 400.821,162.512C400.924,162.329 401.198,161.404 401.357,160.132C401.601,158.179 401.684,155.309 401.085,153.69C400.608,152.398 399.737,151.683 398.656,151.566C394.519,151.121 379.82,153.216 374.812,153.962L372.532,132.267C375.829,131.938 383.244,131.136 386.654,130.258C387.999,129.912 388.864,129.405 389.164,129.052C389.542,128.607 389.649,128.137 389.611,127.694C389.522,126.642 389.059,123.709 388.514,121.711C388.211,120.602 387.825,119.742 387.515,119.364C387.433,119.265 387.102,118.785 386.281,118.773C386.235,118.773 386.007,118.785 385.63,118.824C383.528,119.04 374.916,120.03 371.286,120.449L369.008,98.783C373.949,98.29 388.712,96.8 392.595,96.202C393.42,96.075 394.481,95.842 395.254,95.404C396.114,94.917 396.683,94.2 396.836,93.285C396.925,92.754 396.836,91.765 396.594,90.649C396.142,88.57 395.255,85.913 395.255,85.913C395.073,85.367 394.614,84.959 394.05,84.841L392.084,84.43L391.916,86.05L391.752,86.015L391.691,86.02ZM201.969,110.181C187.374,110.938 175.9,125.079 179.335,139.283C182.851,153.817 194.817,164.178 209.37,162.847C223.905,161.518 231.545,150.266 232.004,133.746C232.41,119.137 216.106,109.448 201.969,110.181ZM199.386,75.176L199.46,75.168L199.386,75.176Z" style="fill:white;fill-rule:nonzero;"/>
                    </g>
                </g>
            </g>
        </g>
    </g>
</svg>
