<?xml version="1.0" encoding="UTF-8" standalone="no"?>
<!DOCTYPE svg PUBLIC "-//W3C//DTD SVG 1.1//EN" "http://www.w3.org/Graphics/SVG/1.1/DTD/svg11.dtd">
<svg width="100%" height="100%" viewBox="0 0 4000 2800" version="1.1" xmlns="http://www.w3.org/2000/svg" xmlns:xlink="http://www.w3.org/1999/xlink" xml:space="preserve" xmlns:serif="http://www.serif.com/" style="fill-rule:evenodd;clip-rule:evenodd;stroke-linecap:round;stroke-linejoin:round;stroke-miterlimit:1.5;">
    <g transform="matrix(1,0,0,1,-8996.27,0)">
        <g id="Plan-de-travail16" serif:id="Plan de travail16" transform="matrix(1.01561,0,0,1.00501,8293.45,-30.5415)">
            <rect x="692.012" y="30.389" width="3938.52" height="2786.05" style="fill:none;"/>
            <clipPath id="_clip1">
                <rect x="692.012" y="30.389" width="3938.52" height="2786.05"/>
            </clipPath>
            <g clip-path="url(#_clip1)">
                <g transform="matrix(2.26815,0,0,2.36849,-1187.79,-1514.43)">
                    <rect x="828.782" y="652.241" width="1736.44" height="1176.3" style="fill:rgb(11,5,30);"/>
                </g>
                <g transform="matrix(1.72829,0,0,1.74652,-1311.69,387.845)">
                    <path d="M1487.13,689.683L1487.13,479.683L1564.23,479.683C1581.03,479.683 1594.88,482.533 1605.78,488.233C1616.68,493.933 1624.83,501.633 1630.23,511.333C1635.63,521.033 1638.33,531.783 1638.33,543.583C1638.33,556.383 1634.98,568.083 1628.28,578.683C1621.58,589.283 1611.13,596.983 1596.93,601.783L1640.43,689.683L1596.33,689.683L1557.33,606.883L1525.53,606.883L1525.53,689.683L1487.13,689.683ZM1525.53,578.683L1561.83,578.683C1574.63,578.683 1584.03,575.583 1590.03,569.383C1596.03,563.183 1599.03,554.983 1599.03,544.783C1599.03,534.783 1596.08,526.783 1590.18,520.783C1584.28,514.783 1574.73,511.783 1561.53,511.783L1525.53,511.783L1525.53,578.683Z" style="fill:white;fill-rule:nonzero;"/>
                    <path d="M1736.43,693.283C1721.43,693.283 1708.13,690.083 1696.53,683.683C1684.93,677.283 1675.83,668.283 1669.23,656.683C1662.63,645.083 1659.33,631.683 1659.33,616.483C1659.33,601.083 1662.58,587.383 1669.08,575.383C1675.58,563.383 1684.58,554.033 1696.08,547.333C1707.58,540.633 1721.13,537.283 1736.73,537.283C1751.33,537.283 1764.23,540.483 1775.43,546.883C1786.63,553.283 1795.38,562.033 1801.68,573.133C1807.98,584.233 1811.13,596.583 1811.13,610.183C1811.13,612.383 1811.08,614.683 1810.98,617.083C1810.88,619.483 1810.73,621.983 1810.53,624.583L1697.43,624.583C1698.23,636.183 1702.28,645.283 1709.58,651.883C1716.88,658.483 1725.73,661.783 1736.13,661.783C1743.93,661.783 1750.48,660.033 1755.78,656.533C1761.08,653.033 1765.03,648.483 1767.63,642.883L1806.63,642.883C1803.83,652.283 1799.18,660.833 1792.68,668.533C1786.18,676.233 1778.18,682.283 1768.68,686.683C1759.18,691.083 1748.43,693.283 1736.43,693.283ZM1736.73,568.483C1727.33,568.483 1719.03,571.133 1711.83,576.433C1704.63,581.733 1700.03,589.783 1698.03,600.583L1772.13,600.583C1771.53,590.783 1767.93,582.983 1761.33,577.183C1754.73,571.383 1746.53,568.483 1736.73,568.483Z" style="fill:white;fill-rule:nonzero;"/>
                    <path d="M1905.03,693.283C1891.83,693.283 1880.23,691.133 1870.23,686.833C1860.23,682.533 1852.23,676.583 1846.23,668.983C1840.23,661.383 1836.63,652.583 1835.43,642.583L1874.13,642.583C1875.33,648.383 1878.58,653.333 1883.88,657.433C1889.18,661.533 1896.03,663.583 1904.43,663.583C1912.83,663.583 1918.98,661.883 1922.88,658.483C1926.78,655.083 1928.73,651.183 1928.73,646.783C1928.73,640.383 1925.93,636.033 1920.33,633.733C1914.73,631.433 1906.93,629.183 1896.93,626.983C1890.53,625.583 1884.03,623.883 1877.43,621.883C1870.83,619.883 1864.78,617.333 1859.28,614.233C1853.78,611.133 1849.33,607.133 1845.93,602.233C1842.53,597.333 1840.83,591.283 1840.83,584.083C1840.83,570.883 1846.08,559.783 1856.58,550.783C1867.08,541.783 1881.83,537.283 1900.83,537.283C1918.43,537.283 1932.48,541.383 1942.98,549.583C1953.48,557.783 1959.73,569.083 1961.73,583.483L1925.43,583.483C1923.23,572.483 1914.93,566.983 1900.53,566.983C1893.33,566.983 1887.78,568.383 1883.88,571.183C1879.98,573.983 1878.03,577.483 1878.03,581.683C1878.03,586.083 1880.93,589.583 1886.73,592.183C1892.53,594.783 1900.23,597.183 1909.83,599.383C1920.23,601.783 1929.78,604.433 1938.48,607.333C1947.18,610.233 1954.13,614.533 1959.33,620.233C1964.53,625.933 1967.13,634.083 1967.13,644.683C1967.33,653.883 1964.93,662.183 1959.93,669.583C1954.93,676.983 1947.73,682.783 1938.33,686.983C1928.93,691.183 1917.83,693.283 1905.03,693.283Z" style="fill:white;fill-rule:nonzero;"/>
                    <path d="M2062.53,693.283C2049.33,693.283 2037.73,691.133 2027.73,686.833C2017.73,682.533 2009.73,676.583 2003.73,668.983C1997.73,661.383 1994.13,652.583 1992.93,642.583L2031.63,642.583C2032.83,648.383 2036.08,653.333 2041.38,657.433C2046.68,661.533 2053.53,663.583 2061.93,663.583C2070.33,663.583 2076.48,661.883 2080.38,658.483C2084.28,655.083 2086.23,651.183 2086.23,646.783C2086.23,640.383 2083.43,636.033 2077.83,633.733C2072.23,631.433 2064.43,629.183 2054.43,626.983C2048.03,625.583 2041.53,623.883 2034.93,621.883C2028.33,619.883 2022.28,617.333 2016.78,614.233C2011.28,611.133 2006.83,607.133 2003.43,602.233C2000.03,597.333 1998.33,591.283 1998.33,584.083C1998.33,570.883 2003.58,559.783 2014.08,550.783C2024.58,541.783 2039.33,537.283 2058.33,537.283C2075.93,537.283 2089.98,541.383 2100.48,549.583C2110.98,557.783 2117.23,569.083 2119.23,583.483L2082.93,583.483C2080.73,572.483 2072.43,566.983 2058.03,566.983C2050.83,566.983 2045.28,568.383 2041.38,571.183C2037.48,573.983 2035.53,577.483 2035.53,581.683C2035.53,586.083 2038.43,589.583 2044.23,592.183C2050.03,594.783 2057.73,597.183 2067.33,599.383C2077.73,601.783 2087.28,604.433 2095.98,607.333C2104.68,610.233 2111.63,614.533 2116.83,620.233C2122.03,625.933 2124.63,634.083 2124.63,644.683C2124.83,653.883 2122.43,662.183 2117.43,669.583C2112.43,676.983 2105.23,682.783 2095.83,686.983C2086.43,691.183 2075.33,693.283 2062.53,693.283Z" style="fill:white;fill-rule:nonzero;"/>
                    <path d="M2229.93,693.283C2215.53,693.283 2202.58,689.983 2191.08,683.383C2179.58,676.783 2170.48,667.633 2163.78,655.933C2157.08,644.233 2153.73,630.683 2153.73,615.283C2153.73,599.883 2157.13,586.333 2163.93,574.633C2170.73,562.933 2179.88,553.783 2191.38,547.183C2202.88,540.583 2215.83,537.283 2230.23,537.283C2244.43,537.283 2257.28,540.583 2268.78,547.183C2280.28,553.783 2289.38,562.933 2296.08,574.633C2302.78,586.333 2306.13,599.883 2306.13,615.283C2306.13,630.683 2302.78,644.233 2296.08,655.933C2289.38,667.633 2280.23,676.783 2268.63,683.383C2257.03,689.983 2244.13,693.283 2229.93,693.283ZM2229.93,659.983C2239.93,659.983 2248.63,656.233 2256.03,648.733C2263.43,641.233 2267.13,630.083 2267.13,615.283C2267.13,600.483 2263.43,589.333 2256.03,581.833C2248.63,574.333 2240.03,570.583 2230.23,570.583C2220.03,570.583 2211.28,574.333 2203.98,581.833C2196.68,589.333 2193.03,600.483 2193.03,615.283C2193.03,630.083 2196.68,641.233 2203.98,648.733C2211.28,656.233 2219.93,659.983 2229.93,659.983Z" style="fill:white;fill-rule:nonzero;"/>
                    <path d="M2396.13,693.283C2377.53,693.283 2363.18,687.483 2353.08,675.883C2342.98,664.283 2337.93,647.283 2337.93,624.883L2337.93,540.883L2376.03,540.883L2376.03,621.283C2376.03,634.083 2378.63,643.883 2383.83,650.683C2389.03,657.483 2397.23,660.883 2408.43,660.883C2419.03,660.883 2427.78,657.083 2434.68,649.483C2441.58,641.883 2445.03,631.283 2445.03,617.683L2445.03,540.883L2483.43,540.883L2483.43,689.683L2449.53,689.683L2446.53,664.483C2441.93,673.283 2435.28,680.283 2426.58,685.483C2417.88,690.683 2407.73,693.283 2396.13,693.283Z" style="fill:white;fill-rule:nonzero;"/>
                    <path d="M2522.73,689.683L2522.73,540.883L2556.93,540.883L2560.53,568.783C2565.93,559.183 2573.28,551.533 2582.58,545.833C2591.88,540.133 2602.83,537.283 2615.43,537.283L2615.43,577.783L2604.63,577.783C2596.23,577.783 2588.73,579.083 2582.13,581.683C2575.53,584.283 2570.38,588.783 2566.68,595.183C2562.98,601.583 2561.13,610.483 2561.13,621.883L2561.13,689.683L2522.73,689.683Z" style="fill:white;fill-rule:nonzero;"/>
                    <path d="M2711.73,693.283C2696.53,693.283 2683.13,689.983 2671.53,683.383C2659.93,676.783 2650.78,667.583 2644.08,655.783C2637.38,643.983 2634.03,630.483 2634.03,615.283C2634.03,600.083 2637.38,586.583 2644.08,574.783C2650.78,562.983 2659.93,553.783 2671.53,547.183C2683.13,540.583 2696.53,537.283 2711.73,537.283C2730.73,537.283 2746.73,542.233 2759.73,552.133C2772.73,562.033 2781.03,575.683 2784.63,593.083L2744.13,593.083C2742.13,585.883 2738.18,580.233 2732.28,576.133C2726.38,572.033 2719.43,569.983 2711.43,569.983C2700.83,569.983 2691.83,573.983 2684.43,581.983C2677.03,589.983 2673.33,601.083 2673.33,615.283C2673.33,629.483 2677.03,640.583 2684.43,648.583C2691.83,656.583 2700.83,660.583 2711.43,660.583C2719.43,660.583 2726.38,658.583 2732.28,654.583C2738.18,650.583 2742.13,644.883 2744.13,637.483L2784.63,637.483C2781.03,654.283 2772.73,667.783 2759.73,677.983C2746.73,688.183 2730.73,693.283 2711.73,693.283Z" style="fill:white;fill-rule:nonzero;"/>
                    <path d="M2891.13,693.283C2876.13,693.283 2862.83,690.083 2851.23,683.683C2839.63,677.283 2830.53,668.283 2823.93,656.683C2817.33,645.083 2814.03,631.683 2814.03,616.483C2814.03,601.083 2817.28,587.383 2823.78,575.383C2830.28,563.383 2839.28,554.033 2850.78,547.333C2862.28,540.633 2875.83,537.283 2891.43,537.283C2906.03,537.283 2918.93,540.483 2930.13,546.883C2941.33,553.283 2950.08,562.033 2956.38,573.133C2962.68,584.233 2965.83,596.583 2965.83,610.183C2965.83,612.383 2965.78,614.683 2965.68,617.083C2965.58,619.483 2965.43,621.983 2965.23,624.583L2852.13,624.583C2852.93,636.183 2856.98,645.283 2864.28,651.883C2871.58,658.483 2880.43,661.783 2890.83,661.783C2898.63,661.783 2905.18,660.033 2910.48,656.533C2915.78,653.033 2919.73,648.483 2922.33,642.883L2961.33,642.883C2958.53,652.283 2953.88,660.833 2947.38,668.533C2940.88,676.233 2932.88,682.283 2923.38,686.683C2913.88,691.083 2903.13,693.283 2891.13,693.283ZM2891.43,568.483C2882.03,568.483 2873.73,571.133 2866.53,576.433C2859.33,581.733 2854.73,589.783 2852.73,600.583L2926.83,600.583C2926.23,590.783 2922.63,582.983 2916.03,577.183C2909.43,571.383 2901.23,568.483 2891.43,568.483Z" style="fill:white;fill-rule:nonzero;"/>
                    <path d="M3059.73,693.283C3046.53,693.283 3034.93,691.133 3024.93,686.833C3014.93,682.533 3006.93,676.583 3000.93,668.983C2994.93,661.383 2991.33,652.583 2990.13,642.583L3028.83,642.583C3030.03,648.383 3033.28,653.333 3038.58,657.433C3043.88,661.533 3050.73,663.583 3059.13,663.583C3067.53,663.583 3073.68,661.883 3077.58,658.483C3081.48,655.083 3083.43,651.183 3083.43,646.783C3083.43,640.383 3080.63,636.033 3075.03,633.733C3069.43,631.433 3061.63,629.183 3051.63,626.983C3045.23,625.583 3038.73,623.883 3032.13,621.883C3025.53,619.883 3019.48,617.333 3013.98,614.233C3008.48,611.133 3004.03,607.133 3000.63,602.233C2997.23,597.333 2995.53,591.283 2995.53,584.083C2995.53,570.883 3000.78,559.783 3011.28,550.783C3021.78,541.783 3036.53,537.283 3055.53,537.283C3073.13,537.283 3087.18,541.383 3097.68,549.583C3108.18,557.783 3114.43,569.083 3116.43,583.483L3080.13,583.483C3077.93,572.483 3069.63,566.983 3055.23,566.983C3048.03,566.983 3042.48,568.383 3038.58,571.183C3034.68,573.983 3032.73,577.483 3032.73,581.683C3032.73,586.083 3035.63,589.583 3041.43,592.183C3047.23,594.783 3054.93,597.183 3064.53,599.383C3074.93,601.783 3084.48,604.433 3093.18,607.333C3101.88,610.233 3108.83,614.533 3114.03,620.233C3119.23,625.933 3121.83,634.083 3121.83,644.683C3122.03,653.883 3119.63,662.183 3114.63,669.583C3109.63,676.983 3102.43,682.783 3093.03,686.983C3083.63,691.183 3072.53,693.283 3059.73,693.283Z" style="fill:white;fill-rule:nonzero;"/>
                </g>
                <g transform="matrix(1.51838,0,0,1.5344,-617.55,-1447.41)">
                    <path d="M1264.65,1611.66L1265.39,1609.19L1286.81,1609.19L1286.07,1611.66L1264.65,1611.66ZM1277.28,1609.19C1280,1609.19 1282.23,1608.63 1283.97,1607.52C1285.7,1606.4 1287.12,1604.98 1288.24,1603.24C1289.35,1601.51 1290.28,1599.71 1291.02,1597.86C1291.77,1596 1292.47,1594.33 1293.13,1592.84L1295.98,1592.84C1294.41,1597.55 1293.31,1601.14 1292.69,1603.61C1292.08,1606.09 1291.48,1608.36 1290.9,1610.42C1290.57,1611.75 1290.22,1613.17 1289.85,1614.7C1289.48,1616.22 1289.06,1618.04 1288.61,1620.14C1288.15,1622.25 1287.6,1624.87 1286.94,1628.01L1284.09,1628.01C1284.34,1626.03 1284.59,1624.07 1284.83,1622.12C1285.08,1620.18 1285.06,1618.43 1284.77,1616.86C1284.48,1615.3 1283.72,1614.04 1282.48,1613.09C1281.24,1612.14 1279.26,1611.66 1276.54,1611.66L1277.28,1609.19ZM1310.09,1589.13C1310.92,1584.26 1311.25,1580.4 1311.08,1577.55C1310.92,1574.7 1309.9,1572.68 1308.05,1571.48C1306.19,1570.29 1303.08,1569.69 1298.7,1569.69L1289.66,1569.69C1286.86,1569.69 1284.69,1569.92 1283.16,1570.37C1281.63,1570.82 1280.42,1571.77 1279.51,1573.22C1278.6,1574.66 1277.73,1576.91 1276.91,1579.97L1260.44,1641.38C1259.62,1644.35 1259.26,1646.58 1259.39,1648.07C1259.51,1649.55 1260.23,1650.52 1261.56,1650.97C1262.88,1651.43 1264.94,1651.65 1267.75,1651.65L1276.78,1651.65C1281.98,1651.65 1286.11,1650.95 1289.17,1649.55C1292.22,1648.15 1294.78,1645.86 1296.84,1642.68C1298.91,1639.5 1300.93,1635.19 1302.91,1629.74L1305.76,1629.74C1305.35,1630.81 1304.89,1632.13 1304.39,1633.7C1303.9,1635.27 1303.45,1636.92 1303.03,1638.65C1302.62,1640.22 1302.08,1642.47 1301.42,1645.4C1300.76,1648.33 1300.19,1651.37 1299.69,1654.5C1295.48,1654.34 1290.73,1654.24 1285.45,1654.19C1280.17,1654.15 1275.46,1654.13 1271.34,1654.13L1264.34,1654.13C1261.49,1654.13 1258.42,1654.15 1255.12,1654.19C1251.81,1654.24 1248.47,1654.28 1245.09,1654.32C1241.7,1654.36 1238.53,1654.42 1235.55,1654.5L1236.17,1652.03C1238.98,1651.86 1241.17,1651.53 1242.74,1651.04C1244.3,1650.54 1245.52,1649.55 1246.39,1648.07C1247.25,1646.58 1248.1,1644.35 1248.92,1641.38L1265.39,1579.97C1266.22,1576.91 1266.57,1574.66 1266.44,1573.22C1266.32,1571.77 1265.62,1570.78 1264.34,1570.25C1263.06,1569.71 1261.02,1569.4 1258.21,1569.32L1258.83,1566.84C1261.88,1566.92 1265.1,1566.99 1268.49,1567.03C1271.87,1567.07 1275.22,1567.11 1278.52,1567.15C1281.82,1567.19 1284.89,1567.21 1287.74,1567.21L1294.74,1567.21C1298.37,1567.21 1302.48,1567.19 1307.06,1567.15C1311.64,1567.11 1315.75,1567.01 1319.38,1566.84C1318.3,1569.73 1317.36,1572.54 1316.53,1575.26C1315.7,1577.98 1315.09,1580.05 1314.67,1581.45C1314.26,1582.94 1313.91,1584.36 1313.62,1585.72C1313.33,1587.09 1313.1,1588.22 1312.94,1589.13L1310.09,1589.13Z" style="fill:white;fill-rule:nonzero;"/>
                    <path d="M1355.28,1644.85C1355.61,1646.99 1356.13,1648.48 1356.83,1649.3C1357.53,1650.13 1358.42,1650.54 1359.49,1650.54C1360.73,1650.54 1362.01,1649.82 1363.33,1648.37C1364.65,1646.93 1366.14,1643.86 1367.79,1639.15L1369.4,1634.57L1371.75,1634.57L1368.66,1643.61C1367.5,1646.91 1366.16,1649.47 1364.63,1651.28C1363.11,1653.1 1361.5,1654.38 1359.8,1655.12C1358.11,1655.87 1356.36,1656.24 1354.54,1656.24C1351.98,1656.24 1349.75,1655.41 1347.86,1653.76C1345.96,1652.11 1344.76,1649.14 1344.26,1644.85L1339.31,1600.52C1338.98,1598.37 1338.47,1596.89 1337.76,1596.06C1337.06,1595.24 1336.17,1594.82 1335.1,1594.82C1334.28,1594.82 1333.43,1595.11 1332.56,1595.69C1331.7,1596.27 1330.81,1597.38 1329.9,1599.03C1328.99,1600.68 1327.96,1603.08 1326.81,1606.22L1325.2,1610.8L1322.84,1610.8L1325.94,1601.76C1327.18,1598.45 1328.54,1595.9 1330.03,1594.08C1331.51,1592.27 1333.12,1590.99 1334.85,1590.24C1336.59,1589.5 1338.32,1589.13 1340.06,1589.13C1342.94,1589.13 1345.26,1589.93 1346.99,1591.54C1348.72,1593.15 1349.84,1596.14 1350.33,1600.52L1355.28,1644.85ZM1365.68,1596.68C1363.13,1598.99 1360.9,1601.67 1359,1604.73C1357.1,1607.78 1355.49,1610.86 1354.17,1613.95C1352.85,1617.05 1351.74,1619.88 1350.83,1622.43L1348.35,1622.31C1348.93,1620.66 1349.59,1618.82 1350.33,1616.8C1351.07,1614.78 1351.98,1612.65 1353.06,1610.42C1354.13,1608.2 1355.43,1605.9 1356.96,1603.55C1358.48,1601.2 1360.24,1598.91 1362.22,1596.68C1364.61,1593.96 1366.76,1592.02 1368.66,1590.86C1370.56,1589.71 1372.54,1589.13 1374.6,1589.13C1376.17,1589.13 1377.47,1589.54 1378.5,1590.37C1379.53,1591.19 1380.05,1592.31 1380.05,1593.71C1380.05,1595.28 1379.45,1596.66 1378.25,1597.86C1377.06,1599.05 1375.47,1599.65 1373.49,1599.65C1371.67,1599.65 1370.1,1599.3 1368.78,1598.6C1367.46,1597.9 1366.43,1597.26 1365.68,1596.68ZM1325.44,1648.68C1329.32,1645.13 1332.75,1640.97 1335.72,1636.18C1338.69,1631.39 1340.96,1626.98 1342.53,1622.93L1344.64,1623.42C1343.81,1625.65 1342.76,1628.13 1341.48,1630.85C1340.2,1633.58 1338.57,1636.43 1336.59,1639.4C1334.61,1642.37 1332.17,1645.42 1329.28,1648.56C1326.81,1651.12 1324.58,1653.04 1322.6,1654.32C1320.62,1655.6 1318.68,1656.24 1316.78,1656.24C1314.96,1656.24 1313.58,1655.82 1312.63,1655C1311.68,1654.17 1311.2,1653.06 1311.2,1651.65C1311.2,1650.09 1311.82,1648.7 1313.06,1647.51C1314.3,1646.31 1315.83,1645.71 1317.64,1645.71C1319.54,1645.71 1321.11,1646.04 1322.35,1646.7C1323.59,1647.36 1324.62,1648.02 1325.44,1648.68Z" style="fill:white;fill-rule:nonzero;"/>
                    <path d="M1427.59,1593.09C1425.45,1593.09 1423.03,1594.6 1420.35,1597.61C1417.67,1600.62 1414.94,1604.71 1412.18,1609.87C1409.41,1615.03 1406.81,1620.83 1404.38,1627.26C1401.94,1633.7 1399.9,1640.39 1398.25,1647.32L1400.48,1633.95C1404.03,1623.14 1407.45,1614.45 1410.75,1607.89C1414.06,1601.32 1417.38,1596.56 1420.72,1593.59C1424.06,1590.61 1427.55,1589.13 1431.18,1589.13C1435.06,1589.13 1438.18,1590.57 1440.53,1593.46C1442.88,1596.35 1444.06,1600.73 1444.06,1606.59C1444.06,1610.3 1443.55,1614.39 1442.51,1618.84C1441.48,1623.3 1439.95,1627.72 1437.93,1632.09C1435.91,1636.47 1433.43,1640.49 1430.5,1644.16C1427.57,1647.84 1424.21,1650.77 1420.41,1652.95C1416.62,1655.14 1412.4,1656.24 1407.78,1656.24C1405.31,1656.24 1403.1,1655.49 1401.16,1654.01C1399.22,1652.52 1397.92,1650.38 1397.26,1647.57L1398.25,1645.09C1399.4,1648.15 1400.75,1650.29 1402.27,1651.53C1403.8,1652.77 1405.6,1653.39 1407.66,1653.39C1410.46,1653.39 1413.15,1652.3 1415.71,1650.11C1418.27,1647.92 1420.62,1645.01 1422.76,1641.38C1424.91,1637.75 1426.79,1633.72 1428.4,1629.31C1430.01,1624.89 1431.25,1620.47 1432.11,1616.06C1432.98,1611.64 1433.41,1607.58 1433.41,1603.86C1433.41,1600.23 1432.9,1597.53 1431.87,1595.75C1430.83,1593.98 1429.41,1593.09 1427.59,1593.09ZM1409.02,1571.92C1411,1571.84 1412.96,1571.67 1414.9,1571.42C1416.84,1571.17 1418.64,1570.76 1420.29,1570.18L1393.05,1665.4C1392.06,1668.87 1392.55,1671.22 1394.53,1672.46C1396.52,1673.69 1399.36,1674.31 1403.08,1674.31L1402.33,1676.91C1400.68,1676.83 1398.35,1676.73 1395.34,1676.6C1392.33,1676.48 1389.13,1676.42 1385.74,1676.42C1383.18,1676.42 1380.58,1676.48 1377.94,1676.6C1375.3,1676.73 1373.32,1676.83 1372,1676.91L1372.74,1674.31C1375.71,1674.31 1377.86,1673.76 1379.18,1672.64C1380.5,1671.53 1381.57,1669.53 1382.4,1666.64L1409.02,1571.92ZM1383.27,1610.3C1386.49,1607.16 1389.5,1604.05 1392.31,1600.95C1395.11,1597.86 1397.84,1594.16 1400.48,1589.87C1403.12,1585.58 1405.8,1580.17 1408.53,1573.65L1408.9,1575.63C1407.08,1581.25 1404.91,1586.18 1402.4,1590.43C1399.88,1594.68 1397.13,1598.52 1394.16,1601.94C1391.19,1605.37 1388.01,1608.69 1384.63,1611.91L1383.27,1610.3Z" style="fill:white;fill-rule:nonzero;"/>
                    <path d="M1461.39,1643.98C1460.74,1646.37 1460.53,1648.25 1460.78,1649.61C1461.02,1650.97 1461.93,1651.65 1463.5,1651.65C1465.15,1651.65 1466.7,1650.73 1468.14,1648.87C1469.59,1647.01 1471.13,1643.73 1472.79,1639.03L1474.4,1634.44L1476.75,1634.44L1473.65,1643.48C1472.58,1646.62 1471.28,1649.12 1469.75,1650.97C1468.23,1652.83 1466.55,1654.17 1464.74,1655C1462.92,1655.82 1460.94,1656.24 1458.8,1656.24C1456.07,1656.24 1454.07,1655.72 1452.79,1654.69C1451.51,1653.66 1450.73,1652.27 1450.44,1650.54C1450.15,1648.81 1450.19,1646.93 1450.56,1644.91C1450.93,1642.88 1451.41,1640.88 1451.99,1638.9L1472.17,1571.92C1472.99,1569.11 1472.91,1567.05 1471.92,1565.73C1470.93,1564.41 1468.41,1563.75 1464.37,1563.75L1465.23,1561.14C1469.77,1561.06 1473.78,1560.59 1477.24,1559.72C1480.71,1558.86 1484.05,1557.64 1487.27,1556.07L1461.39,1643.98Z" style="fill:white;fill-rule:nonzero;"/>
                    <path d="M1520.7,1591.6C1518.06,1591.6 1515.52,1592.66 1513.09,1594.76C1510.65,1596.87 1508.42,1599.71 1506.4,1603.31C1504.38,1606.9 1502.61,1610.92 1501.08,1615.38C1499.55,1619.83 1498.38,1624.46 1497.55,1629.25C1496.72,1634.03 1496.31,1638.61 1496.31,1642.99C1496.31,1646.7 1496.91,1649.43 1498.11,1651.16C1499.3,1652.89 1501.06,1653.76 1503.37,1653.76C1506.01,1653.76 1508.55,1652.71 1510.98,1650.6C1513.42,1648.5 1515.67,1645.65 1517.73,1642.06C1519.8,1638.47 1521.57,1634.44 1523.06,1629.99C1524.54,1625.53 1525.7,1620.93 1526.52,1616.18C1527.35,1611.44 1527.76,1606.83 1527.76,1602.38C1527.76,1598.58 1527.18,1595.84 1526.03,1594.14C1524.87,1592.45 1523.1,1591.6 1520.7,1591.6ZM1485.66,1636.8C1485.66,1633.16 1486.16,1629.2 1487.15,1624.91C1488.14,1620.62 1489.62,1616.37 1491.61,1612.16C1493.59,1607.95 1496,1604.11 1498.85,1600.64C1501.7,1597.18 1505.02,1594.39 1508.82,1592.29C1512.61,1590.18 1516.82,1589.13 1521.45,1589.13C1526.56,1589.13 1530.67,1590.72 1533.77,1593.89C1536.86,1597.07 1538.41,1601.96 1538.41,1608.57C1538.41,1612.2 1537.91,1616.16 1536.92,1620.45C1535.93,1624.75 1534.45,1629 1532.47,1633.21C1530.49,1637.42 1528.07,1641.26 1525.22,1644.72C1522.38,1648.19 1519.05,1650.97 1515.26,1653.08C1511.46,1655.18 1507.25,1656.24 1502.63,1656.24C1497.51,1656.24 1493.4,1654.63 1490.31,1651.41C1487.21,1648.19 1485.66,1643.32 1485.66,1636.8Z" style="fill:white;fill-rule:nonzero;"/>
                    <path d="M1558.47,1654.5L1547.69,1654.5L1562.55,1601.39C1563.38,1598.58 1563.65,1596.6 1563.36,1595.44C1563.07,1594.29 1562.22,1593.71 1560.82,1593.71C1559,1593.71 1557.35,1594.66 1555.87,1596.56C1554.38,1598.45 1552.81,1601.72 1551.16,1606.34L1549.55,1610.92L1547.2,1610.92L1550.3,1601.88C1551.53,1598.41 1553,1595.77 1554.69,1593.96C1556.38,1592.14 1558.16,1590.88 1560.02,1590.18C1561.87,1589.48 1563.63,1589.13 1565.28,1589.13C1567.75,1589.13 1569.51,1589.66 1570.54,1590.74C1571.57,1591.81 1572.15,1593.21 1572.27,1594.95C1572.4,1596.68 1572.27,1598.56 1571.9,1600.58C1571.53,1602.6 1571.1,1604.56 1570.6,1606.46L1558.47,1654.5ZM1590.29,1592.22C1588.39,1592.22 1586.43,1593.11 1584.41,1594.88C1582.38,1596.66 1580.32,1599.22 1578.22,1602.56C1576.11,1605.9 1574.01,1609.91 1571.9,1614.57C1569.8,1619.24 1567.73,1624.42 1565.71,1630.11C1563.69,1635.81 1561.73,1641.96 1559.83,1648.56L1562.92,1632.71C1565.65,1624.62 1568.19,1617.81 1570.54,1612.28C1572.89,1606.75 1575.22,1602.27 1577.54,1598.85C1579.85,1595.42 1582.22,1592.95 1584.65,1591.42C1587.09,1589.89 1589.67,1589.13 1592.39,1589.13C1594.7,1589.13 1596.5,1589.79 1597.78,1591.11C1599.06,1592.43 1599.7,1594.12 1599.7,1596.18C1599.7,1597.84 1599.29,1599.34 1598.46,1600.7C1597.63,1602.07 1596.58,1603.14 1595.3,1603.92C1594.02,1604.71 1592.6,1605.1 1591.03,1605.1C1589.63,1605.1 1588.45,1604.71 1587.5,1603.92C1586.55,1603.14 1586.08,1602.05 1586.08,1600.64C1586.08,1599.32 1586.33,1598.15 1586.82,1597.11C1587.32,1596.08 1587.98,1595.19 1588.8,1594.45C1589.63,1593.71 1590.58,1593.13 1591.65,1592.72C1591.49,1592.55 1591.3,1592.43 1591.09,1592.35C1590.89,1592.27 1590.62,1592.22 1590.29,1592.22Z" style="fill:white;fill-rule:nonzero;"/>
                    <path d="M1604.16,1626.4C1608.78,1624.83 1612.97,1623.28 1616.72,1621.75C1620.48,1620.23 1623.47,1618.6 1625.7,1616.86C1628.67,1614.47 1631.02,1611.58 1632.76,1608.2C1634.49,1604.81 1635.36,1601.1 1635.36,1597.05C1635.36,1594.66 1635.19,1593.13 1634.86,1592.47C1634.53,1591.81 1634.04,1591.48 1633.38,1591.48C1631.31,1591.48 1629.08,1592.39 1626.69,1594.2C1624.3,1596.02 1621.94,1598.52 1619.63,1601.69C1617.32,1604.87 1615.2,1608.49 1613.26,1612.53C1611.32,1616.57 1609.77,1620.89 1608.61,1625.47C1607.46,1630.05 1606.88,1634.61 1606.88,1639.15C1606.88,1643.36 1607.66,1646.39 1609.23,1648.25C1610.8,1650.11 1612.86,1651.04 1615.42,1651.04C1618.39,1651.04 1621.53,1650.13 1624.83,1648.31C1628.13,1646.5 1631.35,1643.28 1634.49,1638.65L1636.47,1639.64C1634.9,1642.37 1632.84,1645.01 1630.28,1647.57C1627.72,1650.13 1624.85,1652.21 1621.68,1653.82C1618.5,1655.43 1615.13,1656.24 1611.59,1656.24C1608.28,1656.24 1605.39,1655.58 1602.92,1654.26C1600.44,1652.93 1598.54,1650.97 1597.22,1648.37C1595.9,1645.77 1595.24,1642.58 1595.24,1638.78C1595.24,1635.23 1595.9,1631.25 1597.22,1626.83C1598.54,1622.41 1600.42,1618 1602.86,1613.58C1605.29,1609.17 1608.2,1605.1 1611.59,1601.39C1614.97,1597.67 1618.73,1594.7 1622.85,1592.47C1626.98,1590.24 1631.4,1589.13 1636.1,1589.13C1638.66,1589.13 1640.83,1589.81 1642.6,1591.17C1644.38,1592.53 1645.26,1594.58 1645.26,1597.3C1645.26,1600.6 1644.29,1603.68 1642.35,1606.52C1640.41,1609.37 1637.86,1611.97 1634.68,1614.33C1631.5,1616.68 1628.05,1618.76 1624.34,1620.58C1620.62,1622.39 1616.99,1623.96 1613.44,1625.28C1609.89,1626.6 1606.76,1627.68 1604.03,1628.5L1604.16,1626.4Z" style="fill:white;fill-rule:nonzero;"/>
                    <path d="M1661.86,1654.5L1651.08,1654.5L1665.94,1601.39C1666.77,1598.58 1667.03,1596.6 1666.75,1595.44C1666.46,1594.29 1665.61,1593.71 1664.21,1593.71C1662.39,1593.71 1660.74,1594.66 1659.25,1596.56C1657.77,1598.45 1656.2,1601.72 1654.55,1606.34L1652.94,1610.92L1650.59,1610.92L1653.68,1601.88C1654.92,1598.41 1656.39,1595.77 1658.08,1593.96C1659.77,1592.14 1661.55,1590.88 1663.4,1590.18C1665.26,1589.48 1667.01,1589.13 1668.66,1589.13C1671.14,1589.13 1672.89,1589.66 1673.93,1590.74C1674.96,1591.81 1675.54,1593.21 1675.66,1594.95C1675.78,1596.68 1675.66,1598.56 1675.29,1600.58C1674.92,1602.6 1674.48,1604.56 1673.99,1606.46L1661.86,1654.5ZM1693.67,1592.22C1691.78,1592.22 1689.82,1593.11 1687.79,1594.88C1685.77,1596.66 1683.71,1599.22 1681.6,1602.56C1679.5,1605.9 1677.39,1609.91 1675.29,1614.57C1673.18,1619.24 1671.12,1624.42 1669.1,1630.11C1667.08,1635.81 1665.12,1641.96 1663.22,1648.56L1666.31,1632.71C1669.04,1624.62 1671.57,1617.81 1673.93,1612.28C1676.28,1606.75 1678.61,1602.27 1680.92,1598.85C1683.23,1595.42 1685.61,1592.95 1688.04,1591.42C1690.48,1589.89 1693.06,1589.13 1695.78,1589.13C1698.09,1589.13 1699.89,1589.79 1701.17,1591.11C1702.45,1592.43 1703.09,1594.12 1703.09,1596.18C1703.09,1597.84 1702.67,1599.34 1701.85,1600.7C1701.02,1602.07 1699.97,1603.14 1698.69,1603.92C1697.41,1604.71 1695.99,1605.1 1694.42,1605.1C1693.02,1605.1 1691.84,1604.71 1690.89,1603.92C1689.94,1603.14 1689.47,1602.05 1689.47,1600.64C1689.47,1599.32 1689.71,1598.15 1690.21,1597.11C1690.7,1596.08 1691.36,1595.19 1692.19,1594.45C1693.02,1593.71 1693.96,1593.13 1695.04,1592.72C1694.87,1592.55 1694.69,1592.43 1694.48,1592.35C1694.27,1592.27 1694.01,1592.22 1693.67,1592.22Z" style="fill:white;fill-rule:nonzero;"/>
                    <path d="M1743.57,1643.98C1742.91,1646.37 1742.71,1648.25 1742.95,1649.61C1743.2,1650.97 1744.11,1651.65 1745.68,1651.65C1747.33,1651.65 1748.88,1650.73 1750.32,1648.87C1751.77,1647.01 1753.31,1643.73 1754.97,1639.03L1756.57,1634.44L1758.93,1634.44L1755.83,1643.48C1754.76,1646.62 1753.46,1649.12 1751.93,1650.97C1750.4,1652.83 1748.73,1654.17 1746.92,1655C1745.1,1655.82 1743.12,1656.24 1740.97,1656.24C1738.25,1656.24 1736.25,1655.72 1734.97,1654.69C1733.69,1653.66 1732.9,1652.27 1732.62,1650.54C1732.33,1648.81 1732.37,1646.93 1732.74,1644.91C1733.11,1642.88 1733.59,1640.88 1734.16,1638.9L1754.35,1571.92C1755.17,1569.11 1755.09,1567.05 1754.1,1565.73C1753.11,1564.41 1750.59,1563.75 1746.55,1563.75L1747.41,1561.14C1751.95,1561.06 1755.95,1560.59 1759.42,1559.72C1762.89,1558.86 1766.23,1557.64 1769.45,1556.07L1743.57,1643.98Z" style="fill:white;fill-rule:nonzero;"/>
                    <path d="M1775.64,1626.4C1780.27,1624.83 1784.45,1623.28 1788.21,1621.75C1791.97,1620.23 1794.96,1618.6 1797.19,1616.86C1800.16,1614.47 1802.51,1611.58 1804.24,1608.2C1805.98,1604.81 1806.84,1601.1 1806.84,1597.05C1806.84,1594.66 1806.68,1593.13 1806.35,1592.47C1806.02,1591.81 1805.52,1591.48 1804.86,1591.48C1802.8,1591.48 1800.57,1592.39 1798.18,1594.2C1795.78,1596.02 1793.43,1598.52 1791.12,1601.69C1788.81,1604.87 1786.68,1608.49 1784.74,1612.53C1782.8,1616.57 1781.26,1620.89 1780.1,1625.47C1778.94,1630.05 1778.37,1634.61 1778.37,1639.15C1778.37,1643.36 1779.15,1646.39 1780.72,1648.25C1782.29,1650.11 1784.35,1651.04 1786.91,1651.04C1789.88,1651.04 1793.02,1650.13 1796.32,1648.31C1799.62,1646.5 1802.84,1643.28 1805.98,1638.65L1807.96,1639.64C1806.39,1642.37 1804.33,1645.01 1801.77,1647.57C1799.21,1650.13 1796.34,1652.21 1793.16,1653.82C1789.98,1655.43 1786.62,1656.24 1783.07,1656.24C1779.77,1656.24 1776.88,1655.58 1774.4,1654.26C1771.93,1652.93 1770.03,1650.97 1768.71,1648.37C1767.39,1645.77 1766.73,1642.58 1766.73,1638.78C1766.73,1635.23 1767.39,1631.25 1768.71,1626.83C1770.03,1622.41 1771.91,1618 1774.34,1613.58C1776.78,1609.17 1779.69,1605.1 1783.07,1601.39C1786.46,1597.67 1790.21,1594.7 1794.34,1592.47C1798.47,1590.24 1802.88,1589.13 1807.59,1589.13C1810.15,1589.13 1812.31,1589.81 1814.09,1591.17C1815.86,1592.53 1816.75,1594.58 1816.75,1597.3C1816.75,1600.6 1815.78,1603.68 1813.84,1606.52C1811.9,1609.37 1809.34,1611.97 1806.16,1614.33C1802.99,1616.68 1799.54,1618.76 1795.82,1620.58C1792.11,1622.39 1788.48,1623.96 1784.93,1625.28C1781.38,1626.6 1778.24,1627.68 1775.52,1628.5L1775.64,1626.4Z" style="fill:white;fill-rule:nonzero;"/>
                    <path d="M1825.66,1652.65C1826.33,1652.98 1827.05,1653.24 1827.83,1653.45C1828.62,1653.66 1829.79,1653.76 1831.36,1653.76C1834.99,1653.76 1837.98,1652.67 1840.34,1650.48C1842.69,1648.29 1843.87,1645.13 1843.87,1641.01C1843.87,1638.45 1843.39,1635.91 1842.44,1633.39C1841.49,1630.88 1839.82,1627.97 1837.43,1624.66C1835.53,1622.02 1833.71,1619.32 1831.98,1616.55C1830.25,1613.79 1829.38,1610.51 1829.38,1606.71C1829.38,1603.16 1830.25,1600.09 1831.98,1597.49C1833.71,1594.88 1836.04,1592.84 1838.98,1591.36C1841.9,1589.87 1845.1,1589.13 1848.57,1589.13C1850.96,1589.13 1853.32,1589.42 1855.63,1590C1857.94,1590.57 1859.86,1591.62 1861.38,1593.15C1862.91,1594.68 1863.68,1596.93 1863.68,1599.9C1863.68,1600.64 1863.49,1601.53 1863.12,1602.56C1862.75,1603.59 1862.15,1604.48 1861.32,1605.22C1860.5,1605.97 1859.38,1606.34 1857.98,1606.34C1856.66,1606.34 1855.5,1605.86 1854.51,1604.91C1853.52,1603.97 1853.03,1602.71 1853.03,1601.14C1853.03,1599.65 1853.34,1598.23 1853.96,1596.87C1854.58,1595.5 1855.42,1594.16 1856.5,1592.84C1854.93,1591.85 1852.86,1591.36 1850.3,1591.36C1847.25,1591.36 1844.69,1592.39 1842.63,1594.45C1840.56,1596.52 1839.53,1599.4 1839.53,1603.12C1839.53,1605.02 1839.82,1606.69 1840.4,1608.13C1840.98,1609.58 1841.82,1611.09 1842.94,1612.65C1844.05,1614.22 1845.39,1616.2 1846.96,1618.6C1849.02,1621.73 1850.76,1624.75 1852.16,1627.63C1853.56,1630.52 1854.27,1633.58 1854.27,1636.8C1854.27,1640.59 1853.3,1643.96 1851.36,1646.89C1849.42,1649.82 1846.84,1652.11 1843.62,1653.76C1840.4,1655.41 1836.85,1656.24 1832.97,1656.24C1830.16,1656.24 1827.48,1655.82 1824.92,1655C1822.36,1654.17 1820.28,1652.87 1818.67,1651.1C1817.06,1649.32 1816.25,1646.95 1816.25,1643.98C1816.25,1642.82 1816.61,1641.61 1817.31,1640.33C1818.01,1639.05 1819.27,1638.41 1821.08,1638.41C1823.06,1638.41 1824.47,1639.21 1825.29,1640.82C1826.12,1642.43 1826.53,1644.23 1826.53,1646.21C1826.53,1647.53 1826.43,1648.7 1826.22,1649.74C1826.02,1650.77 1825.83,1651.74 1825.66,1652.65Z" style="fill:white;fill-rule:nonzero;"/>
                </g>
                <g transform="matrix(-2.12161,0.368154,-0.3417,-2.01094,7269.78,4599.19)">
                    <path d="M1910.87,2085.04C1739.98,2116.79 1548.72,2108.8 1431.91,1992.21C1322.95,1883.47 1476.69,1762.5 1574.41,1729.21C1647.42,1704.34 1725.48,1694.57 1802.35,1696.12C1939.91,1698.88 2207.43,1715.29 2323.24,1802.21C2518.87,1949.05 2423.35,2136.88 2192.37,2154.42C2074.94,2163.34 1961.51,2128.58 1844.93,2131.75" style="fill:none;stroke:white;stroke-width:4.57px;"/>
                </g>
            </g>
        </g>
    </g>
</svg>
