<?xml version="1.0" encoding="UTF-8" standalone="no"?>
<!DOCTYPE svg PUBLIC "-//W3C//DTD SVG 1.1//EN" "http://www.w3.org/Graphics/SVG/1.1/DTD/svg11.dtd">
<svg width="100%" height="100%" viewBox="0 0 4000 2800" version="1.1" xmlns="http://www.w3.org/2000/svg" xmlns:xlink="http://www.w3.org/1999/xlink" xml:space="preserve" xmlns:serif="http://www.serif.com/" style="fill-rule:evenodd;clip-rule:evenodd;stroke-linejoin:round;stroke-miterlimit:2;">
    <g transform="matrix(1,0,0,1,-17.7452,-3168.31)">
        <g id="Plan-de-travail16" serif:id="Plan de travail16" transform="matrix(1.01561,0,0,1.00501,-685.069,3137.77)">
            <rect x="692.012" y="30.389" width="3938.52" height="2786.05" style="fill:none;"/>
            <clipPath id="_clip1">
                <rect x="692.012" y="30.389" width="3938.52" height="2786.05"/>
            </clipPath>
            <g clip-path="url(#_clip1)">
                <g transform="matrix(2.26815,0,0,2.36849,-1187.79,-1514.43)">
                    <rect x="828.782" y="652.241" width="1736.44" height="1176.3" style="fill:rgb(11,5,30);"/>
                </g>
                <g transform="matrix(1.7517,0,0,1.77018,-1062.92,297.079)">
                    <path d="M1564.73,689.683L1493.24,497.349L1476.25,495.005L1476.25,476.402L1543.63,476.402L1543.63,495.005L1524.15,498.081L1571.9,633.726L1576.88,650.572L1577.76,650.572L1583.04,633.726L1632.55,497.935L1610.87,495.005L1610.87,476.402L1678.1,476.402L1678.1,495.005L1660.97,497.349L1589.48,689.683L1564.73,689.683Z" style="fill:white;fill-rule:nonzero;"/>
                    <path d="M1701.39,689.683L1701.39,671.226L1725.27,667.124L1725.27,499.107L1701.39,495.005L1701.39,476.402L1763.8,476.402L1832.5,638.267L1833.38,638.267L1899.88,476.402L1964.19,476.402L1964.19,495.005L1940.31,499.107L1940.31,667.124L1964.19,671.226L1964.19,689.683L1887.58,689.683L1887.58,671.226L1912.77,667.124L1912.77,515.806L1912.04,515.659L1842.75,682.066L1823.56,682.066L1751.93,515.952L1751.2,516.099L1752.23,605.308L1752.23,667.124L1778.01,671.226L1778.01,689.683L1701.39,689.683Z" style="fill:white;fill-rule:nonzero;"/>
                    <path d="M1989.82,689.683L1989.82,671.226L2013.7,667.124L2013.7,499.107L1989.82,495.005L1989.82,476.548L2084.89,476.548C2100.42,476.548 2113.53,478.867 2124.22,483.506C2134.91,488.145 2143.05,494.859 2148.61,503.648C2154.18,512.437 2156.96,523.179 2156.96,535.874C2156.96,548.374 2154.25,558.872 2148.83,567.368C2143.41,575.865 2135.72,582.285 2125.76,586.631C2115.8,590.977 2103.98,593.296 2090.31,593.589L2042.56,594.468L2042.56,667.124L2066.43,671.226L2066.43,689.683L1989.82,689.683ZM2130.59,689.683L2083.13,583.189L2111.99,582.896L2151.39,668.15L2166.19,670.786L2166.19,689.683L2130.59,689.683ZM2042.56,571.763L2081.96,571.763C2098.07,571.763 2109.79,568.687 2117.12,562.534C2124.44,556.382 2128.1,547.398 2128.1,535.581C2128.1,524.351 2124.59,515.464 2117.56,508.921C2110.53,502.378 2099.64,499.107 2084.89,499.107L2042.56,499.107L2042.56,571.763Z" style="fill:white;fill-rule:nonzero;"/>
                    <path d="M2192.7,689.683L2192.7,671.226L2216.58,667.124L2216.58,499.107L2192.7,495.005L2192.7,476.548L2287.77,476.548C2303.3,476.548 2316.41,478.867 2327.1,483.506C2337.8,488.145 2345.93,494.859 2351.49,503.648C2357.06,512.437 2359.84,523.179 2359.84,535.874C2359.84,548.374 2357.13,558.872 2351.71,567.368C2346.29,575.865 2338.6,582.285 2328.64,586.631C2318.68,590.977 2306.86,593.296 2293.19,593.589L2245.44,594.468L2245.44,667.124L2269.32,671.226L2269.32,689.683L2192.7,689.683ZM2333.47,689.683L2286.01,583.189L2314.87,582.896L2354.28,668.15L2369.07,670.786L2369.07,689.683L2333.47,689.683ZM2245.44,571.763L2284.84,571.763C2300.95,571.763 2312.67,568.687 2320,562.534C2327.32,556.382 2330.99,547.398 2330.99,535.581C2330.99,524.351 2327.47,515.464 2320.44,508.921C2313.41,502.378 2302.52,499.107 2287.77,499.107L2245.44,499.107L2245.44,571.763Z" style="fill:white;fill-rule:nonzero;"/>
                </g>
                <g transform="matrix(1.76144,0,0,1.78003,964.391,-1697.31)">
                    <path d="M1253.78,1654.5L1247.43,1596.78L1254.02,1596.78L1257.89,1634.33C1258.05,1635.75 1258.19,1637.19 1258.3,1638.65C1258.42,1640.11 1258.51,1641.54 1258.56,1642.94C1258.61,1644.33 1258.63,1645.65 1258.6,1646.88L1258.76,1646.88C1259.28,1645.65 1259.86,1644.37 1260.48,1643.05C1261.09,1641.74 1261.77,1640.36 1262.49,1638.91C1263.21,1637.46 1264,1635.92 1264.84,1634.29L1284.26,1596.78L1291.64,1596.78L1260.85,1654.5L1253.78,1654.5Z" style="fill:white;fill-rule:nonzero;"/>
                    <path d="M1286.63,1654.5L1295.83,1611.23L1302.42,1611.23L1293.22,1654.5L1286.63,1654.5ZM1301.36,1603.65C1300.3,1603.65 1299.43,1603.34 1298.73,1602.73C1298.03,1602.11 1297.68,1601.23 1297.68,1600.1C1297.68,1599.23 1297.86,1598.42 1298.22,1597.65C1298.57,1596.89 1299.09,1596.28 1299.76,1595.82C1300.43,1595.36 1301.25,1595.13 1302.23,1595.13C1303.38,1595.13 1304.25,1595.43 1304.83,1596.03C1305.41,1596.64 1305.7,1597.48 1305.7,1598.56C1305.7,1600.11 1305.25,1601.35 1304.36,1602.27C1303.46,1603.19 1302.46,1603.65 1301.36,1603.65Z" style="fill:white;fill-rule:nonzero;"/>
                    <path d="M1307.04,1654.5L1316.24,1611.23L1321.61,1611.23L1320.58,1619.6L1320.98,1619.6C1322.08,1618.1 1323.27,1616.65 1324.53,1615.24C1325.8,1613.83 1327.24,1612.68 1328.85,1611.79C1330.47,1610.89 1332.34,1610.44 1334.44,1610.44C1335.23,1610.44 1336.03,1610.49 1336.85,1610.58C1337.66,1610.67 1338.43,1610.83 1339.14,1611.04L1337.72,1616.92C1337.01,1616.76 1336.32,1616.64 1335.64,1616.56C1334.97,1616.48 1334.28,1616.44 1333.57,1616.44C1331.57,1616.44 1329.72,1616.97 1328.01,1618C1326.3,1619.04 1324.76,1620.43 1323.41,1622.17C1322.05,1623.91 1320.91,1625.84 1319.97,1627.97C1319.04,1630.11 1318.33,1632.28 1317.86,1634.49L1313.63,1654.5L1307.04,1654.5Z" style="fill:white;fill-rule:nonzero;"/>
                    <path d="M1351.3,1655.29C1348.43,1655.29 1346.04,1654.6 1344.13,1653.22C1342.23,1651.84 1341.27,1649.46 1341.27,1646.09C1341.27,1645.28 1341.32,1644.39 1341.43,1643.43C1341.53,1642.47 1341.7,1641.48 1341.94,1640.45L1347.04,1616.25L1340.36,1616.25L1340.99,1613.21L1348.18,1610.44L1352.92,1601.29L1356.83,1601.29L1354.65,1611.23L1365.79,1611.23L1364.76,1616.25L1353.67,1616.25L1348.54,1640.53C1348.35,1641.26 1348.19,1642.05 1348.04,1642.9C1347.9,1643.74 1347.82,1644.54 1347.82,1645.3C1347.82,1646.62 1348.17,1647.72 1348.85,1648.6C1349.54,1649.48 1350.68,1649.92 1352.29,1649.92C1353.29,1649.92 1354.24,1649.83 1355.15,1649.65C1356.06,1649.46 1357.02,1649.2 1358.05,1648.86L1358.05,1653.91C1357.39,1654.23 1356.4,1654.54 1355.07,1654.84C1353.74,1655.14 1352.48,1655.29 1351.3,1655.29Z" style="fill:white;fill-rule:nonzero;"/>
                    <path d="M1378.62,1655.29C1376.43,1655.29 1374.53,1654.88 1372.89,1654.07C1371.26,1653.25 1370.01,1652.05 1369.12,1650.46C1368.24,1648.86 1367.8,1646.91 1367.8,1644.59C1367.8,1643.44 1367.89,1642.31 1368.06,1641.22C1368.23,1640.13 1368.42,1638.99 1368.63,1637.8L1374.36,1611.23L1380.99,1611.23L1375.11,1638.55C1374.89,1639.68 1374.73,1640.69 1374.61,1641.57C1374.49,1642.45 1374.43,1643.24 1374.43,1643.92C1374.43,1645.79 1374.91,1647.25 1375.88,1648.29C1376.84,1649.33 1378.37,1649.85 1380.47,1649.85C1382.45,1649.85 1384.52,1649.17 1386.69,1647.83C1388.86,1646.49 1390.88,1644.38 1392.73,1641.5C1394.59,1638.61 1396,1634.87 1396.98,1630.26L1401,1611.23L1407.48,1611.23L1398.32,1654.5L1392.91,1654.5L1393.98,1646.13L1393.62,1646.13C1392.62,1647.5 1391.41,1648.89 1389.99,1650.3C1388.57,1651.71 1386.92,1652.89 1385.05,1653.85C1383.18,1654.81 1381.04,1655.29 1378.62,1655.29Z" style="fill:white;fill-rule:nonzero;"/>
                    <path d="M1425.56,1655.29C1423.22,1655.29 1421.16,1654.73 1419.4,1653.6C1417.64,1652.46 1416.27,1650.79 1415.3,1648.58C1414.32,1646.37 1413.83,1643.67 1413.83,1640.49C1413.83,1637.3 1414.17,1634.24 1414.84,1631.29C1415.51,1628.34 1416.47,1625.6 1417.7,1623.08C1418.94,1620.55 1420.43,1618.34 1422.18,1616.44C1423.93,1614.55 1425.9,1613.08 1428.09,1612.02C1430.27,1610.97 1432.63,1610.44 1435.15,1610.44C1437.1,1610.44 1438.79,1610.81 1440.23,1611.55C1441.66,1612.29 1442.86,1613.25 1443.82,1614.45C1444.78,1615.65 1445.54,1616.92 1446.09,1618.26L1446.48,1618.26L1449.01,1611.23L1454.03,1611.23L1444.87,1654.5L1439.62,1654.5L1440.8,1646.13L1440.48,1646.13C1439.3,1647.71 1437.94,1649.2 1436.42,1650.6C1434.89,1651.99 1433.22,1653.12 1431.4,1653.99C1429.59,1654.86 1427.64,1655.29 1425.56,1655.29ZM1427.69,1649.85C1429.72,1649.85 1431.73,1649.1 1433.71,1647.61C1435.7,1646.13 1437.49,1644.11 1439.08,1641.57C1440.67,1639.03 1441.89,1636.17 1442.73,1632.99C1443.15,1631.43 1443.44,1630.01 1443.58,1628.7C1443.73,1627.4 1443.8,1626.18 1443.8,1625.05C1443.8,1622.34 1443.08,1620.15 1441.65,1618.48C1440.21,1616.81 1438.26,1615.97 1435.79,1615.97C1434.02,1615.97 1432.36,1616.41 1430.81,1617.29C1429.26,1618.17 1427.86,1619.4 1426.61,1620.97C1425.36,1622.53 1424.28,1624.35 1423.39,1626.41C1422.49,1628.48 1421.8,1630.72 1421.32,1633.14C1420.83,1635.57 1420.59,1638.05 1420.59,1640.61C1420.59,1643.63 1421.2,1645.93 1422.44,1647.5C1423.68,1649.06 1425.43,1649.85 1427.69,1649.85Z" style="fill:white;fill-rule:nonzero;"/>
                    <path d="M1457.85,1654.5L1470.96,1593.07L1477.52,1593.07L1464.45,1654.5L1457.85,1654.5Z" style="fill:white;fill-rule:nonzero;"/>
                    <path d="M1243.2,1735.36L1255.4,1677.64L1264.84,1677.64L1270.84,1725.53L1271.15,1725.53L1297.53,1677.64L1307.75,1677.64L1295.75,1735.36L1289.04,1735.36L1296.62,1699.51C1297.09,1697.35 1297.55,1695.33 1298,1693.43C1298.45,1691.54 1298.86,1689.81 1299.24,1688.24C1299.63,1686.67 1299.98,1685.34 1300.29,1684.23L1300.13,1684.23L1271.71,1735.36L1266.46,1735.36L1259.9,1684.27L1259.59,1684.27C1259.48,1685.35 1259.3,1686.73 1259.05,1688.4C1258.8,1690.07 1258.52,1691.84 1258.19,1693.73C1257.86,1695.61 1257.51,1697.42 1257.14,1699.15L1249.52,1735.36L1243.2,1735.36Z" style="fill:white;fill-rule:nonzero;"/>
                    <path d="M1322.83,1736.15C1320.65,1736.15 1318.74,1735.74 1317.11,1734.92C1315.48,1734.11 1314.22,1732.9 1313.34,1731.31C1312.46,1729.72 1312.02,1727.76 1312.02,1725.45C1312.02,1724.29 1312.1,1723.16 1312.27,1722.07C1312.44,1720.98 1312.63,1719.84 1312.85,1718.66L1318.57,1692.09L1325.2,1692.09L1319.32,1719.41C1319.11,1720.54 1318.94,1721.55 1318.83,1722.43C1318.71,1723.31 1318.65,1724.09 1318.65,1724.78C1318.65,1726.65 1319.13,1728.1 1320.09,1729.14C1321.05,1730.18 1322.58,1730.7 1324.69,1730.7C1326.66,1730.7 1328.74,1730.03 1330.91,1728.69C1333.08,1727.34 1335.09,1725.23 1336.95,1722.35C1338.8,1719.47 1340.22,1715.72 1341.19,1711.12L1345.22,1692.09L1351.69,1692.09L1342.53,1735.36L1337.12,1735.36L1338.19,1726.99L1337.84,1726.99C1336.84,1728.36 1335.62,1729.75 1334.2,1731.15C1332.78,1732.56 1331.14,1733.75 1329.27,1734.71C1327.4,1735.67 1325.26,1736.15 1322.83,1736.15Z" style="fill:white;fill-rule:nonzero;"/>
                    <path d="M1366.74,1736.15C1364.1,1736.15 1361.79,1735.88 1359.81,1735.36C1357.82,1734.83 1356.09,1734.17 1354.62,1733.38L1354.62,1727.3C1356.01,1728.15 1357.78,1728.94 1359.92,1729.67C1362.07,1730.41 1364.27,1730.78 1366.54,1730.78C1368.78,1730.78 1370.64,1730.48 1372.12,1729.87C1373.61,1729.27 1374.73,1728.43 1375.48,1727.36C1376.23,1726.3 1376.61,1725.05 1376.61,1723.63C1376.61,1722.5 1376.36,1721.52 1375.88,1720.69C1375.39,1719.86 1374.6,1719.05 1373.51,1718.26C1372.41,1717.47 1370.96,1716.57 1369.14,1715.54C1367.12,1714.41 1365.41,1713.26 1364.01,1712.1C1362.62,1710.95 1361.56,1709.68 1360.83,1708.29C1360.11,1706.91 1359.75,1705.3 1359.75,1703.46C1359.75,1700.98 1360.35,1698.84 1361.56,1697.02C1362.77,1695.21 1364.48,1693.8 1366.68,1692.8C1368.87,1691.8 1371.45,1691.3 1374.39,1691.3C1377,1691.3 1379.41,1691.59 1381.62,1692.19C1383.83,1692.78 1385.74,1693.46 1387.34,1694.22L1385.21,1699.47C1383.84,1698.81 1382.28,1698.21 1380.51,1697.65C1378.75,1697.1 1376.71,1696.83 1374.39,1696.83C1371.92,1696.83 1369.95,1697.39 1368.49,1698.52C1367.03,1699.65 1366.3,1701.18 1366.3,1703.1C1366.3,1704.1 1366.52,1705 1366.95,1705.79C1367.39,1706.58 1368.14,1707.36 1369.22,1708.14C1370.3,1708.91 1371.78,1709.81 1373.64,1710.84C1375.46,1711.89 1377.1,1712.97 1378.56,1714.06C1380.02,1715.15 1381.18,1716.4 1382.03,1717.81C1382.89,1719.22 1383.32,1720.95 1383.32,1723C1383.32,1725.82 1382.64,1728.2 1381.3,1730.17C1379.96,1732.13 1378.05,1733.61 1375.56,1734.63C1373.07,1735.64 1370.13,1736.15 1366.74,1736.15Z" style="fill:white;fill-rule:nonzero;"/>
                    <path d="M1408.62,1736.15C1405.39,1736.15 1402.6,1735.5 1400.25,1734.19C1397.91,1732.89 1396.11,1731.02 1394.86,1728.59C1393.61,1726.15 1392.99,1723.24 1392.99,1719.84C1392.99,1716.34 1393.5,1712.9 1394.51,1709.52C1395.52,1706.14 1396.98,1703.07 1398.87,1700.32C1400.77,1697.57 1403.05,1695.38 1405.72,1693.75C1408.39,1692.11 1411.39,1691.3 1414.7,1691.3C1418.68,1691.3 1421.69,1692.19 1423.74,1693.96C1425.8,1695.74 1426.82,1698.18 1426.82,1701.29C1426.82,1703.47 1426.32,1705.49 1425.3,1707.33C1424.29,1709.17 1422.74,1710.77 1420.64,1712.12C1418.55,1713.48 1415.91,1714.53 1412.71,1715.28C1409.51,1716.03 1405.73,1716.41 1401.36,1716.41L1399.86,1716.41C1399.81,1716.88 1399.76,1717.41 1399.72,1717.99C1399.68,1718.57 1399.66,1719.11 1399.66,1719.61C1399.66,1723.08 1400.5,1725.8 1402.19,1727.76C1403.87,1729.72 1406.4,1730.7 1409.77,1730.7C1411.85,1730.7 1413.82,1730.4 1415.67,1729.81C1417.53,1729.22 1419.47,1728.43 1421.49,1727.46L1421.49,1733.11C1419.55,1734 1417.59,1734.73 1415.61,1735.3C1413.64,1735.86 1411.31,1736.15 1408.62,1736.15ZM1400.81,1711.04L1401.75,1711.04C1405.12,1711.04 1408.21,1710.74 1411.03,1710.15C1413.85,1709.56 1416.11,1708.58 1417.82,1707.23C1419.53,1705.87 1420.39,1704.06 1420.39,1701.8C1420.39,1700.33 1419.89,1699.12 1418.89,1698.17C1417.89,1697.22 1416.36,1696.75 1414.31,1696.75C1412.49,1696.75 1410.7,1697.31 1408.94,1698.42C1407.17,1699.54 1405.58,1701.17 1404.14,1703.3C1402.71,1705.43 1401.6,1708.01 1400.81,1711.04Z" style="fill:white;fill-rule:nonzero;"/>
                    <path d="M1444.55,1736.15C1442.37,1736.15 1440.46,1735.74 1438.83,1734.92C1437.19,1734.11 1435.94,1732.9 1435.06,1731.31C1434.17,1729.72 1433.73,1727.76 1433.73,1725.45C1433.73,1724.29 1433.82,1723.16 1433.99,1722.07C1434.16,1720.98 1434.35,1719.84 1434.56,1718.66L1440.29,1692.09L1446.92,1692.09L1441.04,1719.41C1440.83,1720.54 1440.66,1721.55 1440.54,1722.43C1440.42,1723.31 1440.37,1724.09 1440.37,1724.78C1440.37,1726.65 1440.85,1728.1 1441.81,1729.14C1442.77,1730.18 1444.3,1730.7 1446.4,1730.7C1448.38,1730.7 1450.45,1730.03 1452.62,1728.69C1454.79,1727.34 1456.81,1725.23 1458.66,1722.35C1460.52,1719.47 1461.93,1715.72 1462.91,1711.12L1466.93,1692.09L1473.41,1692.09L1464.25,1735.36L1458.84,1735.36L1459.91,1726.99L1459.55,1726.99C1458.55,1728.36 1457.34,1729.75 1455.92,1731.15C1454.5,1732.56 1452.85,1733.75 1450.99,1734.71C1449.12,1735.67 1446.97,1736.15 1444.55,1736.15Z" style="fill:white;fill-rule:nonzero;"/>
                    <path d="M1478.15,1735.36L1487.35,1692.09L1492.71,1692.09L1491.69,1700.46L1492.08,1700.46C1493.03,1699.09 1494.17,1697.7 1495.52,1696.29C1496.86,1694.88 1498.42,1693.7 1500.2,1692.74C1501.97,1691.78 1503.99,1691.3 1506.26,1691.3C1509.31,1691.3 1511.62,1692.18 1513.2,1693.94C1514.78,1695.71 1515.7,1698.12 1515.97,1701.17L1516.25,1701.17C1517.3,1699.56 1518.56,1698 1520.04,1696.49C1521.51,1694.98 1523.19,1693.73 1525.07,1692.76C1526.95,1691.79 1529.02,1691.3 1531.29,1691.3C1534.63,1691.3 1537.21,1692.21 1539.02,1694.02C1540.84,1695.84 1541.75,1698.47 1541.75,1701.92C1541.75,1703.15 1541.68,1704.33 1541.53,1705.43C1541.39,1706.54 1541.17,1707.67 1540.88,1708.83L1535.27,1735.36L1528.64,1735.36L1534.48,1708.12C1534.72,1706.93 1534.9,1705.91 1535.02,1705.04C1535.14,1704.17 1535.19,1703.34 1535.19,1702.55C1535.19,1700.79 1534.72,1699.39 1533.77,1698.37C1532.83,1697.34 1531.37,1696.83 1529.39,1696.83C1528,1696.83 1526.55,1697.21 1525.05,1697.97C1523.55,1698.73 1522.09,1699.88 1520.69,1701.42C1519.28,1702.97 1518.01,1704.91 1516.88,1707.25C1515.75,1709.59 1514.84,1712.34 1514.15,1715.5L1509.93,1735.36L1503.37,1735.36L1509.14,1708.24C1509.38,1707.02 1509.55,1705.98 1509.67,1705.1C1509.79,1704.22 1509.85,1703.46 1509.85,1702.83C1509.85,1700.96 1509.41,1699.49 1508.55,1698.42C1507.68,1697.36 1506.26,1696.83 1504.28,1696.83C1502.89,1696.83 1501.43,1697.19 1499.92,1697.93C1498.41,1698.67 1496.94,1699.83 1495.52,1701.4C1494.1,1702.98 1492.79,1705 1491.61,1707.44C1490.42,1709.89 1489.48,1712.84 1488.77,1716.29L1484.74,1735.36L1478.15,1735.36Z" style="fill:white;fill-rule:nonzero;"/>
                    <path d="M1243.28,1816.21L1255.48,1758.49L1268.12,1758.49C1274.01,1758.49 1278.43,1759.71 1281.38,1762.14C1284.33,1764.58 1285.8,1768.18 1285.8,1772.94C1285.8,1775.79 1285.32,1778.37 1284.34,1780.7C1283.37,1783.03 1281.81,1785.04 1279.66,1786.72C1277.52,1788.4 1274.71,1789.72 1271.23,1790.67L1280.71,1816.21L1273.44,1816.21L1265.08,1792.13L1255.01,1792.13L1249.91,1816.21L1243.28,1816.21ZM1256.19,1786.44L1263.18,1786.44C1265.84,1786.44 1268.15,1786.13 1270.13,1785.52C1272.1,1784.9 1273.74,1784.02 1275.04,1782.89C1276.35,1781.76 1277.32,1780.39 1277.96,1778.79C1278.61,1777.18 1278.93,1775.39 1278.93,1773.42C1278.93,1770.07 1277.98,1767.72 1276.07,1766.35C1274.16,1764.98 1271.29,1764.3 1267.44,1764.3L1260.97,1764.3L1256.19,1786.44Z" style="fill:white;fill-rule:nonzero;"/>
                    <path d="M1306.06,1816.84C1302.74,1816.84 1299.88,1816.17 1297.49,1814.81C1295.09,1813.45 1293.26,1811.53 1291.98,1809.05C1290.7,1806.56 1290.07,1803.62 1290.07,1800.22C1290.07,1797.49 1290.37,1794.78 1290.97,1792.11C1291.58,1789.44 1292.47,1786.91 1293.66,1784.53C1294.84,1782.15 1296.31,1780.04 1298.06,1778.21C1299.81,1776.38 1301.83,1774.95 1304.12,1773.91C1306.41,1772.87 1308.96,1772.35 1311.78,1772.35C1315.15,1772.35 1318.02,1773.03 1320.41,1774.38C1322.79,1775.74 1324.62,1777.67 1325.89,1780.17C1327.17,1782.67 1327.81,1785.63 1327.81,1789.05C1327.81,1791.74 1327.51,1794.41 1326.92,1797.06C1326.33,1799.72 1325.45,1802.24 1324.28,1804.62C1323.1,1807.01 1321.64,1809.11 1319.89,1810.94C1318.14,1812.77 1316.12,1814.21 1313.81,1815.26C1311.51,1816.32 1308.92,1816.84 1306.06,1816.84ZM1306.45,1811.39C1308.08,1811.39 1309.63,1811.05 1311.11,1810.37C1312.58,1809.68 1313.92,1808.69 1315.13,1807.39C1316.35,1806.09 1317.39,1804.49 1318.27,1802.61C1319.15,1800.73 1319.84,1798.59 1320.33,1796.2C1320.81,1793.8 1321.06,1791.17 1321.06,1788.3C1321.06,1786.59 1320.75,1784.93 1320.15,1783.33C1319.54,1781.72 1318.57,1780.4 1317.23,1779.36C1315.88,1778.32 1314.1,1777.8 1311.86,1777.8C1310.02,1777.8 1308.31,1778.18 1306.75,1778.94C1305.18,1779.71 1303.78,1780.79 1302.54,1782.18C1301.3,1783.58 1300.26,1785.22 1299.4,1787.12C1298.55,1789.01 1297.89,1791.09 1297.43,1793.35C1296.97,1795.62 1296.74,1798 1296.74,1800.5C1296.74,1803.95 1297.58,1806.62 1299.26,1808.53C1300.95,1810.44 1303.34,1811.39 1306.45,1811.39Z" style="fill:white;fill-rule:nonzero;"/>
                    <path d="M1333.93,1816.21L1343.13,1772.94L1348.5,1772.94L1347.47,1781.31L1347.86,1781.31C1348.81,1779.94 1349.96,1778.56 1351.3,1777.15C1352.64,1775.74 1354.2,1774.55 1355.98,1773.59C1357.75,1772.63 1359.77,1772.15 1362.04,1772.15C1365.09,1772.15 1367.41,1773.03 1368.99,1774.8C1370.57,1776.56 1371.49,1778.97 1371.75,1782.02L1372.03,1782.02C1373.08,1780.42 1374.34,1778.86 1375.82,1777.34C1377.29,1775.83 1378.97,1774.59 1380.85,1773.61C1382.73,1772.64 1384.8,1772.15 1387.07,1772.15C1390.41,1772.15 1392.99,1773.06 1394.81,1774.88C1396.62,1776.69 1397.53,1779.33 1397.53,1782.77C1397.53,1784.01 1397.46,1785.18 1397.31,1786.29C1397.17,1787.39 1396.95,1788.52 1396.66,1789.68L1391.06,1816.21L1384.42,1816.21L1390.27,1788.97C1390.5,1787.79 1390.68,1786.76 1390.8,1785.89C1390.92,1785.02 1390.98,1784.19 1390.98,1783.4C1390.98,1781.64 1390.5,1780.25 1389.55,1779.22C1388.61,1778.19 1387.15,1777.68 1385.17,1777.68C1383.78,1777.68 1382.33,1778.06 1380.83,1778.83C1379.33,1779.59 1377.88,1780.74 1376.47,1782.28C1375.06,1783.82 1373.79,1785.76 1372.66,1788.1C1371.53,1790.44 1370.62,1793.19 1369.93,1796.35L1365.71,1816.21L1359.15,1816.21L1364.92,1789.09C1365.16,1787.88 1365.33,1786.83 1365.45,1785.95C1365.57,1785.07 1365.63,1784.31 1365.63,1783.68C1365.63,1781.81 1365.19,1780.35 1364.33,1779.28C1363.46,1778.21 1362.04,1777.68 1360.06,1777.68C1358.67,1777.68 1357.21,1778.05 1355.7,1778.79C1354.19,1779.52 1352.72,1780.68 1351.3,1782.26C1349.88,1783.84 1348.57,1785.85 1347.39,1788.3C1346.21,1790.75 1345.26,1793.69 1344.55,1797.14L1340.52,1816.21L1333.93,1816.21Z" style="fill:white;fill-rule:nonzero;"/>
                    <path d="M1417.74,1817C1415.4,1817 1413.35,1816.44 1411.58,1815.3C1409.82,1814.17 1408.45,1812.5 1407.48,1810.29C1406.5,1808.08 1406.02,1805.38 1406.02,1802.2C1406.02,1799.01 1406.35,1795.95 1407.02,1793C1407.69,1790.05 1408.65,1787.31 1409.89,1784.79C1411.12,1782.26 1412.62,1780.05 1414.37,1778.15C1416.12,1776.26 1418.09,1774.79 1420.27,1773.73C1422.45,1772.68 1424.81,1772.15 1427.34,1772.15C1429.28,1772.15 1430.98,1772.52 1432.41,1773.26C1433.84,1774 1435.04,1774.96 1436,1776.16C1436.96,1777.36 1437.72,1778.63 1438.27,1779.97L1438.67,1779.97L1441.19,1772.94L1446.21,1772.94L1437.05,1816.21L1431.8,1816.21L1432.98,1807.84L1432.67,1807.84C1431.48,1809.42 1430.13,1810.91 1428.6,1812.3C1427.07,1813.7 1425.4,1814.83 1423.59,1815.7C1421.77,1816.57 1419.82,1817 1417.74,1817ZM1419.88,1811.55C1421.9,1811.55 1423.91,1810.81 1425.89,1809.32C1427.88,1807.84 1429.67,1805.82 1431.27,1803.28C1432.86,1800.74 1434.07,1797.88 1434.92,1794.7C1435.34,1793.14 1435.62,1791.72 1435.77,1790.41C1435.91,1789.11 1435.98,1787.89 1435.98,1786.76C1435.98,1784.05 1435.27,1781.86 1433.83,1780.19C1432.4,1778.52 1430.44,1777.68 1427.97,1777.68C1426.2,1777.68 1424.55,1778.12 1422.99,1779C1421.44,1779.88 1420.04,1781.11 1418.79,1782.67C1417.54,1784.24 1416.47,1786.06 1415.57,1788.12C1414.68,1790.19 1413.99,1792.43 1413.5,1794.85C1413.01,1797.28 1412.77,1799.76 1412.77,1802.32C1412.77,1805.34 1413.39,1807.64 1414.62,1809.2C1415.86,1810.77 1417.61,1811.55 1419.88,1811.55Z" style="fill:white;fill-rule:nonzero;"/>
                    <path d="M1449.84,1816.21L1459.12,1772.75L1464.92,1772.75L1463.89,1781.08L1463.97,1781.08C1464.97,1779.71 1466.18,1778.32 1467.59,1776.91C1468.99,1775.5 1470.64,1774.32 1472.52,1773.36C1474.4,1772.4 1476.54,1771.92 1478.94,1771.92C1481.25,1771.92 1483.24,1772.34 1484.9,1773.2C1486.56,1774.05 1487.83,1775.29 1488.73,1776.91C1489.62,1778.53 1490.07,1780.48 1490.07,1782.77C1490.07,1783.98 1489.98,1785.21 1489.79,1786.44C1489.61,1787.68 1489.41,1788.79 1489.2,1789.76L1483.44,1816.21L1476.45,1816.21L1482.29,1788.89C1482.53,1787.71 1482.72,1786.69 1482.87,1785.85C1483.01,1785.01 1483.08,1784.22 1483.08,1783.48C1483.08,1781.64 1482.58,1780.25 1481.58,1779.3C1480.58,1778.35 1479.11,1777.88 1477.16,1777.88C1475.24,1777.88 1473.21,1778.54 1471.08,1779.85C1468.95,1781.17 1466.97,1783.24 1465.16,1786.07C1463.34,1788.9 1461.93,1792.59 1460.93,1797.14L1456.87,1816.21L1449.84,1816.21Z" style="fill:white;fill-rule:nonzero;"/>
                    <path d="M1496.7,1816.21L1505.9,1772.94L1512.49,1772.94L1503.3,1816.21L1496.7,1816.21ZM1511.43,1765.36C1510.38,1765.36 1509.5,1765.05 1508.8,1764.43C1508.11,1763.82 1507.76,1762.94 1507.76,1761.81C1507.76,1760.94 1507.93,1760.12 1508.29,1759.36C1508.64,1758.6 1509.16,1757.99 1509.83,1757.53C1510.5,1757.07 1511.32,1756.84 1512.3,1756.84C1513.45,1756.84 1514.32,1757.14 1514.9,1757.74C1515.48,1758.35 1515.77,1759.19 1515.77,1760.27C1515.77,1761.82 1515.32,1763.06 1514.43,1763.98C1513.53,1764.9 1512.53,1765.36 1511.43,1765.36Z" style="fill:white;fill-rule:nonzero;"/>
                    <path d="M1530.46,1817C1528.12,1817 1526.06,1816.44 1524.3,1815.3C1522.54,1814.17 1521.17,1812.5 1520.19,1810.29C1519.22,1808.08 1518.73,1805.38 1518.73,1802.2C1518.73,1799.01 1519.07,1795.95 1519.74,1793C1520.41,1790.05 1521.36,1787.31 1522.6,1784.79C1523.84,1782.26 1525.33,1780.05 1527.08,1778.15C1528.83,1776.26 1530.8,1774.79 1532.98,1773.73C1535.17,1772.68 1537.52,1772.15 1540.05,1772.15C1542,1772.15 1543.69,1772.52 1545.12,1773.26C1546.56,1774 1547.76,1774.96 1548.72,1776.16C1549.68,1777.36 1550.43,1778.63 1550.99,1779.97L1551.38,1779.97L1553.91,1772.94L1558.92,1772.94L1549.76,1816.21L1544.51,1816.21L1545.7,1807.84L1545.38,1807.84C1544.2,1809.42 1542.84,1810.91 1541.31,1812.3C1539.79,1813.7 1538.12,1814.83 1536.3,1815.7C1534.48,1816.57 1532.54,1817 1530.46,1817ZM1532.59,1811.55C1534.62,1811.55 1536.62,1810.81 1538.61,1809.32C1540.6,1807.84 1542.39,1805.82 1543.98,1803.28C1545.57,1800.74 1546.79,1797.88 1547.63,1794.7C1548.05,1793.14 1548.34,1791.72 1548.48,1790.41C1548.62,1789.11 1548.7,1787.89 1548.7,1786.76C1548.7,1784.05 1547.98,1781.86 1546.55,1780.19C1545.11,1778.52 1543.16,1777.68 1540.68,1777.68C1538.92,1777.68 1537.26,1778.12 1535.71,1779C1534.15,1779.88 1532.75,1781.11 1531.5,1782.67C1530.25,1784.24 1529.18,1786.06 1528.29,1788.12C1527.39,1790.19 1526.7,1792.43 1526.21,1794.85C1525.73,1797.28 1525.48,1799.76 1525.48,1802.32C1525.48,1805.34 1526.1,1807.64 1527.34,1809.2C1528.58,1810.77 1530.33,1811.55 1532.59,1811.55Z" style="fill:white;fill-rule:nonzero;"/>
                    <path d="M1562.55,1816.21L1571.83,1772.75L1577.64,1772.75L1576.61,1781.08L1576.69,1781.08C1577.69,1779.71 1578.89,1778.32 1580.3,1776.91C1581.71,1775.5 1583.35,1774.32 1585.24,1773.36C1587.12,1772.4 1589.26,1771.92 1591.65,1771.92C1593.97,1771.92 1595.95,1772.34 1597.61,1773.2C1599.27,1774.05 1600.55,1775.29 1601.44,1776.91C1602.34,1778.53 1602.78,1780.48 1602.78,1782.77C1602.78,1783.98 1602.69,1785.21 1602.51,1786.44C1602.32,1787.68 1602.13,1788.79 1601.92,1789.76L1596.15,1816.21L1589.16,1816.21L1595.01,1788.89C1595.24,1787.71 1595.43,1786.69 1595.58,1785.85C1595.72,1785.01 1595.8,1784.22 1595.8,1783.48C1595.8,1781.64 1595.3,1780.25 1594.3,1779.3C1593.3,1778.35 1591.82,1777.88 1589.87,1777.88C1587.95,1777.88 1585.93,1778.54 1583.79,1779.85C1581.66,1781.17 1579.69,1783.24 1577.87,1786.07C1576.06,1788.9 1574.65,1792.59 1573.65,1797.14L1569.58,1816.21L1562.55,1816.21Z" style="fill:white;fill-rule:nonzero;"/>
                    <path d="M1243.28,1897.07L1255.48,1839.35L1268.12,1839.35C1274.01,1839.35 1278.43,1840.56 1281.38,1843C1284.33,1845.43 1285.8,1849.03 1285.8,1853.8C1285.8,1856.64 1285.32,1859.23 1284.34,1861.55C1283.37,1863.88 1281.81,1865.89 1279.66,1867.58C1277.52,1869.26 1274.71,1870.58 1271.23,1871.52L1280.71,1897.07L1273.44,1897.07L1265.08,1872.98L1255.01,1872.98L1249.91,1897.07L1243.28,1897.07ZM1256.19,1867.3L1263.18,1867.3C1265.84,1867.3 1268.15,1866.99 1270.13,1866.37C1272.1,1865.75 1273.74,1864.88 1275.04,1863.75C1276.35,1862.61 1277.32,1861.25 1277.96,1859.64C1278.61,1858.03 1278.93,1856.24 1278.93,1854.27C1278.93,1850.93 1277.98,1848.57 1276.07,1847.2C1274.16,1845.84 1271.29,1845.15 1267.44,1845.15L1260.97,1845.15L1256.19,1867.3Z" style="fill:white;fill-rule:nonzero;"/>
                    <path d="M1305.74,1897.86C1302.5,1897.86 1299.71,1897.2 1297.37,1895.9C1295.03,1894.6 1293.23,1892.73 1291.98,1890.3C1290.73,1887.86 1290.11,1884.95 1290.11,1881.55C1290.11,1878.05 1290.61,1874.61 1291.62,1871.23C1292.64,1867.85 1294.09,1864.78 1295.99,1862.03C1297.88,1859.28 1300.17,1857.09 1302.84,1855.45C1305.51,1853.82 1308.5,1853.01 1311.82,1853.01C1315.79,1853.01 1318.81,1853.89 1320.86,1855.67C1322.91,1857.45 1323.94,1859.89 1323.94,1863C1323.94,1865.18 1323.43,1867.19 1322.42,1869.04C1321.41,1870.88 1319.85,1872.48 1317.76,1873.83C1315.67,1875.19 1313.02,1876.24 1309.83,1876.99C1306.63,1877.74 1302.84,1878.12 1298.48,1878.12L1296.97,1878.12C1296.92,1878.59 1296.88,1879.12 1296.84,1879.69C1296.8,1880.27 1296.78,1880.81 1296.78,1881.31C1296.78,1884.79 1297.62,1887.51 1299.3,1889.47C1300.99,1891.43 1303.52,1892.41 1306.88,1892.41C1308.96,1892.41 1310.93,1892.11 1312.79,1891.52C1314.64,1890.93 1316.58,1890.14 1318.61,1889.17L1318.61,1894.82C1316.66,1895.71 1314.7,1896.44 1312.73,1897.01C1310.75,1897.57 1308.42,1897.86 1305.74,1897.86ZM1297.92,1872.75L1298.87,1872.75C1302.24,1872.75 1305.33,1872.45 1308.15,1871.86C1310.96,1871.27 1313.23,1870.29 1314.94,1868.94C1316.65,1867.58 1317.5,1865.77 1317.5,1863.51C1317.5,1862.04 1317,1860.82 1316,1859.88C1315,1858.93 1313.48,1858.45 1311.42,1858.45C1309.61,1858.45 1307.82,1859.02 1306.06,1860.13C1304.29,1861.25 1302.69,1862.88 1301.26,1865.01C1299.82,1867.14 1298.71,1869.72 1297.92,1872.75Z" style="fill:white;fill-rule:nonzero;"/>
                    <path d="M1335.47,1897.07L1330.26,1853.8L1336.89,1853.8L1339.53,1878.71C1339.69,1880.1 1339.84,1881.68 1339.97,1883.45C1340.1,1885.21 1340.21,1886.87 1340.3,1888.42C1340.39,1889.97 1340.44,1891.14 1340.44,1891.93L1340.68,1891.93C1341.26,1890.64 1341.93,1889.18 1342.71,1887.53C1343.49,1885.89 1344.27,1884.26 1345.06,1882.64C1345.85,1881.02 1346.55,1879.63 1347.15,1878.47L1360.5,1853.8L1367.53,1853.8L1343.95,1897.07L1335.47,1897.07Z" style="fill:white;fill-rule:nonzero;"/>
                    <path d="M1383.55,1897.7C1380.24,1897.7 1377.38,1897.02 1374.99,1895.66C1372.59,1894.31 1370.76,1892.39 1369.48,1889.9C1368.2,1887.41 1367.56,1884.47 1367.56,1881.08C1367.56,1878.34 1367.87,1875.64 1368.47,1872.96C1369.08,1870.29 1369.97,1867.77 1371.16,1865.38C1372.34,1863 1373.81,1860.9 1375.56,1859.07C1377.31,1857.24 1379.33,1855.8 1381.62,1854.76C1383.91,1853.72 1386.46,1853.2 1389.28,1853.2C1392.65,1853.2 1395.52,1853.88 1397.9,1855.24C1400.29,1856.59 1402.12,1858.52 1403.39,1861.02C1404.67,1863.52 1405.31,1866.48 1405.31,1869.9C1405.31,1872.59 1405.01,1875.26 1404.42,1877.92C1403.83,1880.58 1402.94,1883.1 1401.77,1885.48C1400.6,1887.86 1399.14,1889.97 1397.39,1891.8C1395.64,1893.62 1393.61,1895.07 1391.31,1896.12C1389.01,1897.17 1386.42,1897.7 1383.55,1897.7ZM1383.95,1892.25C1385.58,1892.25 1387.13,1891.91 1388.61,1891.22C1390.08,1890.54 1391.42,1889.55 1392.63,1888.24C1393.84,1886.94 1394.89,1885.35 1395.77,1883.47C1396.65,1881.58 1397.34,1879.44 1397.83,1877.05C1398.31,1874.65 1398.56,1872.02 1398.56,1869.15C1398.56,1867.44 1398.25,1865.79 1397.65,1864.18C1397.04,1862.57 1396.07,1861.25 1394.73,1860.21C1393.38,1859.17 1391.59,1858.65 1389.36,1858.65C1387.51,1858.65 1385.81,1859.03 1384.24,1859.8C1382.68,1860.56 1381.28,1861.64 1380.04,1863.04C1378.8,1864.43 1377.76,1866.08 1376.9,1867.97C1376.05,1869.87 1375.39,1871.94 1374.93,1874.21C1374.47,1876.47 1374.24,1878.85 1374.24,1881.35C1374.24,1884.8 1375.08,1887.48 1376.76,1889.39C1378.45,1891.3 1380.84,1892.25 1383.95,1892.25Z" style="fill:white;fill-rule:nonzero;"/>
                    <path d="M1411.35,1897.07L1424.45,1835.64L1431.01,1835.64L1417.94,1897.07L1411.35,1897.07Z" style="fill:white;fill-rule:nonzero;"/>
                    <path d="M1444.83,1897.86C1442.64,1897.86 1440.73,1897.45 1439.1,1896.63C1437.47,1895.82 1436.21,1894.61 1435.33,1893.02C1434.45,1891.43 1434.01,1889.47 1434.01,1887.16C1434.01,1886 1434.09,1884.87 1434.27,1883.78C1434.44,1882.69 1434.63,1881.55 1434.84,1880.37L1440.56,1853.8L1447.19,1853.8L1441.31,1881.12C1441.1,1882.25 1440.94,1883.26 1440.82,1884.14C1440.7,1885.02 1440.64,1885.8 1440.64,1886.49C1440.64,1888.36 1441.12,1889.81 1442.08,1890.85C1443.04,1891.89 1444.58,1892.41 1446.68,1892.41C1448.65,1892.41 1450.73,1891.74 1452.9,1890.39C1455.07,1889.05 1457.08,1886.94 1458.94,1884.06C1460.8,1881.18 1462.21,1877.43 1463.18,1872.83L1467.21,1853.8L1473.69,1853.8L1464.53,1897.07L1459.12,1897.07L1460.18,1888.7L1459.83,1888.7C1458.83,1890.07 1457.62,1891.45 1456.2,1892.86C1454.78,1894.27 1453.13,1895.45 1451.26,1896.41C1449.39,1897.38 1447.25,1897.86 1444.83,1897.86Z" style="fill:white;fill-rule:nonzero;"/>
                    <path d="M1490.74,1897.86C1487.87,1897.86 1485.48,1897.16 1483.58,1895.78C1481.67,1894.4 1480.71,1892.03 1480.71,1888.66C1480.71,1887.84 1480.77,1886.95 1480.87,1885.99C1480.98,1885.03 1481.15,1884.04 1481.38,1883.01L1486.48,1858.81L1479.81,1858.81L1480.44,1855.77L1487.62,1853.01L1492.36,1843.85L1496.27,1843.85L1494.1,1853.8L1505.23,1853.8L1504.2,1858.81L1493.11,1858.81L1487.98,1883.09C1487.79,1883.83 1487.63,1884.62 1487.48,1885.46C1487.34,1886.3 1487.27,1887.1 1487.27,1887.87C1487.27,1889.18 1487.61,1890.28 1488.29,1891.16C1488.98,1892.05 1490.12,1892.49 1491.73,1892.49C1492.73,1892.49 1493.68,1892.39 1494.59,1892.21C1495.5,1892.03 1496.46,1891.76 1497.49,1891.42L1497.49,1896.47C1496.83,1896.79 1495.84,1897.1 1494.51,1897.4C1493.18,1897.7 1491.92,1897.86 1490.74,1897.86Z" style="fill:white;fill-rule:nonzero;"/>
                    <path d="M1505.07,1897.07L1514.27,1853.8L1520.86,1853.8L1511.66,1897.07L1505.07,1897.07ZM1519.8,1846.22C1518.75,1846.22 1517.87,1845.91 1517.17,1845.29C1516.48,1844.67 1516.13,1843.8 1516.13,1842.66C1516.13,1841.8 1516.3,1840.98 1516.66,1840.22C1517.01,1839.45 1517.53,1838.84 1518.2,1838.38C1518.87,1837.92 1519.69,1837.69 1520.67,1837.69C1521.82,1837.69 1522.69,1837.99 1523.27,1838.6C1523.85,1839.2 1524.14,1840.05 1524.14,1841.12C1524.14,1842.68 1523.69,1843.91 1522.8,1844.84C1521.9,1845.76 1520.9,1846.22 1519.8,1846.22Z" style="fill:white;fill-rule:nonzero;"/>
                    <path d="M1543.13,1897.7C1539.81,1897.7 1536.96,1897.02 1534.56,1895.66C1532.17,1894.31 1530.33,1892.39 1529.06,1889.9C1527.78,1887.41 1527.14,1884.47 1527.14,1881.08C1527.14,1878.34 1527.44,1875.64 1528.05,1872.96C1528.65,1870.29 1529.55,1867.77 1530.73,1865.38C1531.92,1863 1533.38,1860.9 1535.14,1859.07C1536.89,1857.24 1538.91,1855.8 1541.2,1854.76C1543.49,1853.72 1546.04,1853.2 1548.86,1853.2C1552.22,1853.2 1555.1,1853.88 1557.48,1855.24C1559.86,1856.59 1561.69,1858.52 1562.97,1861.02C1564.25,1863.52 1564.88,1866.48 1564.88,1869.9C1564.88,1872.59 1564.59,1875.26 1564,1877.92C1563.4,1880.58 1562.52,1883.1 1561.35,1885.48C1560.18,1887.86 1558.72,1889.97 1556.97,1891.8C1555.22,1893.62 1553.19,1895.07 1550.89,1896.12C1548.59,1897.17 1546,1897.7 1543.13,1897.7ZM1543.53,1892.25C1545.16,1892.25 1546.71,1891.91 1548.18,1891.22C1549.66,1890.54 1551,1889.55 1552.21,1888.24C1553.42,1886.94 1554.47,1885.35 1555.35,1883.47C1556.23,1881.58 1556.91,1879.44 1557.4,1877.05C1557.89,1874.65 1558.13,1872.02 1558.13,1869.15C1558.13,1867.44 1557.83,1865.79 1557.23,1864.18C1556.62,1862.57 1555.64,1861.25 1554.3,1860.21C1552.96,1859.17 1551.17,1858.65 1548.93,1858.65C1547.09,1858.65 1545.39,1859.03 1543.82,1859.8C1542.26,1860.56 1540.85,1861.64 1539.62,1863.04C1538.38,1864.43 1537.33,1866.08 1536.48,1867.97C1535.62,1869.87 1534.97,1871.94 1534.5,1874.21C1534.04,1876.47 1533.81,1878.85 1533.81,1881.35C1533.81,1884.8 1534.65,1887.48 1536.34,1889.39C1538.02,1891.3 1540.42,1892.25 1543.53,1892.25Z" style="fill:white;fill-rule:nonzero;"/>
                    <path d="M1570.73,1897.07L1580,1853.6L1585.81,1853.6L1584.78,1861.93L1584.86,1861.93C1585.86,1860.56 1587.07,1859.17 1588.47,1857.76C1589.88,1856.36 1591.53,1855.17 1593.41,1854.21C1595.29,1853.25 1597.43,1852.77 1599.82,1852.77C1602.14,1852.77 1604.13,1853.2 1605.79,1854.05C1607.44,1854.91 1608.72,1856.15 1609.61,1857.76C1610.51,1859.38 1610.96,1861.34 1610.96,1863.63C1610.96,1864.84 1610.86,1866.06 1610.68,1867.3C1610.5,1868.54 1610.3,1869.64 1610.09,1870.62L1604.32,1897.07L1597.34,1897.07L1603.18,1869.75C1603.42,1868.56 1603.61,1867.55 1603.75,1866.71C1603.9,1865.86 1603.97,1865.08 1603.97,1864.34C1603.97,1862.5 1603.47,1861.1 1602.47,1860.15C1601.47,1859.2 1599.99,1858.73 1598.05,1858.73C1596.12,1858.73 1594.1,1859.39 1591.97,1860.71C1589.84,1862.02 1587.86,1864.09 1586.05,1866.92C1584.23,1869.75 1582.82,1873.44 1581.82,1878L1577.75,1897.07L1570.73,1897.07Z" style="fill:white;fill-rule:nonzero;"/>
                </g>
                <g transform="matrix(1.9909,0,0,1.52557,510.168,-3202.6)">
                    <rect x="507.498" y="3166.24" width="788.039" height="36.185" style="fill:white;"/>
                </g>
            </g>
        </g>
    </g>
</svg>
