<?xml version="1.0" encoding="UTF-8" standalone="no"?>
<!DOCTYPE svg PUBLIC "-//W3C//DTD SVG 1.1//EN" "http://www.w3.org/Graphics/SVG/1.1/DTD/svg11.dtd">
<svg width="100%" height="100%" viewBox="0 0 4216 388" version="1.1" xmlns="http://www.w3.org/2000/svg" xmlns:xlink="http://www.w3.org/1999/xlink" xml:space="preserve" xmlns:serif="http://www.serif.com/" style="fill-rule:evenodd;clip-rule:evenodd;stroke-linejoin:round;stroke-miterlimit:2;">
    <g transform="matrix(1,0,0,1,-49193.4,-8590.37)">
        <g id="Plan-de-travail13" serif:id="Plan de travail13" transform="matrix(2.18076,0,0,1,-9881.89,6786.14)">
            <rect x="27089.4" y="1804.24" width="1932.9" height="387.5" style="fill:none;"/>
            <g transform="matrix(0.445065,0,0,0.970577,5182.74,-6538.94)">
                <path d="M49228.5,8907.22L49228.5,8632.29L49258.6,8632.29L49258.6,8747.16C49265.1,8735.86 49273.8,8727.7 49284.6,8722.68C49295.4,8717.66 49307.2,8715.15 49320,8715.15C49333.5,8715.15 49345.8,8717.72 49356.9,8722.87C49367.9,8728.01 49376.8,8735.86 49383.4,8746.41C49390.1,8756.95 49393.4,8770.38 49393.4,8786.7L49393.4,8907.22L49363.3,8907.22L49363.3,8797.25C49363.3,8776.41 49358.8,8761.91 49349.9,8753.75C49341,8745.59 49330,8741.51 49317,8741.51C49307.9,8741.51 49298.9,8743.64 49289.9,8747.91C49280.8,8752.18 49273.3,8759.15 49267.4,8768.81C49261.5,8778.48 49258.6,8791.35 49258.6,8807.42L49258.6,8907.22L49228.5,8907.22Z" style="fill:rgb(250,250,250);fill-rule:nonzero;"/>
                <path d="M49538.4,8910.99C49520.6,8910.99 49504.7,8907.09 49490.8,8899.31C49476.8,8891.53 49466,8880.29 49458.2,8865.6C49450.4,8850.92 49446.5,8833.4 49446.5,8813.07C49446.5,8792.73 49450.4,8775.22 49458.2,8760.53C49466,8745.84 49476.6,8734.6 49490.2,8726.82C49503.8,8719.04 49519.2,8715.15 49536.5,8715.15C49554.1,8715.15 49569.1,8718.91 49581.5,8726.44C49594,8733.98 49603.4,8744.21 49610,8757.14C49616.5,8770.07 49619.8,8784.57 49619.8,8800.64C49619.8,8804.91 49619.6,8808.8 49619.4,8812.31C49619.1,8815.83 49618.8,8818.97 49618.3,8821.73L49466.1,8821.73L49466.1,8794.99L49605.1,8794.99L49589.6,8798C49589.6,8779.92 49584.7,8765.99 49574.8,8756.2C49564.8,8746.41 49551.8,8741.51 49535.8,8741.51C49523.5,8741.51 49512.9,8744.33 49503.9,8749.98C49495,8755.63 49488.1,8763.79 49483.2,8774.46C49478.3,8785.13 49475.9,8798 49475.9,8813.07C49475.9,8827.88 49478.4,8840.68 49483.4,8851.48C49488.4,8862.28 49495.5,8870.5 49504.7,8876.15C49513.9,8881.8 49524.8,8884.62 49537.7,8884.62C49551.5,8884.62 49562.7,8881.99 49571.4,8876.72C49580,8871.44 49587,8864.29 49592.3,8855.25L49616,8869.18C49611.2,8877.72 49605.1,8885.13 49597.7,8891.4C49590.3,8897.68 49581.7,8902.51 49571.7,8905.9C49561.8,8909.29 49550.7,8910.99 49538.4,8910.99Z" style="fill:rgb(250,250,250);fill-rule:nonzero;"/>
                <path d="M49703.7,8632.29L49703.7,8859.39C49703.7,8868.93 49705.5,8875.52 49709,8879.16C49712.5,8882.8 49718.2,8884.62 49726,8884.62C49731,8884.62 49735.1,8884.25 49738.4,8883.49C49741.6,8882.74 49746,8881.36 49751.6,8879.35L49746.7,8905.71C49742.6,8907.47 49738.3,8908.79 49733.5,8909.67C49728.7,8910.55 49723.8,8910.99 49718.8,8910.99C49703.5,8910.99 49692.1,8906.84 49684.7,8898.56C49677.3,8890.27 49673.6,8877.59 49673.6,8860.52L49673.6,8632.29L49703.7,8632.29Z" style="fill:rgb(250,250,250);fill-rule:nonzero;"/>
                <path d="M49817.1,8632.29L49817.1,8859.39C49817.1,8868.93 49818.8,8875.52 49822.4,8879.16C49825.9,8882.8 49831.5,8884.62 49839.3,8884.62C49844.3,8884.62 49848.5,8884.25 49851.7,8883.49C49855,8882.74 49859.4,8881.36 49864.9,8879.35L49860,8905.71C49856,8907.47 49851.6,8908.79 49846.8,8909.67C49842.1,8910.55 49837.2,8910.99 49832.1,8910.99C49816.8,8910.99 49805.5,8906.84 49798.1,8898.56C49790.7,8890.27 49787,8877.59 49787,8860.52L49787,8632.29L49817.1,8632.29Z" style="fill:rgb(250,250,250);fill-rule:nonzero;"/>
                <path d="M49979.8,8715.15C49997.6,8715.15 50013.3,8719.04 50027,8726.82C50040.7,8734.6 50051.5,8745.84 50059.2,8760.53C50067,8775.22 50070.9,8792.73 50070.9,8813.07C50070.9,8833.4 50067,8850.92 50059.2,8865.6C50051.5,8880.29 50040.7,8891.53 50027,8899.31C50013.3,8907.09 49997.6,8910.99 49979.8,8910.99C49962.2,8910.99 49946.5,8907.09 49932.7,8899.31C49918.9,8891.53 49908.1,8880.29 49900.3,8865.6C49892.5,8850.92 49888.6,8833.4 49888.6,8813.07C49888.6,8792.73 49892.5,8775.22 49900.3,8760.53C49908.1,8745.84 49918.9,8734.6 49932.7,8726.82C49946.5,8719.04 49962.2,8715.15 49979.8,8715.15ZM49979.8,8741.13C49967,8741.13 49956,8744.02 49947,8749.8C49938,8755.57 49931,8763.79 49926.1,8774.46C49921.2,8785.13 49918.8,8798 49918.8,8813.07C49918.8,8827.88 49921.2,8840.68 49926.1,8851.48C49931,8862.28 49938,8870.56 49947,8876.34C49956,8882.11 49967,8885 49979.8,8885C49992.6,8885 50003.5,8882.11 50012.5,8876.34C50021.6,8870.56 50028.5,8862.28 50033.4,8851.48C50038.3,8840.68 50040.8,8827.88 50040.8,8813.07C50040.8,8798 50038.3,8785.13 50033.4,8774.46C50028.5,8763.79 50021.6,8755.57 50012.5,8749.8C50003.5,8744.02 49992.6,8741.13 49979.8,8741.13Z" style="fill:rgb(250,250,250);fill-rule:nonzero;"/>
                <path d="M50273.1,8980.66C50249.5,8980.66 50228.1,8976.9 50208.7,8969.36C50189.4,8961.83 50172.8,8951.16 50159,8937.35C50145.2,8923.54 50134.5,8906.97 50127,8887.64C50119.5,8868.3 50115.7,8846.84 50115.7,8823.24C50115.7,8798.88 50119.8,8776.66 50128,8756.57C50136.1,8736.49 50147.6,8719.1 50162.4,8704.41C50177.2,8689.72 50194.7,8678.43 50214.8,8670.52C50234.9,8662.61 50256.9,8658.65 50281.1,8658.65C50304.7,8658.65 50325.6,8662.48 50343.9,8670.14C50362.3,8677.8 50377.8,8688.41 50390.5,8701.96C50403.1,8715.52 50412.7,8731.09 50419.3,8748.67C50425.8,8766.24 50429.1,8784.82 50429.1,8804.4C50429.1,8820.72 50427,8835.41 50422.8,8848.47C50418.7,8861.52 50413,8872.64 50405.7,8881.8C50398.4,8890.96 50390.2,8897.99 50381,8902.89C50371.9,8907.79 50362.4,8910.23 50352.6,8910.23C50339,8910.23 50329.1,8906.72 50322.7,8899.69C50316.3,8892.66 50313.6,8883.75 50314.6,8872.95C50309,8883.49 50300.8,8891.91 50289.7,8898.18C50278.7,8904.46 50267.2,8907.6 50255.4,8907.6C50242.4,8907.6 50230.9,8904.46 50221,8898.18C50211.1,8891.91 50203.3,8883.18 50197.8,8872.01C50192.3,8860.83 50189.5,8847.97 50189.5,8833.4C50189.5,8819.34 50191.7,8806.22 50195.9,8794.05C50200.2,8781.87 50206.2,8771.2 50213.8,8762.03C50221.5,8752.87 50230.6,8745.72 50241.1,8740.57C50251.7,8735.42 50263.1,8732.85 50275.4,8732.85C50285.2,8732.85 50294,8734.54 50301.8,8737.93C50309.5,8741.32 50316.1,8746.09 50321.3,8752.24C50326.6,8758.39 50330.3,8765.74 50332.3,8774.27L50341.3,8736.24L50368,8736.24L50339.4,8859.01C50338.9,8861.52 50338.5,8863.85 50338.1,8865.98C50337.7,8868.11 50337.5,8870.19 50337.5,8872.19C50337.5,8879.23 50339.4,8883.81 50343,8885.94C50346.6,8888.08 50350.7,8889.14 50355.2,8889.14C50364.3,8889.14 50372.7,8886.01 50380.5,8879.73C50388.3,8873.45 50394.6,8863.97 50399.5,8851.29C50404.4,8838.61 50406.8,8822.98 50406.8,8804.4C50406.8,8786.83 50404,8770.51 50398.2,8755.44C50392.4,8740.38 50384.1,8727.26 50373.1,8716.09C50362.2,8704.91 50349.1,8696.25 50333.8,8690.1C50318.5,8683.95 50301.3,8680.87 50282.2,8680.87C50261.3,8680.87 50242.3,8684.2 50225.1,8690.85C50207.9,8697.51 50193,8707.05 50180.5,8719.48C50167.9,8731.91 50158.2,8746.91 50151.3,8764.48C50144.4,8782.06 50140.9,8801.64 50140.9,8823.24C50140.9,8844.33 50144.3,8863.16 50150.9,8879.73C50157.6,8896.3 50166.9,8910.49 50179,8922.28C50191,8934.09 50205.1,8943.06 50221.2,8949.21C50237.2,8955.36 50254.6,8958.44 50273.1,8958.44C50294.5,8958.44 50311.3,8955.74 50323.6,8950.34C50335.9,8944.94 50346.2,8939.11 50354.5,8932.83L50367.7,8951.28C50360.9,8956.56 50353.3,8961.39 50344.9,8965.78C50336.5,8970.18 50326.5,8973.76 50314.9,8976.52C50303.4,8979.28 50289.5,8980.66 50273.1,8980.66ZM50264.1,8884.62C50274.6,8884.62 50284.3,8881.17 50293.1,8874.27C50301.9,8867.36 50308.9,8857.95 50314,8846.02C50319.2,8834.09 50321.7,8820.72 50321.7,8805.91C50321.7,8795.87 50319.9,8787.14 50316.3,8779.74C50312.6,8772.33 50307.5,8766.55 50300.8,8762.41C50294.2,8758.27 50286.3,8756.2 50277.3,8756.2C50268.2,8756.2 50260,8758.14 50252.6,8762.03C50245.2,8765.93 50238.8,8771.39 50233.4,8778.42C50228,8785.45 50223.8,8793.61 50220.8,8802.9C50217.8,8812.19 50216.3,8822.23 50216.3,8833.03C50216.3,8844.08 50218.2,8853.43 50221.9,8861.09C50225.7,8868.74 50231.1,8874.58 50238.3,8878.6C50245.5,8882.61 50254.1,8884.62 50264.1,8884.62Z" style="fill:rgb(250,250,250);fill-rule:nonzero;"/>
                <path d="M50513.4,8632.29L50513.4,8859.39C50513.4,8868.93 50515.2,8875.52 50518.7,8879.16C50522.2,8882.8 50527.8,8884.62 50535.6,8884.62C50540.7,8884.62 50544.8,8884.25 50548.1,8883.49C50551.3,8882.74 50555.7,8881.36 50561.2,8879.35L50556.3,8905.71C50552.3,8907.47 50547.9,8908.79 50543.2,8909.67C50538.4,8910.55 50533.5,8910.99 50528.5,8910.99C50513.2,8910.99 50501.8,8906.84 50494.4,8898.56C50487,8890.27 50483.3,8877.59 50483.3,8860.52L50483.3,8632.29L50513.4,8632.29Z" style="fill:rgb(250,250,250);fill-rule:nonzero;"/>
                <path d="M50666.3,8910.99C50654.3,8910.99 50642.9,8908.73 50632.2,8904.21C50621.6,8899.69 50612.9,8892.34 50606.2,8882.18C50599.6,8872.01 50596.3,8858.76 50596.3,8842.44L50596.3,8718.91L50626.4,8718.91L50626.4,8834.53C50626.4,8853.61 50630.5,8866.73 50638.8,8873.89C50647.1,8881.05 50658.8,8884.62 50673.8,8884.62C50680.9,8884.62 50687.8,8883.43 50694.6,8881.05C50701.3,8878.66 50707.4,8874.89 50712.8,8869.75C50718.2,8864.6 50722.5,8858.01 50725.6,8849.98C50728.8,8841.94 50730.3,8832.4 50730.3,8821.35L50730.3,8718.91L50760.5,8718.91L50760.5,8907.22L50734.1,8907.22L50732.2,8878.6C50725.7,8889.9 50716.8,8898.12 50705.7,8903.27C50694.5,8908.41 50681.4,8910.99 50666.3,8910.99Z" style="fill:rgb(250,250,250);fill-rule:nonzero;"/>
                <path d="M50906.6,8715.15C50919.6,8715.15 50931.1,8717.15 50941,8721.17C50951,8725.19 50959.6,8730.96 50966.8,8738.5C50974.1,8746.03 50980,8754.94 50984.5,8765.24L50955.9,8778.79C50951.9,8766.74 50945.8,8757.51 50937.6,8751.11C50929.5,8744.71 50918.9,8741.51 50905.8,8741.51C50893.3,8741.51 50882.5,8744.33 50873.4,8749.98C50864.4,8755.63 50857.5,8763.79 50852.7,8774.46C50847.9,8785.13 50845.6,8798 50845.6,8813.07C50845.6,8827.88 50847.9,8840.68 50852.7,8851.48C50857.5,8862.28 50864.4,8870.5 50873.4,8876.15C50882.5,8881.8 50893.3,8884.62 50905.8,8884.62C50915.6,8884.62 50924.1,8883.12 50931.2,8880.1C50938.4,8877.09 50944.3,8872.7 50948.9,8866.92C50953.6,8861.15 50956.8,8854.12 50958.5,8845.83L50986.4,8855.62C50982.2,8867.17 50976.3,8877.09 50968.9,8885.38C50961.5,8893.66 50952.6,8900 50942.2,8904.4C50931.7,8908.79 50919.9,8910.99 50906.6,8910.99C50889,8910.99 50873.3,8907.09 50859.5,8899.31C50845.7,8891.53 50834.9,8880.29 50827.1,8865.6C50819.3,8850.92 50815.4,8833.4 50815.4,8813.07C50815.4,8792.73 50819.3,8775.22 50827.1,8760.53C50834.9,8745.84 50845.7,8734.6 50859.5,8726.82C50873.3,8719.04 50889,8715.15 50906.6,8715.15Z" style="fill:rgb(250,250,250);fill-rule:nonzero;"/>
                <path d="M51147.6,8785.57C51147.6,8771.51 51143.8,8760.65 51136.3,8753C51128.8,8745.34 51118.1,8741.51 51104.3,8741.51C51091.2,8741.51 51080.2,8744.33 51071.1,8749.98C51062.1,8755.63 51055.5,8764.73 51051.2,8777.29L51026.7,8762.22C51031.7,8748.16 51041,8736.8 51054.6,8728.14C51068.1,8719.48 51085,8715.15 51105,8715.15C51118.6,8715.15 51130.9,8717.47 51141.9,8722.11C51153,8726.76 51161.7,8733.79 51168.1,8743.2C51174.5,8752.62 51177.7,8764.73 51177.7,8779.55L51177.7,8870.69C51177.7,8879.73 51182.5,8884.25 51192,8884.25C51196.8,8884.25 51201.5,8883.62 51206,8882.36L51204.5,8906.09C51199.4,8908.6 51192.9,8909.86 51184.9,8909.86C51177.6,8909.86 51171.1,8908.48 51165.3,8905.71C51159.5,8902.95 51155,8898.75 51151.7,8893.1C51148.5,8887.45 51146.8,8880.35 51146.8,8871.82L51146.8,8868.05L51154.4,8869.18C51151.4,8878.97 51146.2,8886.95 51138.9,8893.1C51131.7,8899.25 51123.5,8903.77 51114.5,8906.66C51105.4,8909.54 51096.5,8910.99 51087.7,8910.99C51076.7,8910.99 51066.4,8909.1 51056.8,8905.34C51047.3,8901.57 51039.7,8895.86 51034,8888.2C51028.4,8880.54 51025.6,8871.07 51025.6,8859.77C51025.6,8845.71 51030.3,8834.09 51039.7,8824.93C51049.1,8815.76 51062.2,8809.55 51079.1,8806.29L51153.6,8791.6L51153.6,8816.46L51093,8828.88C51080.7,8831.4 51071.5,8834.91 51065.5,8839.43C51059.5,8843.95 51056.5,8850.23 51056.5,8858.26C51056.5,8866.04 51059.5,8872.38 51065.7,8877.28C51071.8,8882.18 51080.6,8884.62 51091.9,8884.62C51099.1,8884.62 51106.1,8883.68 51112.8,8881.8C51119.4,8879.92 51125.4,8877.03 51130.7,8873.14C51135.9,8869.25 51140.1,8864.35 51143.1,8858.45C51146.1,8852.55 51147.6,8845.58 51147.6,8837.55L51147.6,8785.57Z" style="fill:rgb(250,250,250);fill-rule:nonzero;"/>
                <path d="M51316.7,8910.99C51298.4,8910.99 51281.5,8907.09 51266,8899.31C51250.6,8891.53 51238.7,8880.48 51230.4,8866.17L51256.1,8847.72C51261.6,8859.26 51269.7,8868.3 51280.3,8874.83C51291,8881.36 51303.9,8884.62 51318.9,8884.62C51332.3,8884.62 51342.7,8882.05 51350.2,8876.9C51357.7,8871.76 51361.5,8865.04 51361.5,8856.75C51361.5,8851.48 51359.8,8846.65 51356.4,8842.25C51353,8837.86 51346.6,8834.66 51337,8832.65L51291.8,8823.24C51273.5,8819.47 51260.4,8813.19 51252.5,8804.4C51244.6,8795.62 51240.6,8784.69 51240.6,8771.64C51240.6,8761.34 51243.6,8751.93 51249.5,8743.39C51255.4,8734.85 51263.8,8728.01 51274.7,8722.87C51285.6,8717.72 51298.5,8715.15 51313.3,8715.15C51331.9,8715.15 51347.6,8718.79 51360.4,8726.07C51373.2,8733.35 51382.7,8743.64 51389,8756.95L51363.8,8773.52C51359.5,8762.47 51352.6,8754.38 51343.1,8749.23C51333.5,8744.08 51323.6,8741.51 51313.3,8741.51C51304.3,8741.51 51296.5,8742.76 51290.1,8745.27C51283.7,8747.79 51278.8,8751.24 51275.4,8755.63C51272.1,8760.03 51270.4,8764.99 51270.4,8770.51C51270.4,8776.03 51272.2,8781.12 51276,8785.76C51279.8,8790.41 51286.8,8793.73 51297.1,8795.74L51344.2,8805.53C51361.8,8809.05 51374.1,8814.82 51381.1,8822.86C51388.1,8830.89 51391.6,8840.68 51391.6,8852.24C51391.6,8864.03 51388.5,8874.39 51382.2,8883.31C51375.9,8892.22 51367.2,8899.06 51355.9,8903.83C51344.6,8908.6 51331.5,8910.99 51316.7,8910.99Z" style="fill:rgb(250,250,250);fill-rule:nonzero;"/>
                <path d="M51474.1,8632.29L51474.1,8859.39C51474.1,8868.93 51475.9,8875.52 51479.4,8879.16C51482.9,8882.8 51488.5,8884.62 51496.3,8884.62C51501.3,8884.62 51505.5,8884.25 51508.8,8883.49C51512,8882.74 51516.4,8881.36 51521.9,8879.35L51517,8905.71C51513,8907.47 51508.6,8908.79 51503.9,8909.67C51499.1,8910.55 51494.2,8910.99 51489.2,8910.99C51473.8,8910.99 51462.5,8906.84 51455.1,8898.56C51447.7,8890.27 51444,8877.59 51444,8860.52L51444,8632.29L51474.1,8632.29Z" style="fill:rgb(250,250,250);fill-rule:nonzero;"/>
                <path d="M51668.8,8785.57C51668.8,8771.51 51665,8760.65 51657.5,8753C51650,8745.34 51639.3,8741.51 51625.5,8741.51C51612.4,8741.51 51601.4,8744.33 51592.3,8749.98C51583.3,8755.63 51576.7,8764.73 51572.4,8777.29L51547.9,8762.22C51552.9,8748.16 51562.2,8736.8 51575.8,8728.14C51589.3,8719.48 51606.2,8715.15 51626.2,8715.15C51639.8,8715.15 51652.1,8717.47 51663.2,8722.11C51674.2,8726.76 51682.9,8733.79 51689.3,8743.2C51695.7,8752.62 51698.9,8764.73 51698.9,8779.55L51698.9,8870.69C51698.9,8879.73 51703.7,8884.25 51713.2,8884.25C51718,8884.25 51722.7,8883.62 51727.2,8882.36L51725.7,8906.09C51720.6,8908.6 51714.1,8909.86 51706.1,8909.86C51698.8,8909.86 51692.3,8908.48 51686.5,8905.71C51680.7,8902.95 51676.2,8898.75 51672.9,8893.1C51669.7,8887.45 51668,8880.35 51668,8871.82L51668,8868.05L51675.6,8869.18C51672.6,8878.97 51667.4,8886.95 51660.1,8893.1C51652.9,8899.25 51644.7,8903.77 51635.7,8906.66C51626.6,8909.54 51617.7,8910.99 51608.9,8910.99C51597.9,8910.99 51587.6,8909.1 51578,8905.34C51568.5,8901.57 51560.9,8895.86 51555.2,8888.2C51549.6,8880.54 51546.8,8871.07 51546.8,8859.77C51546.8,8845.71 51551.5,8834.09 51560.9,8824.93C51570.3,8815.76 51583.4,8809.55 51600.3,8806.29L51674.8,8791.6L51674.8,8816.46L51614.2,8828.88C51601.9,8831.4 51592.7,8834.91 51586.7,8839.43C51580.7,8843.95 51577.7,8850.23 51577.7,8858.26C51577.7,8866.04 51580.7,8872.38 51586.9,8877.28C51593,8882.18 51601.8,8884.62 51613.1,8884.62C51620.3,8884.62 51627.3,8883.68 51634,8881.8C51640.6,8879.92 51646.6,8877.03 51651.9,8873.14C51657.1,8869.25 51661.3,8864.35 51664.3,8858.45C51667.3,8852.55 51668.8,8845.58 51668.8,8837.55L51668.8,8785.57Z" style="fill:rgb(250,250,250);fill-rule:nonzero;"/>
                <path d="M51848.1,8715.15C51861.1,8715.15 51872.6,8717.15 51882.5,8721.17C51892.4,8725.19 51901,8730.96 51908.3,8738.5C51915.6,8746.03 51921.5,8754.94 51926,8765.24L51897.4,8778.79C51893.4,8766.74 51887.3,8757.51 51879.1,8751.11C51871,8744.71 51860.4,8741.51 51847.3,8741.51C51834.8,8741.51 51824,8744.33 51814.9,8749.98C51805.9,8755.63 51799,8763.79 51794.2,8774.46C51789.4,8785.13 51787,8798 51787,8813.07C51787,8827.88 51789.4,8840.68 51794.2,8851.48C51799,8862.28 51805.9,8870.5 51814.9,8876.15C51824,8881.8 51834.8,8884.62 51847.3,8884.62C51857.1,8884.62 51865.6,8883.12 51872.7,8880.1C51879.9,8877.09 51885.8,8872.7 51890.4,8866.92C51895.1,8861.15 51898.3,8854.12 51900,8845.83L51927.9,8855.62C51923.6,8867.17 51917.8,8877.09 51910.4,8885.38C51903,8893.66 51894.1,8900 51883.6,8904.4C51873.2,8908.79 51861.4,8910.99 51848.1,8910.99C51830.5,8910.99 51814.8,8907.09 51801,8899.31C51787.2,8891.53 51776.4,8880.29 51768.6,8865.6C51760.8,8850.92 51756.9,8833.4 51756.9,8813.07C51756.9,8792.73 51760.8,8775.22 51768.6,8760.53C51776.4,8745.84 51787.2,8734.6 51801,8726.82C51814.8,8719.04 51830.5,8715.15 51848.1,8715.15Z" style="fill:rgb(250,250,250);fill-rule:nonzero;"/>
                <path d="M51979.1,8907.22L51979.1,8718.91L52003.6,8718.91L52007.7,8749.8C52013,8738.25 52020.7,8729.58 52030.9,8723.81C52041.1,8718.03 52053.4,8715.15 52068,8715.15C52071.3,8715.15 52074.8,8715.4 52078.7,8715.9C52082.6,8716.4 52085.9,8717.41 52088.7,8718.91L52083.4,8746.41C52080.7,8745.4 52077.7,8744.65 52074.4,8744.15C52071.1,8743.64 52066.5,8743.39 52060.5,8743.39C52052.7,8743.39 52044.8,8745.65 52036.9,8750.17C52029,8754.69 52022.4,8761.53 52017.1,8770.7C52011.9,8779.86 52009.2,8791.47 52009.2,8805.53L52009.2,8907.22L51979.1,8907.22Z" style="fill:rgb(250,250,250);fill-rule:nonzero;"/>
                <path d="M52202.8,8715.15C52220.6,8715.15 52236.4,8719.04 52250.1,8726.82C52263.8,8734.6 52274.5,8745.84 52282.3,8760.53C52290.1,8775.22 52293.9,8792.73 52293.9,8813.07C52293.9,8833.4 52290.1,8850.92 52282.3,8865.6C52274.5,8880.29 52263.8,8891.53 52250.1,8899.31C52236.4,8907.09 52220.6,8910.99 52202.8,8910.99C52185.2,8910.99 52169.5,8907.09 52155.7,8899.31C52141.9,8891.53 52131.1,8880.29 52123.3,8865.6C52115.6,8850.92 52111.7,8833.4 52111.7,8813.07C52111.7,8792.73 52115.6,8775.22 52123.3,8760.53C52131.1,8745.84 52141.9,8734.6 52155.7,8726.82C52169.5,8719.04 52185.2,8715.15 52202.8,8715.15ZM52202.8,8741.13C52190,8741.13 52179.1,8744.02 52170,8749.8C52161,8755.57 52154,8763.79 52149.1,8774.46C52144.2,8785.13 52141.8,8798 52141.8,8813.07C52141.8,8827.88 52144.2,8840.68 52149.1,8851.48C52154,8862.28 52161,8870.56 52170,8876.34C52179.1,8882.11 52190,8885 52202.8,8885C52215.6,8885 52226.5,8882.11 52235.6,8876.34C52244.6,8870.56 52251.6,8862.28 52256.5,8851.48C52261.4,8840.68 52263.8,8827.88 52263.8,8813.07C52263.8,8798 52261.4,8785.13 52256.5,8774.46C52251.6,8763.79 52244.6,8755.57 52235.6,8749.8C52226.5,8744.02 52215.6,8741.13 52202.8,8741.13Z" style="fill:rgb(250,250,250);fill-rule:nonzero;"/>
                <path d="M52364,8682.76C52357.2,8682.76 52351.7,8680.68 52347.6,8676.54C52343.5,8672.4 52341.4,8666.94 52341.4,8660.16C52341.4,8653.38 52343.5,8647.92 52347.6,8643.78C52351.7,8639.63 52357.2,8637.56 52364,8637.56C52370.8,8637.56 52376.2,8639.63 52380.4,8643.78C52384.5,8647.92 52386.6,8653.38 52386.6,8660.16C52386.6,8666.94 52384.5,8672.4 52380.4,8676.54C52376.2,8680.68 52370.8,8682.76 52364,8682.76ZM52379.1,8718.91L52379.1,8907.22L52348.9,8907.22L52348.9,8718.91L52379.1,8718.91Z" style="fill:rgb(250,250,250);fill-rule:nonzero;"/>
                <path d="M52465.3,8718.91L52521.4,8797.62L52523.3,8800.26L52600.5,8907.22L52563.6,8907.22L52505.2,8825.5L52501.8,8821.35L52427.6,8718.91L52465.3,8718.91ZM52599.4,8718.91L52524.8,8819.47L52522.9,8819.47L52458.1,8907.22L52423.1,8907.22L52505.2,8799.13L52507.5,8799.13L52564,8718.91L52599.4,8718.91Z" style="fill:rgb(250,250,250);fill-rule:nonzero;"/>
                <path d="M52661.1,8862.03C52668.4,8862.03 52674.3,8864.29 52678.8,8868.81C52683.3,8873.33 52685.6,8879.23 52685.6,8886.51C52685.6,8893.79 52683.3,8899.69 52678.8,8904.21C52674.3,8908.73 52668.4,8910.99 52661.1,8910.99C52653.8,8910.99 52647.9,8908.73 52643.4,8904.21C52638.9,8899.69 52636.6,8893.79 52636.6,8886.51C52636.6,8879.23 52638.9,8873.33 52643.4,8868.81C52647.9,8864.29 52653.8,8862.03 52661.1,8862.03Z" style="fill:rgb(250,250,250);fill-rule:nonzero;"/>
                <path d="M52814.8,8715.15C52827.8,8715.15 52839.3,8717.15 52849.2,8721.17C52859.1,8725.19 52867.7,8730.96 52875,8738.5C52882.3,8746.03 52888.2,8754.94 52892.7,8765.24L52864.1,8778.79C52860.1,8766.74 52854,8757.51 52845.8,8751.11C52837.7,8744.71 52827.1,8741.51 52814,8741.51C52801.5,8741.51 52790.7,8744.33 52781.6,8749.98C52772.6,8755.63 52765.7,8763.79 52760.9,8774.46C52756.1,8785.13 52753.8,8798 52753.8,8813.07C52753.8,8827.88 52756.1,8840.68 52760.9,8851.48C52765.7,8862.28 52772.6,8870.5 52781.6,8876.15C52790.7,8881.8 52801.5,8884.62 52814,8884.62C52823.8,8884.62 52832.3,8883.12 52839.4,8880.1C52846.6,8877.09 52852.5,8872.7 52857.1,8866.92C52861.8,8861.15 52865,8854.12 52866.7,8845.83L52894.6,8855.62C52890.3,8867.17 52884.5,8877.09 52877.1,8885.38C52869.7,8893.66 52860.8,8900 52850.4,8904.4C52839.9,8908.79 52828.1,8910.99 52814.8,8910.99C52797.2,8910.99 52781.5,8907.09 52767.7,8899.31C52753.9,8891.53 52743.1,8880.29 52735.3,8865.6C52727.5,8850.92 52723.6,8833.4 52723.6,8813.07C52723.6,8792.73 52727.5,8775.22 52735.3,8760.53C52743.1,8745.84 52753.9,8734.6 52767.7,8726.82C52781.5,8719.04 52797.2,8715.15 52814.8,8715.15Z" style="fill:rgb(250,250,250);fill-rule:nonzero;"/>
                <path d="M53023.8,8715.15C53041.6,8715.15 53057.4,8719.04 53071,8726.82C53084.7,8734.6 53095.5,8745.84 53103.2,8760.53C53111,8775.22 53114.9,8792.73 53114.9,8813.07C53114.9,8833.4 53111,8850.92 53103.2,8865.6C53095.5,8880.29 53084.7,8891.53 53071,8899.31C53057.4,8907.09 53041.6,8910.99 53023.8,8910.99C53006.2,8910.99 52990.5,8907.09 52976.7,8899.31C52962.9,8891.53 52952.1,8880.29 52944.3,8865.6C52936.5,8850.92 52932.6,8833.4 52932.6,8813.07C52932.6,8792.73 52936.5,8775.22 52944.3,8760.53C52952.1,8745.84 52962.9,8734.6 52976.7,8726.82C52990.5,8719.04 53006.2,8715.15 53023.8,8715.15ZM53023.8,8741.13C53011,8741.13 53000,8744.02 52991,8749.8C52982,8755.57 52975,8763.79 52970.1,8774.46C52965.2,8785.13 52962.8,8798 52962.8,8813.07C52962.8,8827.88 52965.2,8840.68 52970.1,8851.48C52975,8862.28 52982,8870.56 52991,8876.34C53000,8882.11 53011,8885 53023.8,8885C53036.6,8885 53047.5,8882.11 53056.5,8876.34C53065.6,8870.56 53072.5,8862.28 53077.4,8851.48C53082.3,8840.68 53084.8,8827.88 53084.8,8813.07C53084.8,8798 53082.3,8785.13 53077.4,8774.46C53072.5,8763.79 53065.6,8755.57 53056.5,8749.8C53047.5,8744.02 53036.6,8741.13 53023.8,8741.13Z" style="fill:rgb(250,250,250);fill-rule:nonzero;"/>
                <path d="M53169.9,8907.22L53169.9,8718.91L53196.3,8718.91L53198.1,8748.29C53204.9,8736.74 53213.8,8728.33 53224.7,8723.06C53235.6,8717.78 53246.8,8715.15 53258.4,8715.15C53271.7,8715.15 53284.3,8718.16 53296.1,8724.18C53307.9,8730.21 53316.9,8739.5 53323.2,8752.05C53327.2,8743.52 53332.8,8736.55 53340.1,8731.15C53347.4,8725.75 53355.4,8721.74 53364,8719.1C53372.7,8716.46 53380.9,8715.15 53388.7,8715.15C53400.8,8715.15 53412.2,8717.66 53423.2,8722.68C53434.1,8727.7 53443.1,8735.48 53450.1,8746.03C53457.1,8756.57 53460.6,8770.13 53460.6,8786.7L53460.6,8907.22L53430.5,8907.22L53430.5,8789.72C53430.5,8772.64 53426.2,8760.34 53417.7,8752.81C53409.2,8745.27 53398.6,8741.51 53386.1,8741.51C53376.3,8741.51 53367.1,8743.89 53358.6,8748.67C53350,8753.43 53343.2,8760.47 53338,8769.76C53332.9,8779.05 53330.3,8790.47 53330.3,8804.03L53330.3,8907.22L53300.2,8907.22L53300.2,8789.72C53300.2,8772.64 53295.9,8760.34 53287.4,8752.81C53278.9,8745.27 53268.3,8741.51 53255.8,8741.51C53247.5,8741.51 53239,8743.71 53230.3,8748.1C53221.7,8752.49 53214.5,8759.46 53208.7,8769C53202.9,8778.54 53200,8791.1 53200,8806.66L53200,8907.22L53169.9,8907.22Z" style="fill:rgb(250,250,250);fill-rule:nonzero;"/>
            </g>
        </g>
    </g>
</svg>
