<?xml version="1.0" encoding="UTF-8" standalone="no"?>
<!DOCTYPE svg PUBLIC "-//W3C//DTD SVG 1.1//EN" "http://www.w3.org/Graphics/SVG/1.1/DTD/svg11.dtd">
<svg width="100%" height="100%" viewBox="0 0 4000 2800" version="1.1" xmlns="http://www.w3.org/2000/svg" xmlns:xlink="http://www.w3.org/1999/xlink" xml:space="preserve" xmlns:serif="http://www.serif.com/" style="fill-rule:evenodd;clip-rule:evenodd;stroke-linejoin:round;stroke-miterlimit:2;">
    <g transform="matrix(1,0,0,1,-8996.27,-6480.8)">
        <g id="Plan-de-travail16" serif:id="Plan de travail16" transform="matrix(1.01561,0,0,1.00501,8293.45,6450.26)">
            <rect x="692.012" y="30.389" width="3938.52" height="2786.05" style="fill:none;"/>
            <clipPath id="_clip1">
                <rect x="692.012" y="30.389" width="3938.52" height="2786.05"/>
            </clipPath>
            <g clip-path="url(#_clip1)">
                <g transform="matrix(2.26815,0,0,2.36849,-1187.79,-1514.43)">
                    <rect x="828.782" y="652.241" width="1736.44" height="1176.3" style="fill:rgb(11,5,30);"/>
                </g>
                <g transform="matrix(0.98463,0,0,0.995019,610.8,156.87)">
                    <path d="M987.463,839.271C987.463,839.271 978.549,858.88 960.722,898.1C960.722,898.1 921.057,894.98 841.727,888.741C841.727,888.741 842.618,997.485 844.401,1214.98C844.401,1214.98 884.066,1208.29 963.396,1194.92C963.396,1194.92 957.157,1214.98 944.678,1255.09C944.678,1255.09 913.481,1260.43 851.086,1271.13C851.086,1271.13 850.64,1426.67 849.749,1737.75L808.301,1737.75C808.301,1737.75 801.616,1435.58 788.246,831.248C788.246,831.248 854.652,833.922 987.463,839.271Z" style="fill:white;fill-rule:nonzero;"/>
                    <g transform="matrix(1.30043,0,0,1.30043,-331.662,-522.014)">
                        <path d="M1309.43,1130.31C1309.43,1073.61 1263.83,1028 1206.69,1028C1149.56,1028 1103.95,1073.61 1103.95,1130.31L1103.95,1635.24C1103.95,1691.93 1149.56,1737.54 1206.69,1737.54C1263.83,1737.54 1309.43,1691.93 1309.43,1635.24L1309.43,1130.31ZM1259.05,1130.31L1259.05,1635.24C1259.05,1663.89 1235.59,1687.15 1206.69,1687.15C1177.8,1687.15 1154.34,1663.89 1154.34,1635.24L1154.34,1130.31C1154.34,1101.66 1177.8,1078.4 1206.69,1078.4C1235.59,1078.4 1259.05,1101.66 1259.05,1130.31Z" style="fill:white;fill-rule:nonzero;"/>
                    </g>
                    <g transform="matrix(1.17809,0,0,1.17809,-258.901,-309.458)">
                        <path d="M1967.5,1697.97L1503.33,954.335L1453.78,954.335L1453.78,958.762C1453.78,958.762 1475.47,959.444 1475.47,970.371L1475.47,1721.63C1475.47,1732.56 1453.78,1733.24 1453.78,1733.24L1453.78,1737.67L1513.06,1737.67L1513.06,1733.24C1513.06,1733.24 1491.35,1732.56 1491.35,1721.63L1491.35,989.981L1957.5,1737.67L1983.38,1737.67L1983.38,970.371C1983.38,959.444 2005.08,958.762 2005.08,958.762L2005.08,954.335L1945.8,954.335L1945.8,958.762C1945.8,958.762 1967.5,959.444 1967.5,970.371L1967.5,1697.97Z" style="fill:white;fill-rule:nonzero;"/>
                    </g>
                    <g transform="matrix(1.11874,0,0,1.11874,-257.657,-206.328)">
                        <path d="M2395.3,1017.01L2395.3,1737.67L2499.43,1737.67L2499.43,1017.01L2724.78,1017.01L2724.78,912.891L2169.95,912.891L2169.95,1017.01L2395.3,1017.01Z" style="fill:white;fill-rule:nonzero;"/>
                    </g>
                    <g transform="matrix(1.07395,0,0,1.07395,-137.428,-127.989)">
                        <path d="M3240.3,1514.22C3227.06,1569.15 3228.84,1609.9 3182.06,1656.2C3162.14,1669.43 3147.03,1679.85 3123.73,1694.77C3079.5,1722.43 3034.88,1730.85 2971.51,1730.86C2962.29,1730.46 2931.98,1729.59 2913.28,1727.55C2878.59,1723.77 2839.73,1696.51 2812.89,1675.83C2809.33,1673.09 2803.39,1654.26 2803.39,1638.23C2803.39,1630.26 2805.05,1623.78 2806.33,1622.03C2818.28,1605.72 2831.72,1592.73 2844.06,1592.73C2848.73,1592.73 2853.86,1594.35 2859.84,1599.14C2867.38,1605.17 2875.39,1612.23 2883.34,1619.22C2900.2,1634.06 2917.75,1650.23 2931.25,1654.01C2949.35,1659.06 2967.36,1660.41 2985.38,1660.41C2997.71,1660.41 3009.88,1659.78 3021.8,1659.25C3078.34,1656.71 3128.51,1623.88 3144.18,1570.49C3148.36,1556.43 3152.01,1542.05 3154.46,1527.45C3155.43,1521.72 3156.16,1515.59 3156.16,1509.37C3156.16,1504.98 3155.8,1500.56 3154.85,1496.22C3138.97,1421.8 3105.19,1356.88 3034.99,1314.41C3023.88,1307.71 3012.34,1302 3000.97,1296.38C2969.62,1280.86 2940.61,1264.26 2913.47,1245.39C2859.18,1207.67 2838.1,1152.26 2831.53,1088.34C2831.35,1086.55 2831.26,1084.69 2831.26,1082.81C2831.26,1076 2832.45,1068.79 2834.57,1062.47C2843.08,1036.97 2850.87,1011.83 2862.23,988.594C2880.05,952.146 2905.74,921.664 2939.72,898.734C2942.72,896.736 2948.02,893.032 2950.09,892.572C2984.99,885.098 3025.87,871.563 3064.42,871.563C3072.12,871.563 3079.86,872.069 3087.7,873.225C3102.82,875.492 3117.85,875.581 3132.23,877.432C3186.1,884.289 3228.62,911.655 3264.51,951.635C3269.61,957.319 3272.18,965.061 3272.18,973.153C3272.18,986.082 3265.59,998.872 3255,1004.5C3240.11,1012.43 3229.41,1018.33 3210.27,1018.33C3199.49,1018.33 3190.54,1015.8 3183.23,1006.21C3177.09,998.148 3169.54,992.105 3163.22,984.656C3134.3,950.282 3097.69,929.181 3051.23,920.544C3044.22,922.691 3035.96,926.06 3028.92,927.33C2981.26,936.1 2956.74,969.46 2939.63,1005.94C2927.61,1031.28 2919.08,1057.43 2919.08,1085.06C2919.08,1099.64 2921.48,1114.57 2926.93,1129.8C2933.97,1149.45 2944.08,1166.14 2959.87,1180.13C2981.17,1198.23 3004.5,1213.55 3030.28,1225.16C3061.5,1239.27 3089.94,1259.57 3118.01,1278.92C3172.2,1317.43 3208.45,1368.38 3226.51,1432.19C3231.68,1450.55 3235.97,1469.27 3239.46,1488.09C3240.51,1493.64 3241.31,1499.41 3241.31,1504.77C3241.31,1508.13 3241,1511.32 3240.3,1514.22Z" style="fill:white;fill-rule:nonzero;"/>
                    </g>
                </g>
            </g>
        </g>
    </g>
</svg>
