<?xml version="1.0" encoding="UTF-8" standalone="no"?>
<!DOCTYPE svg PUBLIC "-//W3C//DTD SVG 1.1//EN" "http://www.w3.org/Graphics/SVG/1.1/DTD/svg11.dtd">
<svg width="100%" height="100%" viewBox="0 0 4000 2800" version="1.1" xmlns="http://www.w3.org/2000/svg" xmlns:xlink="http://www.w3.org/1999/xlink" xml:space="preserve" xmlns:serif="http://www.serif.com/" style="fill-rule:evenodd;clip-rule:evenodd;stroke-linejoin:round;stroke-miterlimit:2;">
    <g transform="matrix(1,0,0,1,-8985.5,-9641.67)">
        <g id="Plan-de-travail16" serif:id="Plan de travail16" transform="matrix(1.01561,0,0,1.00501,8282.69,9611.13)">
            <rect x="692.012" y="30.389" width="3938.52" height="2786.05" style="fill:none;"/>
            <clipPath id="_clip1">
                <rect x="692.012" y="30.389" width="3938.52" height="2786.05"/>
            </clipPath>
            <g clip-path="url(#_clip1)">
                <g transform="matrix(2.26815,0,0,2.36849,-1187.79,-1514.43)">
                    <rect x="828.782" y="652.241" width="1736.44" height="1176.3" style="fill:rgb(11,5,30);"/>
                </g>
                <g transform="matrix(3.78617,0,0,3.82612,-39775.1,-47864.2)">
                    <g transform="matrix(0.384689,-0.00422734,0.00461996,0.420417,9244.34,12689.2)">
                        <path d="M4444.53,389.915C4454.61,378.327 4461.27,361.854 4462.39,337.869C4463.86,306.338 4449.75,286.335 4426.72,273.057C4396.45,255.6 4343.4,253.237 4290.66,251.047C4282.99,250.728 4275.51,253.263 4269.92,258.074C4264.32,262.885 4261.1,269.562 4260.97,276.585L4256.97,502.363C4256.73,516.418 4268.74,528.106 4284.08,528.744C4324.08,530.405 4373.94,534.807 4408.68,521.678C4439.41,510.062 4462.16,487.704 4463.99,443.584C4464.84,423.1 4459.52,405.032 4445.47,390.831L4444.53,389.915ZM4315.36,413.38L4314.2,478.526C4339.74,480.217 4366.64,481.338 4387,473.643C4399.22,469.025 4406.51,459.152 4407.23,441.61C4407.53,434.516 4407.25,427.773 4400.66,423.584C4393.54,419.061 4382.74,416.817 4367.47,415.781C4352.3,415.707 4334.86,414.509 4315.36,413.38ZM4316.28,361.484C4334.4,362.695 4350.51,364.087 4364.39,364.199C4366.57,363.86 4368.82,363.757 4371.13,363.909L4373.5,364.085C4379.99,363.829 4385.9,363.162 4391.21,361.905C4401.89,359.376 4404.92,351.118 4405.64,335.658C4406.25,322.683 4397.87,316.41 4386.07,312.635C4367.39,306.651 4343.03,305.046 4317.29,304.04L4316.28,361.484Z" style="fill:white;"/>
                    </g>
                    <g transform="matrix(0.339875,-0.00301704,0.00461996,0.339612,9453.15,12721.5)">
                        <path d="M4528.72,487.414L4528.47,457.56C4528.37,438.028 4529.38,418.467 4531.09,398.941C4533.73,368.88 4538.02,338.904 4542.59,309.241C4545.3,291.682 4533.26,275.295 4515.73,272.671C4498.19,270.046 4481.76,282.171 4479.06,299.73C4474.27,330.777 4469.81,362.154 4467.05,393.618C4465.16,415.129 4464.07,436.681 4464.18,458.2C4464.23,467.95 4462.65,491.376 4466.24,506.331C4468.83,517.102 4473.8,525.436 4479.53,530.958C4491.55,542.547 4506.87,549.192 4524.06,551.829C4550.07,555.82 4581.46,549.218 4603.23,546.561C4620.85,544.411 4633.48,528.358 4631.42,510.734C4629.35,493.111 4613.37,480.548 4595.75,482.698C4582.5,484.315 4565.07,488.131 4548.14,488.806C4541.26,489.081 4534.24,489.728 4528.72,487.414Z" style="fill:white;"/>
                    </g>
                    <g transform="matrix(0.363719,-0.0032287,0.00480654,0.353328,9333.46,12719.1)">
                        <path d="M4686.44,308.342C4683.11,339.561 4675.81,389.248 4677.28,431.253C4678.1,454.883 4681.83,476.371 4689.04,492.656C4706.26,531.519 4744.8,549.778 4783.63,548.529C4824.13,547.226 4862.78,524.106 4876.39,488.057C4886.12,462.284 4891.12,437.537 4893.4,413.488C4896.9,376.557 4893.72,341.417 4892.18,306.761C4891.42,289.718 4877.36,276.58 4860.8,277.441C4844.23,278.302 4831.4,292.838 4832.16,309.881C4833.58,341.67 4836.82,373.897 4833.61,407.774C4831.84,426.513 4827.99,445.81 4820.41,465.893C4815.03,480.138 4798.04,486.205 4782.04,486.72C4766.75,487.212 4750.5,482.079 4743.72,466.782C4737.72,453.222 4736.86,433.84 4737.2,413.41C4737.8,378.149 4743.46,340.039 4746.15,314.799C4747.96,297.828 4736.05,282.602 4719.57,280.82C4703.09,279.038 4688.24,291.37 4686.44,308.342Z" style="fill:white;"/>
                    </g>
                    <g transform="matrix(0.252786,-0.00248122,0.00326084,0.265048,9919.09,12847.5)">
                        <path d="M4693.06,309.373C4689.78,340.184 4682.52,389.199 4683.95,430.669C4684.72,452.884 4688.09,473.125 4694.86,488.43C4710.97,524.782 4747.4,541.1 4783.72,539.88C4821.38,538.615 4857.71,517.995 4870.37,484.475C4879.77,459.574 4884.59,435.664 4886.78,412.433C4890.21,376.063 4887.02,341.455 4885.5,307.322C4884.96,295.041 4874.06,285.519 4861.18,286.07C4848.3,286.622 4838.29,297.04 4838.84,309.32C4840.27,341.546 4843.5,374.216 4840.26,408.553C4838.41,428.196 4834.38,448.421 4826.43,469.475C4820.13,486.152 4800.93,494.731 4782.19,495.361C4764.33,495.961 4745.82,488.887 4737.9,471.008C4731.39,456.318 4730.14,435.37 4730.52,413.234C4731.13,377.661 4736.82,339.228 4739.53,313.769C4740.83,301.536 4731.48,290.619 4718.66,289.406C4705.83,288.193 4694.36,297.14 4693.06,309.373Z" style="fill:white;"/>
                    </g>
                    <g transform="matrix(0.384857,-0.00345905,0.00461996,0.343858,9228.72,12719)">
                        <path d="M5452.48,377.097C5467.86,407.985 5483.19,438.859 5498.13,469.929C5508.43,491.351 5518.54,512.867 5528.36,534.545C5535.43,550.158 5552.52,556.352 5566.5,548.37C5580.48,540.387 5586.1,521.231 5579.03,505.618C5569,483.479 5558.67,461.504 5548.15,439.625C5532.49,407.068 5516.42,374.722 5500.3,342.355C5495.35,332.418 5490.43,322.461 5485.01,312.793C5481.09,305.813 5476.91,298.981 5472.31,292.387C5472.46,292.602 5473.09,293.561 5473.09,293.561C5473.09,293.561 5469.57,288.212 5468.3,286.741C5459.01,275.991 5448.51,276.524 5444.22,277.111C5437.88,277.981 5427.61,282.111 5420,295.624C5413.05,307.974 5403.64,342.897 5401.67,348.471C5388.43,385.953 5371.62,421.003 5357.76,457.682C5351.37,474.562 5345.59,491.767 5340.9,509.623C5336.47,526.467 5345.08,544.1 5360.11,548.975C5375.15,553.851 5390.94,544.135 5395.36,527.291C5399.43,511.792 5404.49,496.87 5410.03,482.218C5423.39,446.874 5439.41,413.004 5452.48,377.097Z" style="fill:white;"/>
                    </g>
                    <g transform="matrix(0.384857,-0.00345905,0.00461996,0.343858,9228.72,12720.7)">
                        <path d="M5402.23,478.551C5423.6,474.31 5461.85,475.455 5490.42,472.154C5500.75,470.961 5510.05,469.211 5517.54,466.83C5532.63,462.036 5541.46,444.45 5537.24,427.583C5533.03,410.717 5517.35,400.915 5502.26,405.709C5495.01,408.014 5485.21,409.094 5474.51,409.93C5446.07,412.151 5412.44,412.041 5392.56,415.988C5377.12,419.054 5366.75,435.559 5369.43,452.824C5372.1,470.089 5386.8,481.617 5402.23,478.551Z" style="fill:white;"/>
                    </g>
                    <g transform="matrix(0.34861,-0.00313326,0.00429571,0.319724,9438.02,12729.7)">
                        <path d="M5586.41,303.024C5590.94,344.315 5594.76,386.457 5595.9,428.514C5596.64,455.983 5596.22,483.415 5594.06,510.533C5592.57,529.327 5605.34,545.844 5622.57,547.393C5639.8,548.942 5655.01,534.94 5656.51,516.146C5658.88,486.409 5659.36,456.328 5658.55,426.205C5657.36,382.105 5653.39,337.909 5648.65,294.611C5646.59,275.896 5630.98,262.587 5613.81,264.908C5596.63,267.23 5584.36,284.309 5586.41,303.024Z" style="fill:white;"/>
                    </g>
                    <g transform="matrix(0.34861,-0.00313326,0.00429571,0.319724,9438.02,12729.7)">
                        <path d="M5648.35,461.601C5676.87,433.564 5714.97,399.861 5748.33,367.208C5764.05,351.822 5778.75,336.643 5791.09,322.343C5802.97,308.58 5802.41,286.939 5789.84,274.046C5777.27,261.153 5757.42,261.86 5745.54,275.623C5734.3,288.644 5720.88,302.436 5706.57,316.447C5673.18,349.133 5635.04,382.873 5606.49,410.939C5593.62,423.595 5592.54,445.221 5604.1,459.202C5615.65,473.182 5635.48,474.257 5648.35,461.601Z" style="fill:white;"/>
                    </g>
                    <g transform="matrix(0.34861,-0.00313326,0.00429571,0.319724,9438.02,12729.7)">
                        <path d="M5661.15,417.883C5673.07,440.662 5686,462.242 5700.02,483.085C5713.82,503.606 5728.68,523.412 5744.7,542.945C5756.2,556.974 5776.03,558.132 5788.94,545.53C5801.86,532.927 5803.01,511.306 5791.51,497.276C5776.86,479.404 5763.25,461.289 5750.62,442.512C5738,423.744 5726.35,404.315 5715.61,383.804C5707.05,367.458 5687.9,361.822 5672.87,371.226C5657.84,380.631 5652.59,401.537 5661.15,417.883Z" style="fill:white;"/>
                    </g>
                    <g transform="matrix(0.336556,-0.00302492,0.00497693,0.370427,9519.37,12708.1)">
                        <path d="M5850.4,440.246L5923.02,437.911C5940.91,436.935 5954.62,422.952 5953.63,406.704C5952.64,390.456 5937.3,378.057 5919.42,379.033L5852.28,381.28C5834.37,380.88 5819.41,393.766 5818.89,410.038C5818.37,426.311 5832.49,439.846 5850.4,440.246Z" style="fill:white;"/>
                    </g>
                    <g transform="matrix(0.336556,-0.00298757,0.00497693,0.365853,9175.06,12716.8)">
                        <path d="M5871.38,473.957L5870.51,438.848C5869,418.877 5866.35,389.867 5866.07,362.742C5865.99,355.065 5866.07,347.556 5866.48,340.533L5954.78,338.562C5972.68,337.763 5986.58,323.749 5985.79,307.288C5985.01,290.827 5969.84,278.111 5951.94,278.911L5850.82,281.156C5850.03,281.163 5839.65,280.946 5835.63,281.354C5813.45,283.606 5807.31,300.206 5806.15,304.864C5802.29,320.428 5800.93,341.458 5801.15,363.586C5801.44,391.982 5804.16,422.354 5805.74,443.26C5805.74,443.26 5806.72,485.309 5806.72,485.309C5806.74,486.582 5807.31,499.901 5807.13,505.259C5806.72,517.585 5822.07,538.172 5843.57,536.319C5920.12,529.72 5946.89,527.327 5946.89,527.327C5964.74,525.792 5977.94,511.223 5976.36,494.814C5974.77,478.405 5959,466.33 5941.15,467.865L5871.38,473.957Z" style="fill:white;"/>
                    </g>
                    <g transform="matrix(0.336556,-0.00298757,0.00497693,0.365853,9517.33,12710.5)">
                        <path d="M5871.38,473.957L5870.51,438.848C5869,418.877 5866.35,389.867 5866.07,362.742C5865.99,355.065 5866.07,347.556 5866.48,340.533L5954.78,338.562C5972.68,337.763 5986.58,323.749 5985.79,307.288C5985.01,290.827 5969.84,278.111 5951.94,278.911L5850.82,281.156C5850.03,281.163 5839.65,280.946 5835.63,281.354C5813.45,283.606 5807.31,300.206 5806.15,304.864C5802.29,320.428 5800.93,341.458 5801.15,363.586C5801.44,391.982 5804.16,422.354 5805.74,443.26C5805.74,443.26 5806.72,485.309 5806.72,485.309C5806.74,486.582 5807.31,499.901 5807.13,505.259C5806.72,517.585 5822.07,538.172 5843.57,536.319C5920.12,529.72 5946.89,527.327 5946.89,527.327C5964.74,525.792 5977.94,511.223 5976.36,494.814C5974.77,478.405 5959,466.33 5941.15,467.865L5871.38,473.957Z" style="fill:white;"/>
                    </g>
                    <g transform="matrix(0.336556,-0.00298757,0.00497693,0.365853,9175.06,12716.8)">
                        <path d="M5850.4,440.615L5922.99,438.28C5940.88,437.304 5954.61,423.155 5953.63,406.704C5952.65,390.252 5937.34,377.687 5919.45,378.663L5852.28,380.911C5834.37,380.511 5819.41,393.563 5818.89,410.038C5818.37,426.514 5832.49,440.215 5850.4,440.615Z" style="fill:white;"/>
                    </g>
                    <g transform="matrix(0.233908,-0.00229592,0.00345899,0.281155,9988.47,12839.5)">
                        <path d="M5864.39,483.44L5863.31,439.688C5861.79,419.549 5859.13,390.295 5858.85,362.941C5858.74,351.963 5858.97,341.312 5859.9,331.817L5954.65,329.704C5968.57,329.082 5979.28,319.183 5978.57,307.611C5977.86,296.038 5965.98,287.148 5952.07,287.769L5850.78,290.019C5850,290.026 5839.89,289.797 5835.99,290.197C5818.7,291.973 5813.99,303.53 5813.08,307.18C5809.39,322.08 5808.16,342.22 5808.37,363.403C5808.66,391.566 5811.37,421.686 5812.93,442.421L5813.94,485.089C5813.96,486.357 5814.23,499.613 5814.35,504.948C5814.36,505.395 5813.54,518.529 5820,523.495C5827.82,529.5 5843.17,527.479 5843.08,527.489C5843.08,527.489 5946.56,518.482 5946.56,518.482C5960.42,517.29 5970.53,506.963 5969.14,495.436C5967.74,483.908 5955.35,475.518 5941.49,476.71L5864.39,483.44Z" style="fill:white;"/>
                    </g>
                    <g transform="matrix(0.233908,-0.00229592,0.00345899,0.281155,9988.47,12839.5)">
                        <path d="M5850.6,431.753C5860.47,431.973 5870.35,431.848 5880.23,431.527C5894.44,431.066 5908.64,430.197 5922.81,429.424C5936.71,428.666 5947.28,418.662 5946.41,407.098C5945.53,395.534 5933.53,386.761 5919.63,387.519C5905.91,388.268 5892.15,389.118 5878.39,389.564C5869.62,389.849 5860.84,389.969 5852.08,389.773C5838.15,389.462 5826.52,398.615 5826.11,410.2C5825.7,421.784 5836.67,431.442 5850.6,431.753Z" style="fill:white;"/>
                    </g>
                    <g transform="matrix(0.292192,-0.002868,0.00321089,0.260989,9736.04,12772.1)">
                        <path d="M4634.17,629.893C4589.25,580.134 4539.8,574.939 4503.21,594.571C4463.64,615.808 4437.1,667.653 4446.69,732.264C4454.24,783.062 4484.6,818.948 4519.22,834.073C4560.17,851.967 4606.73,841.423 4632.46,795.083C4638.36,784.469 4635.45,770.515 4625.99,763.943C4616.52,757.37 4604.05,760.652 4598.16,771.266C4583.65,797.382 4557.07,802.009 4533.99,791.924C4511.23,781.977 4491.52,758.141 4486.56,724.733C4480.4,683.302 4495.23,648.975 4520.6,635.358C4544.61,622.475 4576.23,629.435 4605.71,662.088C4613.62,670.858 4626.43,670.766 4634.28,661.881C4642.13,652.997 4642.08,638.663 4634.17,629.893Z" style="fill:white;"/>
                    </g>
                    <g transform="matrix(0.427326,0.0331051,-0.0284097,0.366717,9319.61,12429.8)">
                        <path d="M4625.9,610.703C4586.89,565.553 4533.74,564.75 4494.02,593.004C4457.45,619.022 4432.06,669.948 4441.51,733.566C4449.52,787.495 4481.82,825.587 4518.65,841.241C4561.51,859.456 4609.84,847.698 4636.71,799.312C4644.35,785.548 4640.97,767.143 4629.16,758.236C4617.35,749.33 4601.55,753.273 4593.91,767.037C4580.86,790.522 4556.92,794.271 4536.12,785.429C4514.92,776.419 4496.36,754.471 4491.74,723.431C4486.41,687.528 4499.94,658.393 4520.59,643.709C4541.48,628.847 4569.45,629.104 4589.98,652.855C4599.96,664.407 4616.11,664.343 4626.03,652.711C4635.94,641.079 4635.88,622.256 4625.9,610.703Z" style="fill:white;"/>
                    </g>
                    <g transform="matrix(0.292192,-0.002868,0.00321089,0.260989,9732.53,12772.3)">
                        <path d="M4920,593.959C4918.5,629.378 4917.36,664.795 4916.61,700.219C4915.87,735.663 4915.52,771.114 4915.59,806.581C4915.62,819.065 4924.7,829.15 4935.85,829.089C4947,829.027 4956.03,818.841 4956,806.357C4955.93,771.283 4956.27,736.224 4957.01,701.173C4957.75,666.11 4958.88,631.053 4960.37,595.995C4960.9,583.523 4952.28,572.942 4941.15,572.38C4930.01,571.818 4920.53,581.488 4920,593.959Z" style="fill:white;"/>
                    </g>
                    <g transform="matrix(0.292192,-0.002868,0.00302738,0.246073,9732.67,12783.4)">
                        <path d="M5172.69,644.99C5166.8,601.08 5130.83,568.416 5094.28,563.609C5074.14,560.961 5054.23,566.562 5038.98,581.36C5026.07,593.888 5016.07,613.175 5013.05,641.231C5010.41,665.833 5016.39,684.149 5027.08,698.862C5042.24,719.73 5070.05,731.921 5094.49,745.691C5109.5,754.148 5124.59,761.788 5122.47,782.626C5121.57,791.528 5116.2,797.451 5109.53,801.285C5100.97,806.206 5090.28,807.899 5079.66,806.753C5060.49,804.683 5040.59,793.372 5035.76,769.208C5033.19,756.332 5022.29,748.384 5011.44,751.471C5000.59,754.558 4993.87,767.518 4996.44,780.394C5005.46,825.534 5040.09,850.672 5075.9,854.538C5117.86,859.068 5157.99,833.435 5162.59,788.269C5165.11,763.502 5158.64,745.219 5147.21,730.576C5131.72,710.746 5103.99,699.089 5079.99,685.228C5065.26,676.725 5050.86,668.353 5053.14,647.195C5054.56,633.971 5058.42,624.386 5064.51,618.481C5071.41,611.78 5080.61,610.101 5089.73,611.3C5109.17,613.856 5129.65,629.308 5132.79,652.658C5134.54,665.729 5144.91,674.623 5155.92,672.507C5166.93,670.391 5174.45,658.061 5172.69,644.99Z" style="fill:white;"/>
                    </g>
                    <g transform="matrix(0.292192,-0.002868,0.00321089,0.260989,9732.53,12772.3)">
                        <path d="M5221.96,607.852C5218.37,640.459 5216.27,676.239 5215.23,711.897C5214.18,747.646 5214.18,783.268 5214.76,815.388C5214.99,827.869 5224.23,837.771 5235.37,837.487C5246.52,837.202 5255.39,826.838 5255.16,814.357C5254.6,782.984 5254.59,748.188 5255.61,713.27C5256.62,679.002 5258.61,644.614 5262.07,613.277C5263.43,600.883 5255.55,589.605 5244.49,588.108C5233.42,586.611 5223.32,595.457 5221.96,607.852Z" style="fill:white;"/>
                    </g>
                    <g transform="matrix(0.292127,-0.00677171,0.00669767,0.260923,9730.43,12793.4)">
                        <path d="M5435.76,733.904C5423.64,705.268 5408.71,672.455 5392.31,646.315C5373.48,616.317 5351.67,595.446 5330.83,591.422C5327.53,590.784 5310.09,590.362 5306.89,611.757C5306.42,614.949 5305.89,621.82 5305.46,631.244C5303.46,675.272 5302.16,782.779 5302.59,802.467C5302.86,814.947 5312.12,824.809 5323.27,824.475C5334.42,824.142 5343.25,813.74 5342.98,801.26C5342.62,784.411 5343.55,701.946 5345.11,652.567C5349.92,658.317 5354.62,665.055 5359.22,672.383C5385.99,715.032 5408.31,776.6 5420.35,804.225C5426.15,817.531 5431.98,825.198 5434.72,827.317C5439.66,831.152 5444.84,832.079 5450.05,830.997C5453.44,830.295 5462.33,827.687 5466.38,814.433C5467.47,810.897 5468.98,802.812 5470.42,791.475C5476.21,746.179 5484.47,639.145 5485.12,597.794C5485.32,585.311 5476.43,575.022 5465.28,574.832C5454.13,574.641 5444.92,584.621 5444.72,597.104C5444.27,625.436 5440.14,685.523 5435.76,733.904Z" style="fill:white;"/>
                    </g>
                </g>
            </g>
        </g>
    </g>
</svg>
