<?xml version="1.0" encoding="UTF-8" standalone="no"?>
<!DOCTYPE svg PUBLIC "-//W3C//DTD SVG 1.1//EN" "http://www.w3.org/Graphics/SVG/1.1/DTD/svg11.dtd">
<svg width="100%" height="100%" viewBox="0 0 4000 2800" version="1.1" xmlns="http://www.w3.org/2000/svg" xmlns:xlink="http://www.w3.org/1999/xlink" xml:space="preserve" xmlns:serif="http://www.serif.com/" style="fill-rule:evenodd;clip-rule:evenodd;stroke-linecap:round;stroke-linejoin:round;stroke-miterlimit:1.5;">
    <g transform="matrix(1,0,0,1,-1.13687e-13,-4774.31)">
        <g id="Plan-de-travail16" serif:id="Plan de travail16" transform="matrix(1.01561,0,0,1.00501,-702.814,4743.77)">
            <rect x="692.012" y="30.389" width="3938.52" height="2786.05" style="fill:none;"/>
            <clipPath id="_clip1">
                <rect x="692.012" y="30.389" width="3938.52" height="2786.05"/>
            </clipPath>
            <g clip-path="url(#_clip1)">
                <g transform="matrix(2.26815,0,0,2.36849,-1187.79,-1514.43)">
                    <rect x="828.782" y="652.241" width="1736.44" height="1176.3" style="fill:rgb(11,5,30);"/>
                </g>
                <g>
                    <g transform="matrix(0.643612,0,0,0.650404,-1989.81,176.955)">
                        <path d="M5693.85,3552.04C5691.72,3379.14 5688.95,3214.99 5685.42,3100.09C5678.3,2869.01 5772.45,2488.93 5829.71,2466.37C6050.62,2379.31 6758.22,2162.58 6758.22,2162.58C6758.22,2162.58 7078.3,2376.6 7236.8,2373.97C7395.31,2371.35 7709.24,2146.82 7709.24,2146.82L7867.51,2147.54C7867.51,2147.54 8420.84,2325.1 8624.27,2404.25C8682.98,2427.08 8734.68,2667.72 8768.02,2893.68" style="fill:rgb(11,5,30);"/>
                        <path d="M5695.93,3552.01C5695.95,3456.66 5695.82,3363.99 5695.21,3280.75C5694.7,3212.97 5693.86,3151.47 5692.83,3099.87C5690.44,2985.81 5713.4,2835.57 5743.8,2710.39C5763.95,2627.44 5787.31,2555.56 5809.15,2513.01C5814.37,2502.85 5819.45,2494.46 5824.39,2488.16C5828.05,2483.48 5831.26,2480.04 5834.59,2478.75C5896.93,2454.57 5998.05,2420.43 6110.99,2383.57C6194.91,2356.18 6285.38,2327.41 6371.36,2300.15C6556.29,2241.52 6720.66,2190.48 6755.84,2179.57C6784.32,2198.07 6905.85,2275.4 7028.86,2330.17C7104.48,2363.84 7180.76,2388.74 7237.03,2387.59C7293.24,2386.39 7368.51,2358.37 7442.77,2321.6C7568.94,2259.13 7692.6,2172.21 7712.78,2157.83C7712.78,2157.83 7865.95,2157.68 7865.95,2157.68C7886.6,2164.18 8110.48,2234.79 8320.6,2304.49C8438.18,2343.5 8551.44,2382.2 8622.32,2409.27C8647.16,2418.76 8669.92,2468.79 8691.68,2539.7C8720.76,2634.5 8746.32,2766.56 8765.97,2893.98C8766.14,2895.11 8767.19,2895.9 8768.32,2895.73C8769.46,2895.56 8770.24,2894.51 8770.07,2893.38C8752.04,2765.34 8728.16,2632.58 8700.19,2537.15C8678.09,2461.73 8652.42,2409.59 8626.23,2399.22C8555.57,2371.23 8442.61,2331.05 8325.31,2290.58C8105.55,2214.76 7870.61,2137.88 7870.61,2137.88C7869.62,2137.56 7868.59,2137.4 7867.56,2137.39L7709.29,2135.81C7706.98,2135.8 7704.72,2136.52 7702.84,2137.86C7702.84,2137.86 7568.6,2232.84 7431.69,2298.95C7361.05,2333.07 7289.81,2359.72 7236.58,2360.35C7183.45,2361.02 7111.86,2336.12 7040.7,2303.82C6902.75,2241.19 6766.85,2149.67 6766.85,2149.67C6762.97,2147.08 6758.13,2146.37 6753.67,2147.73C6753.67,2147.73 6631.81,2184.6 6473.56,2234.51C6386.76,2261.89 6289.02,2293.21 6194.4,2324.38C6045.26,2373.51 5903.9,2422.35 5824.83,2453.99C5813.24,2458.64 5799.18,2474.76 5786.01,2501.34C5764.19,2545.41 5740.95,2619.59 5721.74,2705.24C5693.21,2832.43 5673.31,2984.97 5678.01,3100.32C5680.63,3163.09 5683.13,3240.56 5685.63,3326.13C5687.71,3397.13 5689.83,3473.69 5691.78,3552.06C5691.79,3553.21 5692.73,3554.12 5693.88,3554.11C5695.02,3554.1 5695.94,3553.16 5695.93,3552.01Z" style="fill:white;"/>
                    </g>
                    <g transform="matrix(0.643612,0,0,0.650404,-2055.5,197.768)">
                        <path d="M7932.99,3062.37L8092.53,2742.01L7867.36,2536.73C7867.36,2536.73 8248,2105.85 8185.39,2046.42C8048.47,1916.44 7832.85,1766.36 7832.85,1766.36L6885,1748.56C6885,1748.56 6573.11,1915.8 6449.81,2100.94C6411.56,2158.37 6808.34,2555.92 6808.34,2555.92L6608.1,2799.44L6889.58,3285.82" style="fill:rgb(11,5,30);"/>
                        <path d="M7934.88,3063.31L8098.34,2744.9C8099.63,2742.3 8099.04,2739.16 8096.9,2737.21C8096.9,2737.21 7918.88,2571.42 7880.96,2536.1C7912.12,2501.02 8051.43,2342.35 8136.8,2214.95C8171.83,2162.68 8197.61,2115.28 8204.58,2083.32C8209.3,2061.7 8205.38,2045.59 8195.34,2035.93C8143.9,1986.66 8081.37,1934.45 8023.22,1888.53C7926.51,1812.16 7842.07,1753.12 7842.07,1753.12C7839.44,1751.3 7836.34,1750.29 7833.15,1750.23C7833.15,1750.23 7655.5,1746.71 7454.01,1743.34C7190.08,1738.94 6885.26,1734.69 6885.26,1734.69C6882.89,1734.64 6880.54,1735.21 6878.45,1736.33C6878.45,1736.33 6729.73,1816.94 6596.88,1928.33C6536.41,1979.03 6479.26,2036.12 6440.61,2094.81C6434.72,2103.76 6434.82,2119.15 6443.29,2139.01C6455.85,2168.49 6485.82,2211.11 6523.68,2258.02C6620.68,2378.22 6769.34,2527.81 6798.03,2556.47C6798.03,2556.47 6603.68,2795.8 6603.68,2795.8C6602.16,2797.65 6601.95,2800.24 6603.15,2802.31L6887.75,3286.88C6888.33,3287.89 6889.63,3288.23 6890.64,3287.65C6891.65,3287.06 6891.99,3285.77 6891.41,3284.76C6891.41,3284.76 6639.97,2843.77 6615.04,2800.05C6615.04,2800.05 6814.26,2560.78 6814.26,2560.78C6816.76,2557.74 6816.55,2553.3 6813.76,2550.51C6813.76,2550.51 6645.14,2379.53 6539.44,2245.45C6503.64,2200.03 6475.06,2159.02 6463.31,2130.6C6460.59,2124.02 6458.83,2118.24 6458.33,2113.37C6458.06,2110.79 6457.96,2108.62 6459.01,2107.07C6497.12,2050.48 6553.31,1995.78 6612.51,1947.16C6732.98,1848.2 6866.15,1774.55 6888.34,1762.51C6923.3,1763.34 7206.27,1769.98 7453.41,1775.14C7635.31,1778.94 7797.79,1781.87 7827.65,1782.41C7847.93,1796.58 7941.78,1862.73 8039.41,1940.6C8086.5,1978.15 8134.5,2018.39 8175.44,2056.9C8177.64,2058.96 8178.02,2062.23 8178.04,2066.12C8178.07,2073.55 8175.99,2082.57 8172.41,2092.92C8162.46,2121.75 8141.27,2159.31 8114.66,2200.36C8021.02,2344.75 7860.06,2530.29 7860.06,2530.29C7856.54,2534.27 7856.87,2540.35 7860.8,2543.93L8084.56,2743.59C8084.56,2743.59 7931.09,3061.42 7931.09,3061.42C7930.57,3062.47 7931,3063.74 7932.04,3064.26C7933.09,3064.78 7934.36,3064.35 7934.88,3063.31Z" style="fill:white;"/>
                    </g>
                    <g transform="matrix(0.643612,0,0,0.881695,1374.05,197.768)">
                        <g transform="matrix(1,0,1.38778e-17,0.737674,-17028.9,0)">
                            <path d="M18395,1216.12C18395,1216.12 18386.1,1176.31 18375.8,1120.5C18358.1,1024.66 18336.3,881.674 18348.7,812.123C18366.5,712.243 18430.7,615.416 18512.8,555.791C18598.5,493.531 18739.5,431.902 18874.3,396.088C18893.9,390.869 19040.6,370.21 19103.3,368.684C19256.4,364.959 19428.5,378.583 19428.5,378.583C19325,307.316 19205.1,282.564 19028.9,291.78C19028.9,291.78 18969.6,249.567 18862,248.853C18784.4,248.337 18671.6,309.575 18671.6,309.575C18671.6,309.575 18565.1,362.796 18525.2,397.762C18484.6,433.212 18428.4,522.274 18428.4,522.274C18357.6,559.197 18303.8,607.738 18288.9,683.121L18234.2,708.618L18206,814.838L18172.8,809.527C18183.8,856.73 18205.3,901.505 18261.7,938.211C18241.4,1024.27 18273.5,1119.73 18323.2,1233.75L18395,1216.12Z" style="fill:rgb(11,5,30);"/>
                            <path d="M18395,1216.12L18395,1216.12L18395,1216.12L18395,1216.12L18377.6,1120.15C18368.7,1066.33 18358.9,997.703 18354.3,935.583C18350.7,887.537 18350.2,843.461 18356.1,813.441C18365.6,764.688 18386.5,716.927 18415.2,674.165C18443.7,631.71 18479.8,594.261 18520.1,565.898C18565.4,533.94 18626,502.519 18692.7,474.821C18752,450.248 18816,428.65 18878.7,412.706C18889.4,409.948 18938.5,402.945 18990.6,396.96C19032.5,392.143 19076.3,388.037 19103.8,387.564C19158.1,386.464 19214.9,387.682 19265.4,389.465C19356.3,392.676 19427,398.103 19427,398.103C19435.8,398.802 19444,393.483 19447,385.133C19449.9,376.783 19446.9,367.483 19439.6,362.457C19391.7,329.68 19340.5,306.335 19282.2,291.63C19211.8,273.88 19131.1,268.684 19033.5,274.055C19022.5,267.395 18994.9,252.725 18952.4,242.77C18927.5,236.922 18897.2,232.665 18862.1,232.715C18836.3,232.772 18806.7,239.152 18778.4,248.128C18720.2,266.605 18667.2,295.616 18664.8,296.916C18660.7,299.053 18615.9,322.072 18574.6,347.46C18552.1,361.3 18530.6,375.867 18516.8,388.174C18503.2,400.33 18487.8,418.381 18473.4,437.258C18448.6,469.713 18426.4,504.482 18420.5,513.878C18386.1,532.528 18355.8,553.914 18332,579.7C18307,606.779 18289.1,638.62 18281.2,677.126C18281.2,677.125 18230.8,701.302 18230.8,701.302C18228.6,702.313 18227,704.234 18226.4,706.547L18200.9,807.193C18200.9,807.193 18173.8,803.176 18173.8,803.176C18171.7,802.838 18169.6,803.574 18168.1,805.14C18166.7,806.706 18166.1,808.897 18166.6,810.983C18173,837.192 18182.5,862.627 18199.3,886.332C18212.9,905.659 18231.2,923.867 18256.6,940.355C18248.6,978.492 18250.6,1018.34 18259.7,1060.68C18271.2,1113.96 18294,1171.22 18322.3,1234.12C18322.5,1234.53 18323,1234.75 18323.4,1234.64L18395,1216.12ZM18395,1216.12L18395,1216.12L18323.7,1232.68C18297.3,1169.72 18276.1,1112.46 18265.9,1059.41C18257.8,1016.87 18256.8,977.091 18266.2,939.265C18266.7,937.378 18265.9,935.415 18264.2,934.358C18239.2,917.664 18221.3,899.412 18208.3,880.08C18195,860.18 18186.8,839.133 18181.3,817.513C18181.3,817.514 18204.9,821.568 18204.9,821.568C18208.4,822.121 18211.7,819.969 18212.6,816.587C18212.6,816.587 18241,714.415 18241,714.415C18241,714.415 18292.6,691.061 18292.6,691.061C18295.1,689.879 18297,687.558 18297.5,684.813C18305.1,648.211 18322.5,618.437 18346.6,593.423C18370,569.081 18399.9,549.284 18433.6,532.14C18435.3,531.23 18436.8,529.875 18437.8,528.213C18437.8,528.213 18463.4,488.594 18492.5,452.136C18506.2,434.9 18520.7,418.369 18533.5,407.351C18546.7,396.109 18567.1,383.029 18588.4,370.493C18631.5,345.195 18678,322.412 18678,322.412C18678.2,322.34 18678.3,322.265 18678.4,322.188C18678.4,322.188 18730.4,294.604 18787.5,277.613C18812.7,270.098 18839,264.635 18861.9,264.991C18894.1,265.464 18921.7,269.81 18944.5,275.507C18992.9,287.619 19018.8,305.985 19018.8,305.985C19022,308.266 19025.9,309.396 19029.8,309.191C19107.7,305.645 19174.4,308.844 19233.4,319.755C19273.7,327.22 19310.4,338.358 19344.7,353.629C19321.6,352.435 19295.1,351.267 19266.7,350.383C19215.5,348.794 19157.9,348.238 19102.9,349.804C19074.5,350.695 19029.4,355.496 18986.2,361.1C18932,368.132 18881,376.428 18869.8,379.47C18806,397.155 18740.9,420.501 18680.8,447.091C18612.7,477.27 18551.2,511.529 18505.4,545.684C18463.8,576.908 18426.8,617.484 18398.3,663.209C18369.8,708.859 18349.6,759.527 18341.3,810.806C18336.3,841.905 18338,887.27 18343.4,936.587C18350.3,998.741 18362.9,1067.18 18373.9,1120.84L18395,1216.12Z" style="fill:white;"/>
                        </g>
                        <g transform="matrix(1,0,0,0.737674,-12676.5,-3.69001e-12)">
                            <path d="M14509.6,249.192C14555,247.34 14676.5,291.78 14676.5,291.78C14676.5,291.78 14795.1,286.472 14914.7,309.132C15095.4,343.366 15347.3,594.458 15347.3,594.458C15347.3,594.458 15390.3,691.541 15403.7,742.664C15419.3,801.615 15439.4,891.562 15440.4,948.169C15441.3,994.01 15313.4,1167.8 15313.4,1167.8L14782.6,1167.8L13966.6,1222.16C13966.6,1222.16 13924.9,1118.84 13909.8,977.098C13880,698.639 14271.5,341.023 14271.5,341.023C14271.5,341.023 14424.3,252.674 14509.6,249.192Z" style="fill:rgb(11,5,30);"/>
                            <path d="M14509.6,249.192C14481.2,250.032 14445.3,260.16 14410,273.313C14338.8,299.792 14270.1,338.534 14270.1,338.534C14269.9,338.637 14269.7,338.76 14269.6,338.9C14269.6,338.9 14091.5,498.246 13982.1,687.587C13927.4,782.265 13890.2,884.469 13899.3,978.219C13903.8,1025.03 13911.3,1067.71 13919.3,1104C13935.8,1179.22 13954.6,1226.98 13954.6,1226.98C13956.7,1232.14 13961.9,1235.38 13967.4,1235.02L14783.1,1186.63C14793.4,1186.68 14957.9,1187.45 15101.1,1187.48C15213.9,1187.5 15313.4,1187 15313.4,1187C15319.5,1187 15325.2,1184.09 15328.8,1179.18C15328.8,1179.18 15390.1,1094.98 15427.6,1027.54C15446.3,994.01 15458.5,963.772 15458.1,947.843C15457.5,923.613 15453.5,893.478 15447.8,862.19C15439.8,818.94 15428.6,773.431 15419,738.633C15414.3,721.458 15406.4,699.216 15397.7,677.114C15380.3,632.663 15360.2,588.721 15360.2,588.721C15359.5,587.12 15358.5,585.664 15357.3,584.427C15357.3,584.427 15241.2,471.431 15109.5,387.811C15044.8,346.746 14976.3,312.845 14916,302.351C14874.4,295.11 14832.9,291.163 14796.4,289.214C14731.5,285.747 14682.6,288.404 14676.9,288.737C14671,286.698 14623.3,270.479 14577.9,259.423C14551.4,252.956 14525.7,248.255 14509.6,249.192L14509.6,249.192ZM14509.6,249.192C14525.7,248.818 14551.1,254.394 14577.3,261.758C14625.2,275.205 14675.5,294.609 14675.5,294.609C14675.8,294.745 14676.2,294.807 14676.6,294.789C14676.6,294.789 14727.3,293.49 14795.7,299.378C14831.7,302.474 14872.5,307.518 14913.5,315.913C14971.6,327.836 15036.8,363.005 15098.5,404.593C15215.9,483.851 15319.9,586.964 15335.3,602.495C15339.4,612.045 15355.2,649.837 15369.3,687.924C15377.1,709.074 15384.3,730.306 15388.4,746.694C15397.1,780.902 15407.2,825.627 15414.2,868.056C15419.1,897.48 15422.5,925.769 15422.8,948.494C15422.8,953.898 15420,961.462 15416,970.663C15408.7,987.92 15396.7,1009.23 15383.2,1031.18C15353.9,1078.97 15317.6,1129.52 15303.7,1148.56C15276.1,1148.44 15193,1148.11 15101.1,1148.13C14953.3,1148.16 14782.6,1148.98 14782.6,1148.98C14782.1,1148.98 14781.7,1148.99 14781.3,1149.02L13975.1,1208.62C13968.9,1192.03 13955,1152.76 13942.1,1098.75C13933.7,1063.38 13925.6,1021.72 13920.3,975.976C13909.7,885.956 13944.5,787.16 13995.3,695.002C14097.9,508.709 14266.5,349.648 14273.2,343.341C14278.1,340.451 14343.2,302.343 14410.8,275.465C14445.8,261.561 14481.3,250.664 14509.6,249.192L14509.6,249.192Z" style="fill:white;"/>
                        </g>
                        <g transform="matrix(1,0,0,0.765988,9.40899,-215.562)">
                            <path d="M2611.13,1103.54C2644.79,1129.62 2700.94,1162.87 2789.97,1189.99C2789.97,1189.99 2740.29,1321.24 2673.21,1343.22" style="fill:rgb(11,5,30);"/>
                            <path d="M2611.13,1103.54C2624.35,1117.76 2640.83,1133.84 2664.03,1150.86C2671.89,1156.63 2680.36,1162.18 2689.76,1167.76C2703.41,1175.86 2718.55,1183.73 2735.54,1191.11C2741.66,1193.76 2748.07,1196.23 2754.72,1198.52C2758.4,1199.79 2762.16,1200.98 2765.99,1202.13C2762.63,1211.42 2757.99,1223.55 2752.24,1236.86C2745.15,1253.27 2736.79,1271.31 2726.54,1288.16C2711.86,1312.34 2694.49,1333.65 2673.21,1343.22C2697.31,1338.06 2720.45,1320.16 2740.85,1298.23C2761.79,1275.72 2779.06,1249.37 2790.88,1228.99C2801.91,1209.97 2807.71,1196.22 2807.71,1196.22C2809.47,1191.56 2809.18,1186.41 2806.91,1181.96C2804.64,1177.52 2800.58,1174.16 2795.67,1172.66C2786.72,1169.66 2778.23,1166.37 2769.88,1163.5C2760.95,1160.42 2752.32,1157.57 2743.97,1154.85C2727.04,1149.34 2711.55,1144.3 2697.22,1139.18C2686.02,1135.19 2675.76,1131.66 2666.03,1127.92C2643.75,1119.36 2625.95,1111.57 2611.13,1103.54Z" style="fill:white;"/>
                        </g>
                        <g transform="matrix(1,0,0,0.765988,46.409,-215.562)">
                            <path d="M1437.46,774.671C1437.46,774.671 1348.25,764.686 1259.02,846.953C1219.82,883.089 1198.03,948.6 1202.55,998.294" style="fill:rgb(11,5,30);"/>
                            <path d="M1437.46,774.671C1437.46,774.671 1414.1,767.129 1375.69,770.72C1363.08,771.899 1349.35,774.513 1334.36,779.21C1319.04,784.013 1302.86,791.112 1286.45,801.176C1280.67,804.719 1275,808.826 1269.4,813.338C1261.66,819.58 1254.19,826.731 1246.62,834.484C1227.39,855.729 1212.45,883.588 1205.01,913.709C1197.81,942.872 1197.04,972.787 1202.55,998.294C1203.33,973.416 1211.5,946.082 1224.19,920.187C1235.93,896.254 1251.86,874.452 1271.41,859.422C1278.85,853.258 1286.44,848.023 1293.6,842.813C1301.37,837.154 1308.85,831.896 1316.11,827.053C1324.21,821.653 1331.83,816.616 1339.35,812.203C1347.99,807.129 1356.02,802.652 1363.85,798.742C1406.55,777.416 1437.46,774.671 1437.46,774.671Z" style="fill:white;"/>
                        </g>
                        <g transform="matrix(1,0,0,0.765988,9.40899,-215.562)">
                            <path d="M1390.1,784.385C1390.1,784.385 1464.71,641.995 1596.12,600.832C1711.51,564.69 1782.25,606.899 1813.61,638.418C1859.93,684.965 1879.47,723.712 1883.81,797.44" style="fill:rgb(11,5,30);"/>
                            <path d="M1390.1,784.385C1390.1,784.385 1425.8,731.346 1485.2,683.326C1502.08,669.678 1520.79,656.585 1541.26,644.991C1560.08,634.327 1580.26,624.951 1602.18,618.765C1617.08,613.996 1631.21,610.775 1644.51,608.429C1668.4,604.214 1689.68,603.297 1708.68,605.217C1754.67,609.863 1786.93,629.065 1805.45,645.949C1830.28,668.113 1847.93,688.416 1860.42,713.022C1872.16,736.138 1879.44,762.614 1883.81,797.44C1884.07,761.481 1880.18,733.63 1871.25,708.696C1861.35,681.049 1845.2,657.394 1821.77,630.888C1802.16,609.15 1766.89,582.488 1713.6,572.835C1691.59,568.849 1666.49,567.898 1638.31,571.778C1623.1,573.871 1607.06,577.692 1590.07,582.898C1565.43,591.392 1542.53,602.749 1522.2,616.782C1501.2,631.274 1482.75,647.961 1466.86,665.265C1444.97,689.108 1428.07,713.528 1415.66,734.23C1398.17,763.4 1390.1,784.385 1390.1,784.385Z" style="fill:white;"/>
                        </g>
                        <g transform="matrix(1,0,0,0.930796,9.40899,-355.221)">
                            <path d="M1823.71,579.122C1823.71,579.122 2014.28,567.22 2082.22,701.665C2113.47,763.493 2108.86,813.912 2096.69,847.411" style="fill:rgb(11,5,30);"/>
                            <path d="M1823.71,579.122C1823.71,579.122 1865.44,581.646 1915.91,597.513C1933.46,603.031 1951.82,610.133 1970.08,619.549C1976.6,622.912 1983.01,626.597 1989.48,630.489C1998.56,635.958 2007.46,642.053 2016.12,648.856C2022.23,653.655 2028.29,658.727 2034.12,664.265C2046.63,676.141 2058.51,689.716 2068.16,706.13C2083.34,730.711 2092.09,753.457 2096.65,774.262C2103.01,803.212 2101.53,827.851 2096.69,847.411C2106,828.223 2113.34,803.379 2112.9,773.075C2112.58,750.42 2107.47,725.193 2096.29,697.2C2087.89,677.5 2076.99,660.54 2064.04,646.033C2057.81,639.045 2051.01,632.702 2043.88,626.92C2037.2,621.512 2030.2,616.595 2022.93,612.231C2011.47,605.357 1999.55,599.599 1987.39,594.991C1965.43,586.67 1943.37,581.44 1922.58,578.587C1899.88,575.473 1879.46,575.001 1862.79,575.527C1838.65,576.289 1823.71,579.122 1823.71,579.122Z" style="fill:white;"/>
                        </g>
                        <g transform="matrix(1.22147,0,0,0.773494,-467.351,-223.04)">
                            <path d="M2161.78,825.349C2170.3,790.288 2186.61,746.129 2217.5,715.241C2276.48,656.258 2385.19,630.815 2446.49,664.354C2507.78,697.893 2620.77,913.692 2678.59,917.162L2603.78,996.275L2514.47,980.32" style="fill:rgb(11,5,30);"/>
                            <path d="M2161.78,825.349C2167.33,807.309 2175.22,787.117 2186.11,767.677C2195.59,750.778 2207.33,734.673 2222.16,721.561C2250.69,695.758 2290.08,678.871 2329.57,671.099C2353.1,666.469 2376.64,665.322 2398.07,668.23C2413.41,670.312 2427.61,674.42 2439.67,681.265C2454.8,689.381 2472.88,710.074 2493.25,734.914C2532.78,783.101 2578.69,847.633 2617.59,887.574C2633.87,904.283 2649.21,916.618 2662.58,922.528C2662.58,922.528 2602.37,991.573 2602.37,991.573C2602.37,991.573 2514.47,980.32 2514.47,980.32L2603.19,1000.72C2604.34,1000.93 2605.51,1000.52 2606.37,999.606L2683.94,924.026C2686.32,921.509 2687.17,917.572 2686.09,914.045C2685.01,910.519 2682.21,908.096 2679,907.903C2665.48,906.517 2649.68,891.139 2631.7,870.105C2595.37,827.614 2553.72,759.959 2515.99,710.502C2493.03,680.397 2470.91,657.264 2453.31,647.443C2438.02,639.386 2420.21,634.254 2400.95,632.642C2376.73,630.615 2350.2,633.475 2324.17,641.109C2282.03,653.461 2241.28,677.524 2212.84,708.921C2198.51,725.087 2187.55,743.829 2179.47,763.307C2170.65,784.573 2165.23,806.27 2161.78,825.349Z" style="fill:white;"/>
                        </g>
                        <g transform="matrix(1,0,0,0.737674,9.40899,-175.74)">
                            <path d="M1895.4,1426.5C1895.4,1426.5 1727.42,1327.04 1547.01,1462.35" style="fill:rgb(11,5,30);stroke:white;stroke-width:44.35px;"/>
                        </g>
                    </g>
                    <g transform="matrix(0.689148,-0.0213453,0.0197175,0.650098,1238.24,239.334)">
                        <path d="M1692.22,2327.47C1693.34,2160.24 1704.7,1982.54 1711.62,1880.46C1721.23,1738.68 2298.84,1726.21 2318.68,1862.81C2332.91,1960.82 2326.15,2027.49 2315.83,2222.5" style="fill:rgb(11,5,30);"/>
                        <clipPath id="_clip2">
                            <path d="M1692.22,2327.47C1693.34,2160.24 1704.7,1982.54 1711.62,1880.46C1721.23,1738.68 2298.84,1726.21 2318.68,1862.81C2332.91,1960.82 2326.15,2027.49 2315.83,2222.5"/>
                        </clipPath>
                        <g clip-path="url(#_clip2)">
                            <g transform="matrix(0.897043,0,0,0.945868,271.236,-123.242)">
                                <path d="M1364.05,1159.8C1362.31,1237.88 1358.06,1317.3 1360.75,1395.34C1361.88,1428.31 1387.4,1739.79 1406.53,1863.98C1417.77,1937.01 1409.97,2052.39 1448.27,2114.4C1494.94,2189.96 1562.77,2223.75 1627.48,2279.54C1687.18,2331.02 1748.16,2403.06 1818.33,2441.79C1919.86,2497.84 2063.66,2492.59 2160.32,2427.32C2170.78,2420.25 2221.93,2375.73 2229.2,2392.67C2251.83,2445.37 2219.71,2635.2 2238.99,2658.64C2358.31,2803.65 2508.25,2187.46 2505.54,2120.76C2500.65,2000.76 2552.88,1883.35 2564.01,1768.75C2570.8,1698.92 2584.5,1628.53 2588.95,1558.69C2591.68,1515.7 2581.12,1471.27 2581.02,1428.02C2580.8,1333.81 2596.47,1151.17 2570.09,1068.22C2555.57,1022.54 2515.19,977.348 2479.59,946.482C2401.23,878.546 2284.02,882.984 2187.95,881.377C2115.45,880.165 2043.53,890.278 1971.07,892.481C1895.54,894.777 1819.76,899.804 1743.77,901.194C1620.49,903.45 1367.84,990.015 1364.05,1159.8Z" style="fill:rgb(227,50,60);fill-opacity:0.05;"/>
                            </g>
                        </g>
                        <path d="M1692.22,2327.47C1693.34,2160.24 1704.7,1982.54 1711.62,1880.46C1721.23,1738.68 2298.84,1726.21 2318.68,1862.81C2332.91,1960.82 2326.15,2027.49 2315.83,2222.5" style="fill:none;stroke:white;stroke-width:12.3px;"/>
                    </g>
                    <g transform="matrix(0.643612,0,0,0.650404,1414.21,42.8188)">
                        <path d="M1412.79,1784.74C1402.16,1785.36 1365.85,1777.94 1359.88,1769.12C1334.41,1731.47 1252.24,1653.92 1238.69,1547.75C1225.13,1441.59 1225.13,1360.27 1301.93,1358.01C1378.74,1355.75 1359.88,1389.63 1359.88,1389.63L1412.62,1389.63L1437.46,1764.6C1437.46,1764.6 1425.72,1783.98 1412.79,1784.74Z" style="fill:rgb(11,5,30);stroke:white;stroke-width:14.72px;"/>
                    </g>
                    <g transform="matrix(0.643612,0,0,0.650404,1380.1,42.8188)">
                        <path d="M2569.15,1723.94C2569.15,1723.94 2614.31,1742.01 2652.71,1642.62C2691.11,1543.24 2734.03,1495.8 2713.7,1398.67C2693.37,1301.54 2675.3,1301.54 2618.83,1303.8C2562.36,1306.06 2582.47,1357.9 2582.47,1357.9L2503.63,1357.9L2485.56,1710.39L2569.15,1723.94Z" style="fill:rgb(11,5,30);stroke:white;stroke-width:14.72px;"/>
                    </g>
                    <g transform="matrix(0.618486,0,0,0.615196,1446.04,78.9177)">
                        <path d="M1364.05,1159.8C1362.31,1237.88 1358.06,1317.3 1360.75,1395.34C1361.88,1428.31 1387.4,1739.79 1406.53,1863.98C1417.77,1937.01 1409.97,2052.39 1448.27,2114.4C1494.94,2189.96 1562.77,2223.75 1627.48,2279.54C1687.18,2331.02 1748.16,2403.06 1818.33,2441.79C1919.86,2497.84 2063.66,2492.59 2160.32,2427.32C2236.83,2375.64 2302.84,2304.65 2366.32,2238.51C2398.02,2205.5 2480.25,2163.41 2505.54,2120.76C2566.8,2017.45 2552.88,1883.35 2564.01,1768.75C2570.8,1698.92 2584.5,1628.53 2588.95,1558.69C2591.68,1515.7 2581.12,1471.27 2581.02,1428.02C2580.8,1333.81 2596.47,1161.74 2570.09,1078.8C2555.57,1033.11 2515.19,987.92 2479.59,957.054C2401.23,889.118 2284.02,882.984 2187.95,881.377C2115.45,880.165 2043.53,890.278 1971.07,892.481C1895.54,894.777 1819.76,899.804 1743.77,901.194C1620.49,903.45 1367.84,990.015 1364.05,1159.8Z" style="fill:rgb(11,5,30);"/>
                        <path d="M1359.86,1159.7C1358.57,1206.53 1356.38,1253.82 1355.33,1301.02C1354.62,1332.63 1354.42,1364.19 1355.34,1395.53C1355.96,1416.56 1365.86,1550.76 1377.82,1677.6C1384.64,1749.98 1392.15,1819.96 1398.91,1865.19C1406.37,1915.15 1404.87,1984.82 1415.26,2043.82C1420.3,2072.43 1428.16,2098.58 1440.76,2119.19C1459.62,2150.05 1481.91,2174.19 1506.09,2195.67C1541.98,2227.52 1582.1,2253.36 1621.05,2287.23C1662.55,2323.29 1704.63,2369.33 1750.04,2407.15C1770.34,2424.06 1791.31,2439.34 1813.14,2451.5C1865.53,2480.64 1928.9,2494.02 1991.68,2491.65C2054.56,2489.28 2116.8,2471.07 2166.93,2437.42C2198.08,2416.49 2227.53,2392.41 2255.78,2366.75C2297.68,2328.71 2336.95,2287.19 2375.3,2247.41C2396.77,2225.1 2441.76,2198.73 2475.97,2170.72C2493.21,2156.6 2507.82,2141.98 2516.45,2127.45C2541.97,2084.46 2555.06,2036.36 2562.13,1986.44C2572.32,1914.5 2569.92,1838.75 2576.53,1770.01C2581.17,1721.29 2589.2,1672.29 2595.06,1623.4C2597.61,1602.06 2599.75,1580.75 2601.05,1559.48C2601.88,1545.94 2601.45,1532.26 2600.43,1518.52C2598.19,1488.36 2592.95,1457.9 2592.8,1427.99C2592.46,1364.41 2599.24,1265.41 2595.52,1182.19C2593.67,1140.82 2589.19,1103.26 2580.24,1075.47C2573.97,1055.99 2563.3,1036.58 2550.24,1018.27C2531.55,992.039 2507.98,968.024 2486.16,949.235C2453.57,921.218 2414.63,903.373 2373.2,892.095C2312.49,875.567 2246.45,873.136 2188.09,872.411C2166.14,872.138 2144.24,872.883 2122.36,874.149C2071.86,877.074 2021.49,882.75 1970.83,884.537C1917.91,886.406 1864.86,889.616 1811.7,891.978C1789.04,892.986 1766.36,893.839 1743.65,894.366C1669.14,896.103 1548.03,928.417 1461.98,990.873C1403.39,1033.4 1361.05,1089.82 1359.86,1159.7L1359.86,1159.7ZM1368.24,1159.9C1370.09,1093.02 1411.55,1039.71 1468.04,999.593C1552.67,939.502 1671.14,908.989 1743.89,908.022C1766.7,907.717 1789.49,907.085 1812.25,906.297C1865.38,904.46 1918.41,901.773 1971.3,900.426C2022.08,899.129 2072.62,893.969 2123.26,891.501C2144.74,890.454 2166.25,889.891 2187.8,890.344C2244.69,891.54 2309.09,894.306 2368.15,910.926C2406.66,921.761 2442.88,938.518 2473.02,964.873C2490.25,979.923 2508.63,998.441 2524.46,1018.75C2540,1038.68 2553.1,1060.33 2559.95,1082.13C2568.22,1108.46 2571.98,1144.02 2573.47,1183.13C2576.63,1266.09 2569.28,1364.69 2569.23,1428.05C2569.23,1458.51 2574.32,1489.57 2576.45,1520.3C2577.32,1532.91 2577.67,1545.47 2576.84,1557.89C2575.47,1578.67 2573.25,1599.49 2570.66,1620.33C2564.55,1669.4 2556.34,1718.58 2551.49,1767.5C2544.78,1835.86 2547,1911.18 2536.81,1982.73C2530.2,2029.19 2518.34,2074.05 2494.62,2114.08C2487.3,2126.45 2474.64,2138.62 2460.01,2150.64C2425.06,2179.38 2379.26,2206.72 2357.34,2229.62C2319.53,2269.17 2280.84,2310.48 2239.51,2348.33C2212.23,2373.31 2183.8,2396.78 2153.7,2417.21C2107.21,2448.8 2049.29,2465.88 1990.77,2468.44C1932.06,2471.02 1872.69,2459.03 1823.52,2432.08C1802.74,2420.71 1782.78,2406.34 1763.41,2390.45C1717.85,2353.08 1675.55,2307.49 1633.9,2271.85C1594.71,2238.35 1554.42,2212.86 1518.3,2181.35C1495.25,2161.24 1473.9,2138.63 1455.79,2109.61C1444.07,2090.83 1436.88,2066.86 1432.03,2040.69C1421.13,1981.97 1422.03,1912.5 1414.14,1862.77C1407.01,1817.81 1398.94,1748.2 1391.45,1676.2C1378.31,1549.83 1366.98,1416.11 1366.15,1395.14C1364.92,1364 1364.79,1332.62 1365.17,1301.2C1365.74,1254.01 1367.44,1206.71 1368.24,1159.9L1368.24,1159.9Z" style="fill:white;"/>
                    </g>
                    <g transform="matrix(0.643612,0,0,0.650404,1378.96,10.2309)">
                        <circle cx="1737.24" cy="1532.11" r="124.904" style="fill:rgb(11,5,30);"/>
                        <path d="M1737.24,1407.21C1702.32,1406.1 1670.34,1419.41 1646.73,1441.61C1622.57,1464.33 1607.37,1496.37 1606.31,1532.11C1605.38,1568.6 1619.51,1601.97 1642.91,1626.44C1666.69,1651.32 1700.14,1666.74 1737.24,1667.47C1759.4,1667.64 1780.42,1662.56 1798.91,1653.13C1811.64,1646.63 1823.2,1638.11 1833.07,1627.95C1857.08,1603.25 1871.45,1569.23 1870.64,1532.11C1869.25,1495.8 1853.73,1463.25 1828.89,1440.46C1804.82,1418.4 1772.39,1405.51 1737.24,1407.21ZM1737.24,1407.21C1771.09,1408.84 1800.95,1423.98 1822.19,1447.15C1842.69,1469.51 1854.9,1499.45 1853.64,1532.11C1852.94,1563.95 1839.19,1592.3 1818.01,1612.88C1809.46,1621.19 1799.69,1628.22 1788.98,1633.7C1773.42,1641.66 1755.9,1646.42 1737.24,1646.56C1705.38,1647.19 1676.33,1634.81 1654.96,1614.39C1633.18,1593.57 1619.18,1564.58 1618.36,1532.11C1617.37,1498.89 1630.02,1468.47 1651.14,1446.01C1672.79,1422.99 1703.18,1408.29 1737.24,1407.21Z" style="fill:white;"/>
                    </g>
                    <g transform="matrix(0.643612,0,0,0.650404,1718.41,-7.09237)">
                        <circle cx="1737.24" cy="1532.11" r="124.904" style="fill:rgb(11,5,30);"/>
                        <path d="M1737.24,1407.21C1702.32,1406.1 1670.34,1419.41 1646.73,1441.61C1622.57,1464.33 1607.37,1496.37 1606.31,1532.11C1605.38,1568.6 1619.51,1601.97 1642.91,1626.44C1666.69,1651.32 1700.14,1666.74 1737.24,1667.47C1759.4,1667.64 1780.42,1662.56 1798.91,1653.13C1811.64,1646.63 1823.2,1638.11 1833.07,1627.95C1857.08,1603.25 1871.45,1569.23 1870.64,1532.11C1869.25,1495.8 1853.73,1463.25 1828.89,1440.46C1804.82,1418.4 1772.39,1405.51 1737.24,1407.21ZM1737.24,1407.21C1771.09,1408.84 1800.95,1423.98 1822.19,1447.15C1842.69,1469.51 1854.9,1499.45 1853.64,1532.11C1852.94,1563.95 1839.19,1592.3 1818.01,1612.88C1809.46,1621.19 1799.69,1628.22 1788.98,1633.7C1773.42,1641.66 1755.9,1646.42 1737.24,1646.56C1705.38,1647.19 1676.33,1634.81 1654.96,1614.39C1633.18,1593.57 1619.18,1564.58 1618.36,1532.11C1617.37,1498.89 1630.02,1468.47 1651.14,1446.01C1672.79,1422.99 1703.18,1408.29 1737.24,1407.21Z" style="fill:white;"/>
                    </g>
                    <g transform="matrix(0.728674,0,0,0.764627,1234.02,-66.6698)">
                        <path d="M1787.58,806.294C1765.86,762.646 1722.99,702.121 1624.95,711.424C1546.27,718.889 1512.01,731.753 1437.46,822.106C1362.92,912.459 1256.76,948.6 1256.76,948.6L1231.86,1038.95C1231.86,1038.95 1283.81,1047.99 1334.66,1018.62C1334.66,1018.62 1238.69,1061.54 1202.55,1034.43C1202.55,1034.43 1229.31,1162.25 1363.88,1167.24C1498.45,1172.22 1566.22,1127.05 1600.1,1093.16C1633.98,1059.28 1628.76,985.729 1629.12,919.729C1629.47,853.729 1658.83,810.812 1708.52,819.847" style="fill:rgb(11,5,30);"/>
                        <path d="M1223.28,1034.02C1217.4,1032.99 1212.14,1031.06 1207.85,1027.88C1205,1025.75 1201.08,1025.55 1198.01,1027.37C1194.94,1029.2 1193.38,1032.67 1194.09,1036.08C1194.09,1036.08 1206.36,1093.13 1254.24,1133.76C1279.61,1155.28 1314.9,1172.32 1363.62,1173.7C1415.82,1175.13 1458.04,1169.23 1492.19,1159.43C1547.66,1143.52 1581.89,1117.41 1602.99,1095.85C1615.17,1083.39 1622.43,1065.99 1626.54,1045.61C1633.91,1009.05 1631.27,962.813 1630.98,919.738C1630.72,884.295 1638.96,855.471 1654.44,837.833C1667.56,822.889 1685.86,816.01 1708.52,819.847C1685.66,815.404 1666.98,822.049 1653.3,836.874C1637.07,854.462 1627.9,883.616 1627.25,919.72C1626.62,955.773 1627.65,994.098 1623.07,1026.88C1619.41,1053.15 1612.22,1075.82 1597.21,1090.48C1576.43,1110.8 1542.91,1135.17 1489.2,1149.4C1455.86,1158.23 1414.77,1163.14 1364.14,1160.77C1319.55,1158.73 1287.47,1142.73 1264.58,1122.65C1236.81,1098.28 1222.57,1067.94 1215.96,1049.49C1228.08,1052.48 1242.39,1052.51 1257.04,1050.59C1260.91,1050.09 1264.81,1049.45 1268.69,1048.72C1274.37,1048.19 1280.49,1047.35 1286.92,1046.08C1303.18,1042.88 1321.42,1036.94 1339.52,1026.43C1343.83,1023.94 1345.36,1018.64 1343.01,1014.36C1340.65,1010.09 1335.24,1008.33 1330.68,1010.37C1330.68,1010.37 1305.14,1021.96 1275.8,1029.21C1262.71,1031.14 1251.56,1031.19 1244.01,1030.82C1244.01,1030.82 1264.55,955.299 1264.55,955.299C1277.72,950.213 1316.94,933.766 1360.46,903.062C1388.15,883.524 1417.56,858.18 1443.15,826.459C1473.74,788.329 1497.34,763.994 1520.31,747.96C1551.29,726.33 1581.08,719.975 1625.32,715.058C1666.55,710.443 1698.01,718.616 1722.28,732.784C1754.99,751.875 1774.75,781.752 1787.58,806.294C1775.61,780.977 1756.77,750.026 1724.41,729.529C1699.82,713.948 1667.48,704.448 1624.58,707.789C1578.17,711.439 1546.84,717.311 1513.75,738.967C1489.54,754.812 1464.44,779.252 1431.78,817.753C1406.47,847.764 1377.56,871.465 1350.56,889.802C1298.69,925.036 1253.66,940.16 1253.66,940.16C1250.77,941.145 1248.56,943.445 1247.77,946.303L1223.28,1034.02Z" style="fill:white;"/>
                    </g>
                    <g transform="matrix(0.643612,0,0,0.650404,-1989.81,204.272)">
                        <path d="M7682.43,1153.03L7740.51,1030.69L7548,930.338L7255.19,1024.55L7349.35,1188.58C7414.76,1123.51 7518.71,1103.41 7682.43,1153.03Z" style="fill:rgb(11,5,30);"/>
                    </g>
                    <g transform="matrix(0.643612,0,0,0.650404,-1989.81,197.768)">
                        <path d="M7131.34,1188.26L7170.52,1040.78L6815.88,988.826L6725.53,1153.03L6785.57,1222.16C6897.69,1141.76 7013.2,1136.15 7131.34,1188.26Z" style="fill:rgb(11,5,30);"/>
                    </g>
                    <g transform="matrix(0.540782,0,0,0.546488,1585.71,237.458)">
                        <path d="M1811.89,2145.14C1937.87,2168.62 2100.05,2192.19 2187.03,2119.12" style="fill:rgb(11,5,30);stroke:white;stroke-opacity:0.96;stroke-width:19.87px;"/>
                    </g>
                    <g transform="matrix(0.643612,0,0,0.650404,1380.1,42.8188)">
                        <path d="M1484.56,1397.3C1484.56,1397.3 1573.65,1296.05 1706.61,1283.96C1757.49,1279.33 1881.24,1268.92 1890.49,1308.25C1899.75,1347.57 1901.66,1356.64 1843.08,1349.88C1722.8,1336 1561.62,1353.04 1484.56,1397.3Z" style="fill:white;"/>
                        <path d="M1484.56,1397.3C1518.79,1378.86 1568.97,1366.21 1624.65,1359.02C1695.53,1349.85 1775.25,1349.62 1842.04,1358.9C1867.9,1362.31 1883.14,1361.99 1891.53,1358.52C1899.87,1355.08 1903.9,1349.16 1905.15,1340.49C1906.28,1332.72 1904.12,1321.37 1900.71,1305.84C1898.49,1295.96 1891.49,1287.89 1880.39,1281.99C1870.94,1276.97 1858.19,1273.43 1843.55,1271.31C1826.69,1268.87 1807.2,1268.17 1787.75,1268.58C1756.68,1269.23 1725.7,1272.64 1705.78,1274.8C1658.59,1280.56 1617.07,1296.84 1583.22,1316.26C1520.72,1352.12 1484.57,1397.27 1484.56,1397.3L1484.56,1397.3ZM1484.56,1397.3C1484.58,1397.27 1524.09,1356.44 1588.13,1325.6C1621.74,1309.41 1662.09,1295.83 1707.44,1293.12C1734.44,1291.05 1782.19,1287.94 1821.96,1290.95C1838.29,1292.19 1853.23,1294.32 1864.55,1298.49C1872.51,1301.42 1878.8,1304.64 1880.28,1310.65C1882.86,1320.94 1884.98,1328.95 1885.29,1335.07C1885.42,1337.58 1885.76,1339.6 1883.75,1340.5C1877.12,1343.49 1864.9,1342.91 1844.12,1340.86C1787.24,1335.59 1721.52,1337.14 1659.81,1345.38C1589.81,1354.72 1525.14,1372.5 1484.56,1397.3L1484.56,1397.3Z" style="fill:rgb(11,5,30);"/>
                    </g>
                    <g transform="matrix(0.643612,0,0,0.650404,1422.58,42.8188)">
                        <path d="M1265.97,1470.45C1265.97,1470.45 1334.21,1414.93 1313.39,1482.01C1292.57,1549.09 1290.26,1554.87 1284.48,1578C1278.7,1601.13 1271.76,1661.27 1315.7,1602.29" style="fill:rgb(11,5,30);stroke:white;stroke-opacity:0.96;stroke-width:12.75px;"/>
                    </g>
                    <g transform="matrix(0.643612,0,0,0.69978,1380.1,-26.0651)">
                        <path d="M2617.94,1397.3C2617.94,1397.3 2695.51,1382.12 2653.8,1448.88C2613.32,1513.65 2576.31,1568.87 2637.6,1538.16" style="fill:rgb(11,5,30);stroke:white;stroke-opacity:0.96;stroke-width:12.27px;"/>
                    </g>
                    <g transform="matrix(0.643612,0,0,0.650404,1380.1,49.3229)">
                        <path d="M2480.32,1317.5C2480.32,1317.5 2360.04,1253.89 2257.11,1252.73C2154.18,1251.58 2091.73,1252.73 2087.1,1302.46C2082.48,1352.19 2095.2,1336 2186.56,1318.65C2277.93,1301.31 2480.32,1317.5 2480.32,1317.5Z" style="fill:white;"/>
                        <path d="M2480.32,1317.5L2480.32,1317.5C2480.1,1317.49 2390.59,1313.1 2303.9,1315.72C2260.66,1317.03 2218.17,1320.01 2188.05,1326.5C2161.17,1332.19 2141.2,1337.68 2126.45,1341.2C2112.72,1344.48 2103.01,1345.94 2096.36,1345.24C2085.61,1344.12 2079.84,1338.87 2077.25,1327.87C2075.86,1321.96 2075.81,1313.4 2076.71,1301.5C2078.89,1275.84 2093.4,1260.23 2119.47,1251.51C2134.2,1246.59 2153.03,1243.94 2175.53,1242.95C2198.81,1241.92 2226.19,1242.73 2257.21,1243.68C2288.3,1245 2320.8,1251.66 2351.06,1260.99C2421.95,1282.85 2480.29,1317.48 2480.32,1317.5L2480.32,1317.5C2480.28,1317.48 2431.84,1294.91 2370.43,1278.35C2334.68,1268.71 2294.59,1260.96 2257.01,1261.79C2226.49,1262.03 2199.59,1262.58 2176.72,1264.15C2156.51,1265.54 2139.62,1267.81 2126.36,1272.2C2109.48,1277.79 2099.17,1286.86 2097.49,1303.43C2096.68,1310.78 2096.24,1316.54 2096.56,1320.97C2096.76,1323.63 2096.59,1325.52 2098.73,1325.82C2103.94,1326.54 2111.56,1325.14 2122.46,1322.97C2137.44,1319.99 2157.78,1315.39 2185.07,1310.81C2216.14,1305.7 2259.66,1304.54 2303.87,1305.56C2390.84,1307.58 2480.22,1317.49 2480.32,1317.5L2480.32,1317.5L2480.32,1317.5Z" style="fill:rgb(11,5,30);"/>
                    </g>
                    <g transform="matrix(0.643612,0,0,0.650404,1380.1,42.8188)">
                        <path d="M1895.4,1426.5C1895.4,1426.5 1727.42,1327.04 1547.01,1462.35" style="fill:rgb(11,5,30);stroke:white;stroke-width:19.12px;"/>
                    </g>
                    <g transform="matrix(0.643612,0,0,0.650404,1380.1,49.3229)">
                        <path d="M2113.41,1426.81C2113.41,1426.81 2186.27,1310.93 2446.49,1391.27" style="fill:rgb(11,5,30);stroke:white;stroke-width:19.12px;"/>
                    </g>
                    <g transform="matrix(0.643612,0,0,0.650404,-6781.49,188.662)">
                        <path d="M14520.4,1438.23C14657,1372.37 14728,1366.21 14864,1428.23C14921.7,1454.53 15102.1,1434.07 15110.5,1523.2C15119.8,1620.45 15033.3,1653.91 14965.7,1660.74C14848.7,1672.56 14801.9,1586.69 14676.5,1584.35C14582.9,1582.59 14545.4,1672.71 14351.3,1657.36C14291.6,1652.64 14253.1,1566.77 14277.2,1532.42C14330.8,1456.28 14468,1463.46 14520.4,1438.23Z" style="fill:rgb(11,5,30);"/>
                    </g>
                    <g transform="matrix(0.534782,-0.0389811,0.0385741,0.540425,1529.81,323.744)">
                        <path d="M2083.04,1648.05C2087.14,1693.89 2089.59,1743.5 2104.25,1787.34C2110.66,1806.49 2130.19,1823.81 2136.98,1842.63C2141.94,1856.38 2147.28,1890.62 2132.71,1903.11C2113.59,1919.5 2082.28,1883.06 2064.57,1880.75C2033.55,1876.71 2018.18,1906.11 1987.35,1908.5C1944.93,1911.79 1915.03,1847.12 1869.62,1893.93" style="fill:rgb(11,5,30);stroke:white;stroke-opacity:0.96;stroke-width:18.36px;"/>
                    </g>
                </g>
            </g>
        </g>
    </g>
</svg>
