<?xml version="1.0" encoding="UTF-8" standalone="no"?>
<!DOCTYPE svg PUBLIC "-//W3C//DTD SVG 1.1//EN" "http://www.w3.org/Graphics/SVG/1.1/DTD/svg11.dtd">
<svg width="100%" height="100%" viewBox="0 0 4000 2800" version="1.1" xmlns="http://www.w3.org/2000/svg" xmlns:xlink="http://www.w3.org/1999/xlink" xml:space="preserve" xmlns:serif="http://www.serif.com/" style="fill-rule:evenodd;clip-rule:evenodd;stroke-linejoin:round;stroke-miterlimit:2;">
    <g transform="matrix(1,0,0,1,-17.7452,-27.4414)">
        <g id="Plan-de-travail16" serif:id="Plan de travail16" transform="matrix(1.01561,0,0,1.00501,-685.069,-3.10003)">
            <rect x="692.012" y="30.389" width="3938.52" height="2786.05" style="fill:none;"/>
            <clipPath id="_clip1">
                <rect x="692.012" y="30.389" width="3938.52" height="2786.05"/>
            </clipPath>
            <g clip-path="url(#_clip1)">
                <g transform="matrix(2.26815,0,0,2.36849,-1187.79,-1514.43)">
                    <rect x="828.782" y="652.241" width="1736.44" height="1176.3" style="fill:rgb(11,5,30);"/>
                </g>
                <g transform="matrix(0.98463,0,0,0.995019,-3541.71,23.2553)">
                    <path d="M6100.86,1595.54C6088.63,1596.25 6081.78,1609.27 6086.13,1620.25C6091.59,1634.05 6107.19,1643.25 6118.48,1651.86C6154.01,1678.97 6194.43,1694.39 6237.48,1704.51C6254.63,1708.54 6277.12,1714.76 6294.68,1709.64C6308.79,1705.54 6310.29,1685.36 6298.69,1677.41C6291.23,1672.29 6281.26,1673.54 6272.74,1672.94C6263.16,1672.27 6253.48,1670.25 6244.1,1668.27C6212.09,1661.49 6180.88,1648.38 6153.74,1629.95C6139.64,1620.38 6118.86,1594.5 6100.86,1595.54ZM6336.75,1674.67C6327.3,1677.21 6324.59,1686.47 6326.69,1694.24C6328.78,1702 6335.67,1708.27 6345.43,1704.83C6363.49,1698.45 6355.41,1669.67 6336.75,1674.67ZM6379.23,1671.01C6373.59,1674.64 6373.69,1680.86 6376.62,1685.25C6379.55,1689.63 6385.32,1692.19 6391.05,1688.49C6402.31,1681.22 6390.67,1663.62 6379.23,1671.01ZM6466.67,1664.32C6476.14,1657.06 6481.41,1643.87 6491.58,1637.94C6497.82,1634.29 6506.13,1635.96 6512.95,1633.91C6529.28,1629.01 6543.69,1616.29 6549.94,1600.41C6554.19,1589.64 6556.78,1562.11 6547.08,1553.57C6531.15,1539.53 6497.93,1562.49 6489.88,1576.21C6483.24,1587.54 6481.36,1600.71 6482.3,1613.64C6482.77,1620.08 6485.62,1627.03 6484.24,1633.47C6481.85,1644.67 6471.12,1653.75 6466.67,1664.32ZM6585.68,1615.84C6613.11,1600.13 6635.78,1553.99 6623.98,1523.28C6618.37,1508.68 6589.14,1474.53 6571.8,1493.39C6556.08,1510.48 6560.68,1544.81 6574.95,1560.71C6580.78,1567.21 6595.17,1573.4 6598.23,1581.41C6601.68,1590.42 6587.5,1606.37 6585.68,1615.84ZM5966.42,1521.08C5968.77,1550.57 5981.88,1585.6 6008.29,1601.22C6024.69,1610.92 6061.64,1610.81 6072.13,1591.37C6078.04,1580.41 6068.52,1568.24 6061.09,1560.94C6037.64,1537.93 6013.73,1542.72 5986.26,1554.13C5981.65,1543.08 5976.66,1527.78 5966.42,1521.08ZM6111.87,1491.67C6088.98,1497.27 6070.03,1521.73 6072.85,1545.32C6074.39,1558.24 6081.3,1582.97 6098.66,1579.08C6123.66,1573.47 6139.38,1549.87 6138.23,1525.49C6137.57,1511.46 6130.37,1487.16 6111.87,1491.67ZM6460.06,1558.54C6470.2,1551.62 6473.86,1534.61 6477.69,1523.28C6502.2,1536.13 6530.03,1534 6549.69,1513.52C6556.62,1506.31 6566.98,1490.04 6561.01,1479.81C6549.2,1459.59 6511.11,1464.61 6495.32,1475.04C6469.84,1491.87 6461.3,1529.8 6460.06,1558.54ZM5948.79,1408.69C5939.6,1435.86 5942.63,1476.81 5962.74,1498.81C5975.28,1512.53 6011.28,1523.34 6027.16,1508.76C6036.28,1500.4 6029.17,1483.71 6024.5,1474.8C6011.76,1450.46 5983.61,1438.62 5957.61,1448.36C5954.46,1436.2 5956.22,1418.49 5948.79,1408.69ZM6638.57,1474.8C6638.45,1488.27 6634.74,1501.08 6634.16,1514.47C6654.82,1493.85 6660.39,1447.57 6647.59,1421.91C6639.25,1405.18 6611.98,1388.38 6592.42,1395.1C6580.58,1399.16 6583.08,1416.49 6583.56,1426.32C6585.01,1455.92 6610.71,1473.53 6638.57,1474.8ZM6089.83,1425.11C6068.34,1427.83 6047.09,1441.38 6042.21,1463.78C6038.54,1480.64 6037.95,1507.74 6061.18,1505.24C6084.56,1502.71 6104.29,1484.57 6108.64,1461.58C6111.56,1446.11 6111.01,1422.44 6089.83,1425.11ZM6543.81,1389.83C6520.11,1393.37 6503.07,1407.54 6496.74,1430.73C6494.58,1438.62 6491.13,1449.24 6498.48,1455.54C6505.77,1461.77 6521.71,1460.08 6530.58,1458.97C6548.75,1456.7 6562.94,1443.16 6569.04,1426.32C6577.29,1403.56 6571.3,1385.73 6543.81,1389.83ZM6067.8,1354.62C6049.02,1358.17 6035.16,1370.72 6029.16,1388.85C6022.83,1407.98 6024.43,1424.05 6047.96,1424.1C6052.39,1424.11 6056.83,1423.93 6061.18,1423.06C6083.48,1418.57 6095.88,1403.04 6102.29,1382.24C6104.74,1374.28 6107.28,1363.71 6099.9,1357.43C6092.45,1351.1 6076.69,1352.95 6067.8,1354.62ZM5959.81,1300.7C5950.09,1330.52 5935.04,1362.95 5951.91,1393.26C5960.21,1408.17 5991.83,1429.21 6009.54,1417.11C6018.24,1411.17 6016.88,1395.52 6015.44,1386.65C6010.59,1356.7 5988.45,1342.38 5959.81,1338.17L5964.22,1300.7L5959.81,1300.7ZM6642.97,1366.82C6643.85,1377.97 6642.15,1397.47 6651.79,1404.28C6654.23,1373.38 6658.19,1336.29 6633.19,1312.56C6620.86,1300.86 6602.04,1297.16 6585.68,1299.8C6580.24,1300.68 6573.71,1301.3 6570.15,1306.07C6563.47,1315.01 6569.42,1329.65 6573.88,1338.17C6588.14,1365.43 6614.33,1372.13 6642.97,1366.82ZM6539.4,1308.32C6516.76,1310.93 6496.33,1326.81 6490.7,1349.19C6486.76,1364.85 6486.71,1390.1 6508.55,1388.44C6531.25,1386.71 6551.72,1371.92 6556.76,1349.19C6559.98,1334.62 6561.36,1305.8 6539.4,1308.32ZM6133.91,1254.42C6130.38,1266.61 6125.49,1277.98 6120.69,1289.68C6095.25,1279.89 6068.19,1279.3 6048.43,1300.9C6041.46,1308.53 6030.99,1325.02 6038.61,1335.1C6046.34,1345.33 6062.71,1347.06 6074.41,1346.97C6120.99,1346.63 6137.99,1293.45 6138.32,1254.42L6133.91,1254.42ZM5995.07,1234.59C6002.23,1223.74 6009.78,1212.08 6012.7,1199.33C5984.12,1212.94 5962.98,1262.33 5975.28,1291.89C5981.33,1306.42 5999.09,1327.29 6017.08,1325.47C6030.05,1324.16 6033.76,1306.68 6035.58,1296.3C6040.54,1268.04 6021.88,1242.48 5995.07,1234.59ZM6497.53,1236.01C6474,1242.33 6459.11,1263.74 6460.15,1287.48C6460.85,1303.36 6468.64,1326.85 6488.71,1321.33C6511.06,1315.18 6527.39,1292.81 6525.97,1269.85C6525.03,1254.69 6516.81,1230.83 6497.53,1236.01ZM6612.12,1258.83C6616.77,1269.98 6622.12,1286.88 6631.96,1294.09C6631.37,1265.74 6617.36,1228.76 6592.29,1213.61C6575.32,1203.36 6537.98,1201.39 6526.25,1221.84C6519.69,1233.27 6531.69,1248.35 6539.78,1255.49C6561.43,1274.59 6588.39,1272.62 6612.12,1258.83ZM6133.91,1148.64C6122.16,1154.64 6118.64,1168.83 6107.26,1175.03C6101.43,1178.21 6093.93,1177.66 6087.63,1179.62C6070.36,1184.97 6054.25,1197.28 6048.2,1214.76C6044.01,1226.87 6041.37,1255.79 6054.86,1263.15C6070.78,1271.82 6099.46,1251.37 6107.53,1238.99C6115.38,1226.95 6117.1,1213.39 6116.08,1199.33C6115.66,1193.58 6113.3,1187.46 6114.13,1181.7C6115.83,1169.96 6127.81,1158.53 6133.91,1148.64ZM6303.69,1104C6290.31,1109.45 6288.99,1130.12 6301.63,1137.23C6307.46,1140.51 6314.81,1139.69 6321.23,1140.46C6334.56,1142.06 6347.8,1143.9 6360.89,1146.96C6395.25,1154.98 6427.42,1170.9 6455.65,1191.9C6467.97,1201.06 6486.56,1224.53 6503.9,1216.93C6514.04,1212.49 6516.79,1199.56 6511.31,1190.52C6503.27,1177.26 6487.83,1167.6 6475.49,1158.74C6438.42,1132.13 6398.45,1117.73 6354.28,1108.04C6340.01,1104.91 6317.88,1098.23 6303.69,1104ZM6209.16,1123.88C6202.91,1126.4 6201.83,1132.48 6203.88,1137.43C6205.92,1142.38 6211.1,1146.21 6217.36,1144.23C6231.1,1139.9 6222.76,1118.38 6209.16,1123.88ZM6249.01,1111.24C6240.87,1116.2 6240.83,1125.16 6244.93,1131.65C6249.03,1138.14 6257.26,1142.15 6265.66,1137.23C6284.1,1126.42 6266.63,1100.5 6249.01,1111.24Z" style="fill:white;fill-rule:nonzero;"/>
                </g>
                <g transform="matrix(2.16988,0,0,2.19278,3832,-23466.3)">
                    <path d="M-590.766,11526.2C-594.684,11527.8 -595.428,11531.7 -596.066,11535.5C-597.48,11543.8 -598.678,11552.1 -599.821,11560.5C-601.978,11576.2 -604.764,11591.8 -607.231,11607.5C-608.074,11612.8 -610.483,11621.4 -606.118,11625.8C-600.652,11631.3 -587.077,11630.9 -579.821,11632C-574.39,11632.9 -563.038,11636.6 -558.124,11633.4C-553.785,11630.6 -552.107,11616.6 -556.139,11613.2C-562.371,11608 -579.127,11613.8 -579.623,11602.5C-579.695,11600.8 -579.34,11599.1 -579.066,11597.5C-578.742,11595.5 -578.524,11593.3 -577.504,11591.6C-572.396,11583 -555.139,11598.3 -551.215,11587.3C-549.759,11583.3 -548.15,11574.4 -552.139,11571.4C-558.499,11566.5 -574.668,11571.6 -573.373,11559.5C-573.199,11557.8 -572.919,11556 -572.257,11554.5C-567.156,11543 -549.902,11559 -543.845,11550.1C-542.608,11548.3 -542.537,11545.6 -542.246,11543.5C-541.85,11540.6 -541.105,11536.5 -542.849,11533.9C-544.691,11531.2 -548.88,11530.9 -551.821,11530.4C-559.458,11529.1 -567.159,11528.2 -574.821,11527C-579.603,11526.3 -586.097,11524.3 -590.766,11526.2ZM-484.825,11522.1C-505.176,11524 -518.184,11540.3 -520.535,11559.5C-524.081,11588.3 -508.643,11626.4 -475.821,11626.5C-472.171,11626.5 -468.408,11626.7 -464.836,11625.8C-456.826,11623.8 -458.077,11611.1 -462.559,11605.8C-466.755,11600.8 -474.617,11605.9 -479.806,11602C-490.125,11594.4 -493.692,11575.6 -493.817,11563.5C-493.86,11559.3 -493.728,11555.3 -491.901,11551.5C-490.378,11548.3 -488.132,11546 -484.817,11544.7C-481.914,11543.6 -477.159,11543.9 -476.154,11540.2C-474.587,11534.6 -477.36,11521.4 -484.825,11522.1ZM-674.821,11559.5C-671.896,11571.7 -681.193,11583.2 -676.342,11595.5C-674.047,11601.2 -666.341,11611.1 -658.925,11608.6C-653.881,11607 -648.199,11596.4 -647.216,11591.5C-645.437,11582.5 -657.726,11582.1 -653.684,11572.4C-649.85,11563.2 -641.008,11567.1 -633.836,11562.9C-620.803,11555.4 -611.189,11531.3 -618.353,11517.5C-624.044,11506.5 -638.589,11500.1 -648.821,11494.1C-653.262,11491.4 -658.673,11488.2 -663.636,11491.5C-668.447,11494.7 -671.062,11501.7 -674.049,11506.5C-680.706,11517.1 -687.369,11527.7 -693.821,11538.5L-708.82,11563.5C-710.775,11566.7 -714.338,11571.3 -713.123,11575.4C-712.155,11578.7 -708.527,11580.7 -705.821,11582.4C-702.756,11584.3 -698.621,11586.7 -694.861,11585.9C-691.209,11585 -689.094,11581.3 -687.154,11578.5C-682.92,11572.2 -679.653,11565.3 -674.821,11559.5ZM-414.821,11483.1C-417.399,11483.9 -419.718,11485.5 -421.816,11487.1C-432.796,11495.7 -423.644,11505.8 -417.333,11514.5C-414.118,11518.9 -409.503,11523.2 -414.894,11527.9C-421.523,11533.7 -425.032,11528.2 -428.935,11522.5C-435.641,11512.6 -442.154,11500.1 -454.816,11510C-457.011,11511.7 -459.253,11513.8 -460.214,11516.5C-462.75,11523.6 -455.133,11531.2 -451.4,11536.5C-439.84,11552.6 -428.95,11569.3 -417.394,11585.5C-413.239,11591.3 -408.528,11601.4 -399.821,11598.8C-397.627,11598.2 -395.653,11596.9 -393.822,11595.5C-380.138,11585.5 -393.251,11573.6 -400.165,11563.5C-402.919,11559.4 -408.66,11553.9 -403.657,11549.5C-396.844,11543.5 -392.421,11549.7 -388.488,11555.5C-381.362,11565.9 -373.945,11582.7 -359.826,11571.8C-357.644,11570.1 -355.389,11568.1 -354.428,11565.5C-351.96,11558.6 -359.665,11550.7 -363.154,11545.5C-374.205,11528.9 -386.352,11513.1 -397.245,11496.5C-401.173,11490.5 -406.222,11480.5 -414.821,11483.1ZM-588.821,11521.5C-580.261,11523.9 -571.722,11526.8 -566.821,11517.5L-564.821,11517.5C-563.323,11523.9 -561.472,11526.2 -554.821,11527.2C-551.202,11527.7 -544.284,11529.5 -545.517,11523.4C-546.473,11518.8 -549.99,11510.1 -554.034,11507.4C-556.498,11505.7 -559.957,11505.4 -562.821,11504.9C-566.536,11504.3 -571.101,11503.1 -574.817,11504C-581.433,11505.8 -587.559,11515.1 -588.821,11521.5ZM-710.821,11427.2C-718.405,11428.5 -726.73,11436.4 -732.821,11440.8C-745.203,11449.8 -758.133,11458.2 -770.821,11466.8C-776.398,11470.5 -786.55,11475.1 -789.347,11481.5C-792.275,11488.2 -785.323,11495.4 -781.846,11500.5C-771.795,11515 -761.525,11528.6 -741.821,11525.1C-735.889,11524.1 -730.076,11520.6 -724.821,11517.8C-709.062,11509.3 -684.967,11494.8 -682.122,11475.5C-679.993,11461 -690.049,11448.6 -697.657,11437.5C-700.533,11433.2 -704.776,11426.1 -710.821,11427.2ZM-373.821,11427.5C-379.633,11430.3 -383.009,11438.2 -386.245,11443.5C-390.295,11450 -400.343,11460.2 -399.438,11468.5C-398.813,11474.1 -392.061,11477.4 -387.821,11480.1C-375.543,11488.1 -363.031,11495.7 -350.821,11503.8C-342.703,11509.2 -334.402,11514.9 -325.821,11519.6C-322.305,11521.4 -317.716,11523.3 -313.825,11521.4C-308.503,11518.8 -305.519,11512.2 -302.502,11507.5C-298.7,11501.4 -294.571,11495.6 -290.89,11489.5C-289.346,11486.9 -287.471,11483.7 -288.607,11480.6C-289.702,11477.7 -293.288,11475.6 -295.822,11474C-297.906,11472.7 -300.299,11471.2 -302.806,11471C-313.429,11469.8 -313.109,11490.3 -322.825,11489.4C-325.948,11489.2 -329.384,11486.1 -331.786,11484.3C-341.826,11476.7 -324.284,11468.6 -325.468,11459.6C-326.014,11455.4 -332.425,11452.3 -335.821,11450.7C-348.785,11444.9 -347.934,11468.6 -358.822,11466.3C-360.214,11466.1 -361.652,11465.3 -362.819,11464.5C-375.61,11455.9 -358.974,11448.8 -358.104,11438.5C-357.615,11432.6 -368.441,11424.9 -373.821,11427.5ZM-545.821,11383.9C-553.138,11385.3 -558.461,11392 -565.821,11392.5C-572.235,11393 -582.915,11381.2 -588.063,11387.8C-594.061,11395.4 -576.945,11402 -571.821,11403C-565.848,11404.1 -559.269,11403.1 -553.821,11400.5C-549.151,11398.2 -545.316,11394.5 -539.821,11394.5C-534.34,11394.5 -530.47,11398.1 -525.821,11400.5C-520.312,11403.2 -513.877,11404.2 -507.821,11402.9C-502.786,11401.9 -495.757,11399 -492.424,11394.9C-490.299,11392.3 -490.41,11387.4 -493.969,11386.1C-500.497,11383.6 -506.458,11392.4 -512.821,11392.7C-518.472,11393 -523.064,11388.5 -527.821,11386.1C-533.327,11383.4 -539.802,11382.8 -545.821,11383.9ZM-600.606,11355.2C-604.259,11356.9 -605.117,11362.1 -601.539,11364.4C-598.038,11366.7 -592.751,11364.8 -588.821,11366.1C-583.109,11368 -578.833,11372.5 -572.821,11373.9C-567.069,11375.2 -560.142,11374.6 -554.821,11372.1C-550.164,11369.8 -546.504,11365.8 -541.106,11365.4C-532.622,11364.8 -526.912,11372.7 -518.821,11374.1C-506.908,11376.2 -501.134,11369.5 -490.821,11366.1C-486.893,11364.8 -480.518,11367 -477.425,11363.9C-474.955,11361.4 -476.206,11357.3 -478.969,11355.6C-482.29,11353.7 -488.13,11354.2 -491.821,11354.6C-499.896,11355.7 -505.444,11363.9 -513.821,11363.3C-519.863,11362.9 -524.514,11358.5 -529.821,11356.1C-534.303,11354.1 -539.991,11354 -544.821,11354.6C-552.854,11355.7 -558.512,11363.4 -566.821,11363.4C-572.381,11363.4 -576.188,11359.6 -580.821,11357.2C-585.852,11354.5 -595.147,11352.7 -600.606,11355.2ZM-317.821,11369.5C-312.453,11368.2 -307.357,11363.2 -301.821,11363.2C-296.285,11363.2 -291.189,11368.2 -285.821,11369.5C-285.862,11364.5 -288.839,11357 -286.754,11352.5C-284.982,11348.6 -277.011,11344.4 -277.742,11339.8C-278.349,11335.9 -288.816,11336.9 -291.608,11335.3C-296.074,11332.6 -296.268,11323.7 -301.107,11322.2C-303.292,11321.5 -304.665,11324 -305.559,11325.5C-307.616,11329.1 -308.846,11333.9 -312.926,11335.7C-315.934,11337 -323.921,11335.9 -325.645,11339.1C-327.861,11343.2 -318.397,11349.1 -316.938,11352.5C-315.013,11356.9 -317.807,11364.5 -317.821,11369.5ZM-802.821,11338.5C-800.747,11344.4 -793.305,11347.5 -792.015,11353.5C-791.289,11356.8 -795.493,11366.2 -792.178,11368.3C-788.657,11370.5 -781.665,11363.7 -777.821,11363.5C-772.723,11363.1 -767.953,11369.7 -763.154,11368.6C-760.886,11368 -761.39,11365.1 -761.594,11363.5C-762.038,11359.8 -764.112,11354.5 -761.932,11351.1C-759.572,11347.4 -753.41,11345.4 -752.742,11340.6C-752.396,11338.1 -755.026,11337.7 -756.84,11337.4C-761.195,11336.7 -766.091,11337 -769.184,11333.3C-771.258,11330.9 -773.565,11321.7 -777.713,11322.4C-782.201,11323.1 -783.544,11332.2 -787.034,11334.9C-791.172,11338 -798.003,11337 -802.821,11338.5ZM-598.673,11326.2C-602.159,11327.8 -602.776,11333.1 -599.503,11335.3C-596.477,11337.3 -592.18,11336.1 -588.821,11337.2C-583.164,11339 -578.697,11343.3 -572.821,11344.8C-566.508,11346.5 -559.553,11345.4 -553.821,11342.5C-549.536,11340.3 -545.821,11336.9 -540.821,11336.6C-532.243,11336 -526.138,11344 -517.821,11345.2C-506.437,11346.9 -500.78,11340.1 -490.821,11337.1C-487.335,11336.1 -482.228,11337.5 -479.425,11334.7C-475.542,11330.9 -479.63,11326 -483.836,11325.6C-489.794,11324.9 -495.577,11326.3 -500.821,11329.1C-504.989,11331.3 -508.398,11334.6 -513.397,11334.6C-519.171,11334.6 -522.979,11330.3 -527.821,11327.9C-532.674,11325.5 -538.494,11325.1 -543.821,11325.6C-552.436,11326.6 -558.69,11335.1 -567.245,11334.5C-577.963,11333.8 -586.654,11320.8 -598.673,11326.2ZM-546.821,11297.1C-553.86,11298.9 -559.239,11305.4 -566.821,11305.4C-572.084,11305.4 -578.526,11298.5 -583.503,11301.7C-587.271,11304 -585.338,11309.1 -582.593,11311.4C-577.362,11315.6 -570.371,11316.9 -563.821,11316.4C-554.85,11315.6 -548.485,11307.1 -539.821,11307.2C-534.139,11307.3 -530.584,11311.2 -525.821,11313.6C-519.967,11316.6 -512.172,11317.5 -505.821,11315.7C-501.657,11314.5 -487.353,11305.3 -497.049,11301.2C-502.328,11299 -508.183,11305.6 -513.821,11305.3C-519.734,11305 -524.619,11300.6 -529.821,11298.3C-534.793,11296 -541.531,11295.7 -546.821,11297.1ZM-737.82,11148.2C-740.527,11149.1 -742.577,11151.4 -744.381,11153.5C-745.953,11155.3 -747.626,11157.3 -748.656,11159.5C-752.758,11168.2 -741.396,11174.5 -735.821,11179.2C-731.216,11183.1 -723.825,11187.1 -728.804,11193.4C-734.501,11200.6 -739.561,11194.3 -744.821,11189.9C-750.008,11185.6 -758.224,11176.6 -765.731,11180.6C-768.165,11181.9 -770.07,11184.4 -771.777,11186.5C-773.463,11188.5 -775.046,11190.7 -775.433,11193.5C-776.556,11201.3 -766.071,11207.2 -760.821,11211.3C-745.542,11223.3 -730.743,11236.1 -715.821,11248.5C-710.819,11252.7 -704.19,11260.5 -696.821,11257.9C-694.486,11257 -692.651,11255.2 -690.995,11253.4C-678.483,11239.9 -695.805,11230.3 -705.821,11222.1C-709.564,11219 -715.927,11215.5 -711.549,11210.4C-705.984,11203.9 -701.277,11207.6 -695.911,11212.2C-686.701,11220 -675.25,11234.2 -664.579,11221.5C-662.823,11219.3 -660.951,11217.2 -660.259,11214.5C-658.23,11206.5 -667.548,11200.8 -672.821,11196.7C-688.097,11184.6 -702.665,11171.7 -717.821,11159.5C-722.69,11155.5 -730.647,11145.9 -737.82,11148.2ZM-344.821,11198.5C-339.445,11192.1 -334.669,11185.1 -329.717,11178.5C-327.354,11175.3 -324.59,11171.7 -325.093,11167.5C-325.562,11163.5 -328.666,11160.4 -331.021,11157.5C-333.019,11155 -335.422,11151 -338.821,11150.3C-341.829,11149.7 -344.025,11152.4 -345.665,11154.5C-350.28,11160.4 -354.09,11167.1 -357.898,11173.5C-364.429,11184.4 -369.629,11197.3 -378.864,11206.4C-385.897,11213.3 -399.374,11219.1 -403.271,11228.5C-405.565,11233.9 -400.009,11241.7 -395.647,11244.7C-388.267,11249.8 -380.212,11242 -374.821,11237.5C-360.284,11225.6 -343.644,11221.5 -325.821,11216.8C-319.378,11215.1 -313.123,11212.6 -306.821,11210.5C-303.992,11209.5 -300.361,11208.5 -298.44,11206.1C-295.594,11202.4 -299.18,11198.4 -301.401,11195.5C-307.359,11187.6 -312.27,11184.5 -321.821,11188.8C-329.338,11192.1 -336.909,11196.2 -344.821,11198.5ZM-640.821,11086C-647.881,11087.6 -662.716,11092.4 -665.811,11099.6C-668.469,11105.6 -664.894,11114.5 -663.246,11120.5C-659.269,11134.9 -657.285,11149.9 -653.536,11164.5C-650.964,11174.4 -650.76,11200.3 -635.821,11196.9C-631.139,11195.9 -623.856,11193.7 -622.634,11188.4C-621.057,11181.6 -627.852,11172.4 -620.759,11167.5C-618.429,11165.8 -614.704,11164.1 -611.914,11165.4C-606.698,11167.9 -605.269,11175.4 -600.532,11178.7C-595.218,11182.4 -579.842,11175.5 -578.27,11169.4C-576.362,11162 -585.056,11153.1 -588.822,11147.5C-599.752,11131.1 -610.72,11114.9 -621.477,11098.5C-626.206,11091.2 -631.027,11083.8 -640.821,11086ZM-424.806,11093.2C-431.253,11095.6 -434.168,11105.1 -437.505,11110.5C-447.891,11127.2 -457.607,11144.4 -467.394,11161.5C-471.277,11168.2 -478.251,11177.2 -470.688,11183.9C-468.975,11185.4 -466.881,11186.7 -464.821,11187.6C-453.038,11193.2 -447.888,11181 -443.126,11172.5C-441.654,11169.8 -440.033,11165.8 -436.778,11164.9C-433.162,11163.9 -428.91,11168.1 -425.821,11169.6C-419.122,11172.6 -410.927,11174.6 -403.821,11171.9C-398.797,11170 -395.226,11165.9 -391.836,11161.9C-382.225,11150.5 -373.356,11132.9 -381.304,11118.5C-385.376,11111.1 -394.72,11106.9 -401.821,11102.9C-407.506,11099.7 -417.956,11090.7 -424.806,11093.2ZM-542.802,11067.2C-550.822,11070.4 -549.572,11086.3 -549.832,11093.5C-550.438,11110.1 -552.744,11126.8 -553.911,11143.5C-554.372,11150 -556.35,11157.9 -554.789,11164.4C-553.12,11171.4 -540.684,11173 -534.876,11170.6C-530.509,11168.8 -530.167,11164.6 -529.666,11160.5C-528.948,11154.6 -530.23,11144 -526.883,11139C-524.909,11136 -517.87,11137.5 -514.821,11137.5C-506.421,11137.5 -497,11137.2 -491.79,11129.4C-482.524,11115.6 -479.175,11085.5 -493.864,11074.1C-501.667,11068 -511.601,11069.2 -520.821,11068C-526.929,11067.2 -536.973,11064.9 -542.802,11067.2Z" style="fill:white;fill-rule:nonzero;"/>
                </g>
                <g transform="matrix(2.16988,0,0,2.19278,3832,-23466.3)">
                    <path d="M-651.442,11520.5C-655.291,11522.7 -661.381,11533.1 -662.024,11537.5C-662.766,11542.5 -656.905,11545.2 -652.825,11543.3C-647.342,11540.7 -642.839,11532.5 -643.023,11526.5C-643.146,11522.4 -647.24,11518.1 -651.442,11520.5ZM-760.821,11492.5C-750.171,11506.7 -728.778,11486.3 -718.821,11479.2C-715.065,11476.5 -711.231,11473.5 -708.83,11469.5C-707.088,11466.5 -705.64,11459 -710.93,11458.6C-714.064,11458.3 -717.471,11461.6 -719.821,11463.3C-722.455,11465.2 -725.128,11467 -727.821,11468.8C-732.554,11471.9 -737.173,11475.2 -741.821,11478.4C-748.314,11483 -754.956,11487.1 -760.821,11492.5ZM-413.717,11123.5C-417.988,11125.6 -424.204,11136.7 -424.398,11141.4C-424.591,11146.1 -418.527,11148.2 -414.861,11146.4C-409.676,11143.9 -405.351,11135.1 -405.605,11129.5C-405.784,11125.4 -409.53,11121.5 -413.717,11123.5ZM-641.821,11112.5C-640.889,11123.1 -636.8,11137 -631.821,11146.5C-629.236,11145.8 -625.241,11145.2 -624.239,11142.2C-623.287,11139.4 -625.87,11135.8 -627.13,11133.5C-630.763,11126.7 -634.86,11116 -641.821,11112.5ZM-522.093,11090.5C-526.043,11093.5 -524.703,11102.1 -525.245,11106.5C-525.478,11108.3 -525.97,11110.4 -525.203,11112.2C-523.6,11116 -517.948,11115.9 -515.1,11113.7C-510.666,11110.3 -510.492,11098.4 -512.563,11093.6C-513.957,11090.3 -518.995,11088.1 -522.093,11090.5Z" style="fill:rgb(11,5,30);fill-rule:nonzero;"/>
                </g>
                <g transform="matrix(2.16988,0,0,2.19278,3832,-22720.2)">
                    <path d="M-539.537,10661.6C-732.1,10661.6 -888.437,10818 -888.437,11010.5C-888.437,11203.1 -732.1,11359.4 -539.537,11359.4C-346.974,11359.4 -190.637,11203.1 -190.637,11010.5C-190.637,10818 -346.974,10661.6 -539.537,10661.6ZM-539.537,10679.3C-356.722,10679.3 -208.299,10827.7 -208.299,11010.5C-208.299,11193.4 -356.722,11341.8 -539.537,11341.8C-722.352,11341.8 -870.775,11193.4 -870.775,11010.5C-870.775,10827.7 -722.352,10679.3 -539.537,10679.3Z" style="fill:white;"/>
                </g>
            </g>
        </g>
    </g>
</svg>
