<?xml version="1.0" encoding="UTF-8" standalone="no"?>
<!DOCTYPE svg PUBLIC "-//W3C//DTD SVG 1.1//EN" "http://www.w3.org/Graphics/SVG/1.1/DTD/svg11.dtd">
<svg width="100%" height="100%" viewBox="0 0 24 24" version="1.1" xmlns="http://www.w3.org/2000/svg" xmlns:xlink="http://www.w3.org/1999/xlink" xml:space="preserve" xmlns:serif="http://www.serif.com/" style="fill-rule:evenodd;clip-rule:evenodd;stroke-linejoin:round;stroke-miterlimit:2;">
    <g transform="matrix(1,0,0,1,-11358.1,-1829.82)">
        <g id="icon-play" serif:id="icon play" transform="matrix(0.749484,0,0,0.749484,10524.1,1782.31)">
            <rect x="1112.73" y="63.386" width="32.001" height="32.001" style="fill:none;"/>
            <g transform="matrix(9.73584e-17,1.58998,-1.58998,9.73584e-17,1249.08,-1716.27)">
                <path d="M1127.76,69.535C1128.09,68.963 1128.7,68.611 1129.36,68.611C1130.02,68.611 1130.63,68.963 1130.96,69.535L1136.15,78.528C1136.48,79.1 1136.48,79.804 1136.15,80.376C1135.82,80.948 1135.21,81.3 1134.55,81.3L1124.16,81.3C1123.51,81.3 1122.89,80.948 1122.57,80.376C1122.24,79.804 1122.24,79.1 1122.57,78.528L1127.76,69.535ZM1128.85,70.164L1123.65,79.157C1123.55,79.34 1123.55,79.564 1123.65,79.747C1123.76,79.929 1123.95,80.042 1124.16,80.042L1134.55,80.042C1134.76,80.042 1134.95,79.929 1135.06,79.747C1135.17,79.564 1135.17,79.34 1135.06,79.157L1129.87,70.164C1129.76,69.982 1129.57,69.869 1129.36,69.869C1129.15,69.869 1128.95,69.982 1128.85,70.164Z"/>
            </g>
        </g>
    </g>
</svg>
