<?xml version="1.0" encoding="UTF-8" standalone="no"?>
<!DOCTYPE svg PUBLIC "-//W3C//DTD SVG 1.1//EN" "http://www.w3.org/Graphics/SVG/1.1/DTD/svg11.dtd">
<svg width="100%" height="100%" viewBox="0 0 1120 1120" version="1.1" xmlns="http://www.w3.org/2000/svg" xmlns:xlink="http://www.w3.org/1999/xlink" xml:space="preserve" xmlns:serif="http://www.serif.com/" style="fill-rule:evenodd;clip-rule:evenodd;stroke-linejoin:round;stroke-miterlimit:2;">
    <g transform="matrix(1,0,0,1,-10861.1,-1608.2)">
        <g id="Plan-de-travail10" serif:id="Plan de travail10">
            <rect x="10861.1" y="1608.2" width="1119.46" height="1119.46" style="fill:none;"/>
            <g transform="matrix(1.26215,0,0,1.26215,-3099.45,-482.066)">
                <path d="M11278.7,1940.76L11730.1,1940.76C11740.4,1940.76 11748.7,1932.59 11748.7,1922.52C11748.7,1912.45 11740.4,1904.28 11730.1,1904.28L11278.7,1904.28C11268.4,1904.28 11260.1,1912.45 11260.1,1922.52C11260.1,1932.59 11268.4,1940.76 11278.7,1940.76ZM11278.7,2117.29L11730.1,2117.29C11740.4,2117.29 11748.7,2109.12 11748.7,2099.05C11748.7,2088.98 11740.4,2080.81 11730.1,2080.81L11278.7,2080.81C11268.4,2080.81 11260.1,2088.98 11260.1,2099.05C11260.1,2109.12 11268.4,2117.29 11278.7,2117.29ZM11278.7,2294.9L11730.1,2294.9C11740.4,2294.9 11748.7,2286.73 11748.7,2276.66C11748.7,2266.59 11740.4,2258.42 11730.1,2258.42L11278.7,2258.42C11268.4,2258.42 11260.1,2266.59 11260.1,2276.66C11260.1,2286.73 11268.4,2294.9 11278.7,2294.9Z" style="fill:white;fill-rule:nonzero;"/>
            </g>
        </g>
    </g>
</svg>
