<?xml version="1.0" encoding="UTF-8" standalone="no"?>
<!DOCTYPE svg PUBLIC "-//W3C//DTD SVG 1.1//EN" "http://www.w3.org/Graphics/SVG/1.1/DTD/svg11.dtd">
<svg width="100%" height="100%" viewBox="0 0 40 40" version="1.1" xmlns="http://www.w3.org/2000/svg" xmlns:xlink="http://www.w3.org/1999/xlink" xml:space="preserve" xmlns:serif="http://www.serif.com/" style="fill-rule:evenodd;clip-rule:evenodd;stroke-linejoin:round;stroke-miterlimit:2;">
    <g transform="matrix(1,0,0,1,-892,-5984)">
        <g id="Groupe_de_masques_3">
        </g>
        <g id="Groupe_de_masques_31" serif:id="Groupe_de_masques_3">
        </g>
        <g id="Plan-de-travail23" serif:id="Plan de travail23" transform="matrix(0.605172,0,0,0.605172,351.849,2362.15)">
            <rect x="892.557" y="5984.83" width="66.097" height="66.097" style="fill:none;"/>
            <g transform="matrix(1.15649,0,0,1.15649,-149.599,-939.768)">
                <path d="M911.704,6014.15C914.002,6012.94 916.794,6012.35 920.07,6013.19C927.986,6015.21 930.4,6025.49 925.625,6031.55C923.624,6034.09 920.4,6035.95 915.776,6035.98C911.861,6036.02 908.86,6033.69 907.057,6030.05C904.753,6025.4 904.525,6018.49 906.734,6013.07C910.384,6004.11 916.788,5998.32 924.427,5996.37L925.67,6001.21C919.671,6002.75 914.72,6007.3 911.704,6014.15Z" style="fill:rgb(72,50,207);"/>
            </g>
            <g transform="matrix(1.15649,0,0,1.15649,-119.344,-939.768)">
                <path d="M911.704,6014.15C914.002,6012.94 916.794,6012.35 920.07,6013.19C927.986,6015.21 930.4,6025.49 925.625,6031.55C923.624,6034.09 920.4,6035.95 915.776,6035.98C911.861,6036.02 908.86,6033.69 907.057,6030.05C904.753,6025.4 904.525,6018.49 906.734,6013.07C910.384,6004.11 916.788,5998.32 924.427,5996.37L925.67,6001.21C919.671,6002.75 914.72,6007.3 911.704,6014.15Z" style="fill:rgb(72,50,207);"/>
            </g>
        </g>
    </g>
</svg>
