<?xml version="1.0" encoding="UTF-8" standalone="no"?>
<!DOCTYPE svg PUBLIC "-//W3C//DTD SVG 1.1//EN" "http://www.w3.org/Graphics/SVG/1.1/DTD/svg11.dtd">
<svg width="100%" height="100%" viewBox="0 0 24 24" version="1.1" xmlns="http://www.w3.org/2000/svg" xmlns:xlink="http://www.w3.org/1999/xlink" xml:space="preserve" xmlns:serif="http://www.serif.com/" style="fill-rule:evenodd;clip-rule:evenodd;stroke-linejoin:round;stroke-miterlimit:2;">
    <g transform="matrix(1,0,0,1,-3111.71,-3094.87)">
        <g id="transcription" transform="matrix(0.51276,0,0,0.51276,3022.55,3036.15)">
            <rect x="173.879" y="114.512" width="46.806" height="46.806" style="fill:none;"/>
            <g transform="matrix(1.20016,0,0,1.95023,-3555.81,-5921.49)">
                <path d="M3117.07,3113.75C3116.4,3113.75 3115.85,3113.41 3115.85,3113C3115.85,3112.59 3116.4,3112.25 3117.07,3112.25L3127.86,3112.25C3128.53,3112.25 3129.08,3112.59 3129.08,3113C3129.08,3113.41 3128.53,3113.75 3127.86,3113.75L3117.07,3113.75Z"/>
            </g>
            <g transform="matrix(1.69919,0,0,1.95023,-5111.29,-5937.05)">
                <path d="M3117.07,3113.75C3116.59,3113.75 3116.21,3113.41 3116.21,3113C3116.21,3112.59 3116.59,3112.25 3117.07,3112.25L3127.86,3112.25C3128.34,3112.25 3128.72,3112.59 3128.72,3113C3128.72,3113.41 3128.34,3113.75 3127.86,3113.75L3117.07,3113.75Z"/>
            </g>
            <g transform="matrix(2.24174,0,0,1.95023,-6802.46,-5929.27)">
                <path d="M3117.07,3113.75C3116.71,3113.75 3116.42,3113.41 3116.42,3113C3116.42,3112.59 3116.71,3112.25 3117.07,3112.25L3127.86,3112.25C3128.22,3112.25 3128.51,3112.59 3128.51,3113C3128.51,3113.41 3128.22,3113.75 3127.86,3113.75L3117.07,3113.75Z"/>
            </g>
            <g transform="matrix(2.24174,0,0,1.95023,-6802.46,-5944.83)">
                <path d="M3117.07,3113.75C3116.71,3113.75 3116.42,3113.41 3116.42,3113C3116.42,3112.59 3116.71,3112.25 3117.07,3112.25L3127.86,3112.25C3128.22,3112.25 3128.51,3112.59 3128.51,3113C3128.51,3113.41 3128.22,3113.75 3127.86,3113.75L3117.07,3113.75Z"/>
            </g>
        </g>
    </g>
</svg>
